{
.appVersion = "1312";
DisplayStrings = (
"THE/space QUICK/space BROWN/space FOX/space JUMPS/space \012OVER/space THE/space LAZY/space DOG\012\012AMAZINGLY/space FEW/space DISCOTHEQUES/space \012PROVIDE/space JUKEBOXES\012\012the/space quick/space brown/space fox/space jumps/space over/space the/space lazy/space dog!\012/space \012League/space Spartan\012Amazingly/space few/space discotheques\012provide/space jukeboxes\012\012Allison/space Usavage\012Instagram\012Facebook\012SNAPCHAT\0120123456789",

glyphs = (
{
glyphname = A;
lastChange = "2020-04-05 00:02:23 +0000";
layers = (
{
anchors = (
{
name = bottom;
position = "{439, 0}";
},
{
name = ogonek;
position = "{778, 10}";
},
{
name = top;
position = "{439, 825}";
}
);
layerId = "C45C3DCC-6617-4D42-8E57-0A4EECAD9C2E";
paths = (
{
closed = 1;
nodes = (
"-20 0 LINE",
"239 0 LINE",
"292 143 LINE",
"586 143 LINE",
"639 0 LINE",
"897 0 LINE",
"557 825 LINE",
"320 825 LINE"
);
},
{
closed = 1;
nodes = (
"438 535 LINE",
"440 535 LINE",
"505 353 LINE",
"373 353 LINE"
);
}
);
width = 907;
},
{
anchors = (
{
name = bottom;
position = "{342, 0}";
},
{
name = ogonek;
position = "{586, 10}";
},
{
name = top;
position = "{342, 825}";
}
);
layerId = "9D4C2422-5CE9-4C2E-AAC7-BF869A02F5C8";
paths = (
{
closed = 1;
nodes = (
"29 0 LINE",
"71 0 LINE",
"153 226 LINE",
"531 226 LINE",
"612 0 LINE",
"654 0 LINE",
"366 825 LINE",
"318 825 LINE"
);
},
{
closed = 1;
nodes = (
"341 773 LINE",
"343 773 LINE",
"521 266 LINE",
"164 266 LINE"
);
}
);
width = 679;
}
);
leftKerningGroup = A;
rightKerningGroup = A;
unicode = 0041;
},
{
glyphname = AE;
lastChange = "2019-07-14 18:47:33 +0000";
layers = (
{
components = (
{
alignment = -1;
name = E;
transform = "{1, 0, 0, 1, 448, 0}";
}
);
layerId = "C45C3DCC-6617-4D42-8E57-0A4EECAD9C2E";
paths = (
{
closed = 1;
nodes = (
"-21 0 LINE",
"242 0 LINE",
"313 143 LINE",
"611 143 LINE",
"665 825 LINE",
"415 825 LINE"
);
},
{
closed = 1;
nodes = (
"499 501 LINE",
"501 501 LINE",
"501 323 LINE",
"403 323 LINE"
);
}
);
width = 1102;
},
{
components = (
{
alignment = -1;
name = E;
transform = "{1, 0, 0, 1, 419, 0}";
}
);
layerId = "9D4C2422-5CE9-4C2E-AAC7-BF869A02F5C8";
paths = (
{
closed = 1;
nodes = (
"17 0 LINE",
"59 0 LINE",
"188 226 LINE",
"542 226 LINE",
"533 825 LINE",
"484 825 LINE"
);
},
{
closed = 1;
nodes = (
"506 791 LINE",
"508 781 LINE",
"508 266 LINE",
"206 266 LINE"
);
}
);
width = 1002;
}
);
leftKerningGroup = A;
rightKerningGroup = E;
unicode = 00C6;
},
{
glyphname = B;
lastChange = "2019-07-11 15:01:41 +0000";
layers = (
{
anchors = (
{
name = bottom;
position = "{338, 0}";
},
{
name = top;
position = "{338, 825}";
}
);
layerId = "C45C3DCC-6617-4D42-8E57-0A4EECAD9C2E";
paths = (
{
closed = 1;
nodes = (
"49 0 LINE",
"393 0 LINE SMOOTH",
"564 0 OFFCURVE",
"669 95 OFFCURVE",
"669 236 CURVE SMOOTH",
"669 368 OFFCURVE",
"600 430 OFFCURVE",
"504 444 CURVE",
"582 464 OFFCURVE",
"638 527 OFFCURVE",
"638 621 CURVE SMOOTH",
"638 768 OFFCURVE",
"514 825 OFFCURVE",
"369 825 CURVE SMOOTH",
"49 825 LINE"
);
},
{
closed = 1;
nodes = (
"291 328 LINE",
"325 328 LINE SMOOTH",
"379 328 OFFCURVE",
"413 316 OFFCURVE",
"413 261 CURVE SMOOTH",
"413 206 OFFCURVE",
"379 191 OFFCURVE",
"325 191 CURVE SMOOTH",
"291 191 LINE"
);
},
{
closed = 1;
nodes = (
"291 634 LINE",
"324 634 LINE SMOOTH",
"370 634 OFFCURVE",
"398 625 OFFCURVE",
"398 577 CURVE SMOOTH",
"398 529 OFFCURVE",
"370 515 OFFCURVE",
"324 515 CURVE SMOOTH",
"291 515 LINE"
);
}
);
width = 721;
},
{
anchors = (
{
name = bottom;
position = "{307, 0}";
},
{
name = top;
position = "{307, 825}";
}
);
layerId = "9D4C2422-5CE9-4C2E-AAC7-BF869A02F5C8";
paths = (
{
closed = 1;
nodes = (
"79 0 LINE",
"321 0 LINE SMOOTH",
"492 0 OFFCURVE",
"562 97 OFFCURVE",
"562 230 CURVE SMOOTH",
"562 364 OFFCURVE",
"438 424 OFFCURVE",
"390 426 CURVE",
"438 430 OFFCURVE",
"518 518 OFFCURVE",
"518 628 CURVE SMOOTH",
"518 784 OFFCURVE",
"393 825 OFFCURVE",
"263 825 CURVE SMOOTH",
"79 825 LINE"
);
},
{
closed = 1;
nodes = (
"117 402 LINE",
"326 402 LINE SMOOTH",
"455 402 OFFCURVE",
"523 323 OFFCURVE",
"523 225 CURVE SMOOTH",
"523 137 OFFCURVE",
"490 39 OFFCURVE",
"339 39 CURVE SMOOTH",
"117 39 LINE"
);
},
{
closed = 1;
nodes = (
"117 786 LINE",
"283 786 LINE SMOOTH",
"401 786 OFFCURVE",
"479 742 OFFCURVE",
"479 623 CURVE SMOOTH",
"479 542 OFFCURVE",
"426 440 OFFCURVE",
"308 440 CURVE SMOOTH",
"117 440 LINE"
);
}
);
width = 638;
}
);
leftKerningGroup = H;
rightKerningGroup = B;
unicode = 0042;
},
{
glyphname = C;
lastChange = "2020-04-05 00:02:37 +0000";
layers = (
{
anchors = (
{
name = bottom;
position = "{436, 0}";
},
{
name = top;
position = "{436, 825}";
}
);
layerId = "C45C3DCC-6617-4D42-8E57-0A4EECAD9C2E";
paths = (
{
closed = 1;
nodes = (
"681 810 LINE",
"636 833 OFFCURVE",
"568 840 OFFCURVE",
"493 840 CURVE SMOOTH",
"208 840 OFFCURVE",
"24 654 OFFCURVE",
"24 413 CURVE SMOOTH",
"24 172 OFFCURVE",
"190 -15 OFFCURVE",
"493 -15 CURVE SMOOTH",
"561 -15 OFFCURVE",
"642 -5 OFFCURVE",
"681 11 CURVE",
"681 254 LINE",
"659 237 OFFCURVE",
"608 208 OFFCURVE",
"493 208 CURVE SMOOTH",
"356 208 OFFCURVE",
"276 294 OFFCURVE",
"276 413 CURVE SMOOTH",
"276 532 OFFCURVE",
"356 618 OFFCURVE",
"493 618 CURVE SMOOTH",
"608 618 OFFCURVE",
"659 586 OFFCURVE",
"681 567 CURVE"
);
}
);
width = 754;
},
{
anchors = (
{
name = bottom;
position = "{392, 0}";
},
{
name = top;
position = "{392, 825}";
}
);
layerId = "9D4C2422-5CE9-4C2E-AAC7-BF869A02F5C8";
paths = (
{
closed = 1;
nodes = (
"578 802 LINE",
"545 824 OFFCURVE",
"492 840 OFFCURVE",
"407 840 CURVE SMOOTH",
"179 840 OFFCURVE",
"30 654 OFFCURVE",
"30 413 CURVE SMOOTH",
"30 172 OFFCURVE",
"161 -15 OFFCURVE",
"407 -15 CURVE SMOOTH",
"490 -15 OFFCURVE",
"554 9 OFFCURVE",
"578 28 CURVE",
"578 71 LINE",
"556 57 OFFCURVE",
"504 24 OFFCURVE",
"407 24 CURVE SMOOTH",
"227 24 OFFCURVE",
"71 170 OFFCURVE",
"71 413 CURVE SMOOTH",
"71 656 OFFCURVE",
"236 801 OFFCURVE",
"407 801 CURVE SMOOTH",
"507 801 OFFCURVE",
"559 770 OFFCURVE",
"578 758 CURVE"
);
}
);
width = 660;
}
);
leftKerningGroup = O;
leftMetricsKey = O;
rightKerningGroup = C;
unicode = 0043;
},
{
glyphname = C.ss01;
lastChange = "2020-04-04 14:49:58 +0000";
layers = (
{
layerId = "C45C3DCC-6617-4D42-8E57-0A4EECAD9C2E";
paths = (
{
closed = 1;
nodes = (
"344 225 OFFCURVE",
"294 327 OFFCURVE",
"294 413 CURVE SMOOTH",
"294 498 OFFCURVE",
"344 600 OFFCURVE",
"502 600 CURVE SMOOTH",
"560 600 OFFCURVE",
"620 577 OFFCURVE",
"650 559 CURVE",
"753 764 LINE",
"713 797 OFFCURVE",
"612 840 OFFCURVE",
"482 840 CURVE SMOOTH",
"238 840 OFFCURVE",
"31 658 OFFCURVE",
"31 411 CURVE SMOOTH",
"31 165 OFFCURVE",
"239 -15 OFFCURVE",
"482 -15 CURVE SMOOTH",
"612 -15 OFFCURVE",
"713 28 OFFCURVE",
"753 61 CURVE",
"650 266 LINE",
"620 248 OFFCURVE",
"560 225 OFFCURVE",
"502 225 CURVE SMOOTH"
);
}
);
width = 816;
},
{
layerId = "9D4C2422-5CE9-4C2E-AAC7-BF869A02F5C8";
paths = (
{
closed = 1;
nodes = (
"254 23 OFFCURVE",
"79 177 OFFCURVE",
"79 413 CURVE SMOOTH",
"79 648 OFFCURVE",
"254 802 OFFCURVE",
"453 802 CURVE SMOOTH",
"578 802 OFFCURVE",
"667 760 OFFCURVE",
"700 729 CURVE",
"718 764 LINE",
"682 797 OFFCURVE",
"587 840 OFFCURVE",
"457 840 CURVE SMOOTH",
"213 840 OFFCURVE",
"37 648 OFFCURVE",
"37 411 CURVE SMOOTH",
"37 175 OFFCURVE",
"214 -15 OFFCURVE",
"457 -15 CURVE SMOOTH",
"587 -15 OFFCURVE",
"682 28 OFFCURVE",
"718 61 CURVE",
"700 96 LINE",
"667 65 OFFCURVE",
"578 23 OFFCURVE",
"453 23 CURVE SMOOTH"
);
}
);
width = 776;
}
);
leftKerningGroup = O;
rightKerningGroup = C;
},
{
glyphname = D;
lastChange = "2019-07-11 15:01:41 +0000";
layers = (
{
anchors = (
{
name = bottom;
position = "{365, 0}";
},
{
name = center;
position = "{231, 413}";
},
{
name = top;
position = "{365, 825}";
}
);
layerId = "C45C3DCC-6617-4D42-8E57-0A4EECAD9C2E";
paths = (
{
closed = 1;
nodes = (
"45 0 LINE",
"330 0 LINE SMOOTH",
"593 0 OFFCURVE",
"726 172 OFFCURVE",
"726 413 CURVE SMOOTH",
"726 653 OFFCURVE",
"593 825 OFFCURVE",
"330 825 CURVE SMOOTH",
"45 825 LINE"
);
},
{
closed = 1;
nodes = (
"308 612 LINE SMOOTH",
"412 612 OFFCURVE",
"469 524 OFFCURVE",
"469 412 CURVE SMOOTH",
"469 300 OFFCURVE",
"411 213 OFFCURVE",
"308 213 CURVE SMOOTH",
"287 213 LINE",
"287 612 LINE"
);
}
);
width = 777;
},
{
anchors = (
{
name = bottom;
position = "{324, 0}";
},
{
name = center;
position = "{104, 413}";
},
{
name = top;
position = "{324, 825}";
}
);
layerId = "9D4C2422-5CE9-4C2E-AAC7-BF869A02F5C8";
paths = (
{
closed = 1;
nodes = (
"77 0 LINE",
"226 0 LINE SMOOTH",
"491 0 OFFCURVE",
"605 172 OFFCURVE",
"605 413 CURVE SMOOTH",
"605 653 OFFCURVE",
"490 825 OFFCURVE",
"226 825 CURVE SMOOTH",
"77 825 LINE"
);
},
{
closed = 1;
nodes = (
"224 785 LINE SMOOTH",
"465 785 OFFCURVE",
"566 630 OFFCURVE",
"565 412 CURVE SMOOTH",
"564 194 OFFCURVE",
"463 40 OFFCURVE",
"224 40 CURVE SMOOTH",
"115 40 LINE",
"115 785 LINE"
);
}
);
width = 680;
}
);
leftKerningGroup = H;
rightKerningGroup = O;
unicode = 0044;
},
{
glyphname = Eth;
lastChange = "2019-07-11 15:01:41 +0000";
layers = (
{
layerId = "C45C3DCC-6617-4D42-8E57-0A4EECAD9C2E";
paths = (
{
closed = 1;
nodes = (
"68 825 LINE",
"68 511 LINE",
"9 511 LINE",
"9 314 LINE",
"68 314 LINE",
"68 0 LINE",
"338 0 LINE SMOOTH",
"550 0 OFFCURVE",
"770 171 OFFCURVE",
"770 412 CURVE SMOOTH",
"770 653 OFFCURVE",
"552 825 OFFCURVE",
"338 825 CURVE SMOOTH"
);
},
{
closed = 1;
nodes = (
"310 213 LINE",
"310 314 LINE",
"402 314 LINE",
"402 511 LINE",
"310 511 LINE",
"310 612 LINE",
"316 612 LINE SMOOTH",
"419 612 OFFCURVE",
"505 513 OFFCURVE",
"506 413 CURVE SMOOTH",
"507 313 OFFCURVE",
"421 213 OFFCURVE",
"316 213 CURVE SMOOTH"
);
}
);
width = 831;
},
{
layerId = "9D4C2422-5CE9-4C2E-AAC7-BF869A02F5C8";
paths = (
{
closed = 1;
nodes = (
"180 825 LINE",
"180 427 LINE",
"33 427 LINE",
"33 399 LINE",
"180 399 LINE",
"180 0 LINE",
"332 0 LINE SMOOTH",
"596 0 OFFCURVE",
"704 172 OFFCURVE",
"704 413 CURVE SMOOTH",
"704 653 OFFCURVE",
"594 825 OFFCURVE",
"332 825 CURVE SMOOTH"
);
},
{
closed = 1;
nodes = (
"218 43 LINE",
"218 399 LINE",
"375 399 LINE",
"375 427 LINE",
"218 427 LINE",
"218 782 LINE",
"310 782 LINE SMOOTH",
"553 782 OFFCURVE",
"670 652 OFFCURVE",
"669 406 CURVE SMOOTH",
"668 174 OFFCURVE",
"547 43 OFFCURVE",
"310 43 CURVE SMOOTH"
);
}
);
width = 768;
}
);
leftKerningGroup = H;
rightKerningGroup = O;
unicode = 00D0;
},
{
glyphname = Dcroat;
lastChange = "2019-07-11 15:01:41 +0000";
layers = (
{
layerId = "C45C3DCC-6617-4D42-8E57-0A4EECAD9C2E";
paths = (
{
closed = 1;
nodes = (
"338 0 LINE SMOOTH",
"551 0 OFFCURVE",
"770 172 OFFCURVE",
"770 413 CURVE SMOOTH",
"770 653 OFFCURVE",
"550 825 OFFCURVE",
"338 825 CURVE SMOOTH",
"68 825 LINE",
"68 511 LINE",
"9 511 LINE",
"9 314 LINE",
"68 314 LINE",
"68 0 LINE"
);
},
{
closed = 1;
nodes = (
"310 314 LINE",
"402 314 LINE",
"402 511 LINE",
"310 511 LINE",
"310 612 LINE",
"316 612 LINE SMOOTH",
"420 612 OFFCURVE",
"506 514 OFFCURVE",
"506 412 CURVE SMOOTH",
"506 310 OFFCURVE",
"419 213 OFFCURVE",
"316 213 CURVE SMOOTH",
"310 213 LINE"
);
}
);
width = 831;
},
{
layerId = "9D4C2422-5CE9-4C2E-AAC7-BF869A02F5C8";
paths = (
{
closed = 1;
nodes = (
"332 0 LINE SMOOTH",
"596 0 OFFCURVE",
"704 172 OFFCURVE",
"704 413 CURVE SMOOTH",
"704 653 OFFCURVE",
"595 825 OFFCURVE",
"332 825 CURVE SMOOTH",
"180 825 LINE",
"180 427 LINE",
"33 427 LINE",
"33 399 LINE",
"180 399 LINE",
"180 0 LINE"
);
},
{
closed = 1;
nodes = (
"218 399 LINE",
"375 399 LINE",
"375 427 LINE",
"218 427 LINE",
"218 782 LINE",
"310 782 LINE SMOOTH",
"545 782 OFFCURVE",
"670 660 OFFCURVE",
"669 406 CURVE SMOOTH",
"668 180 OFFCURVE",
"553 43 OFFCURVE",
"310 43 CURVE SMOOTH",
"218 43 LINE"
);
}
);
width = 768;
}
);
leftKerningGroup = D;
rightKerningGroup = D;
unicode = 0110;
},
{
glyphname = E;
lastChange = "2020-04-04 23:59:24 +0000";
layers = (
{
anchors = (
{
name = bottom;
position = "{295, 0}";
},
{
name = ogonek;
position = "{544, 10}";
},
{
name = top;
position = "{295, 825}";
},
{
name = topleft;
position = "{5, 825}";
}
);
layerId = "C45C3DCC-6617-4D42-8E57-0A4EECAD9C2E";
paths = (
{
closed = 1;
nodes = (
"40 0 LINE",
"594 0 LINE",
"594 210 LINE",
"282 210 LINE",
"282 312 LINE",
"594 312 LINE",
"594 515 LINE",
"282 515 LINE",
"282 615 LINE",
"594 615 LINE",
"594 825 LINE",
"40 825 LINE"
);
}
);
width = 677;
},
{
anchors = (
{
name = bottom;
position = "{282, 0}";
},
{
name = ogonek;
position = "{526, 10}";
},
{
name = top;
position = "{317, 825}";
},
{
name = topleft;
position = "{32, 825}";
}
);
layerId = "9D4C2422-5CE9-4C2E-AAC7-BF869A02F5C8";
paths = (
{
closed = 1;
nodes = (
"84 0 LINE",
"539 0 LINE",
"539 40 LINE",
"122 40 LINE",
"122 394 LINE",
"527 394 LINE",
"527 434 LINE",
"122 434 LINE",
"122 785 LINE",
"539 785 LINE",
"539 825 LINE",
"84 825 LINE"
);
}
);
width = 647;
}
);
leftKerningGroup = H;
leftMetricsKey = H;
rightKerningGroup = E;
rightMetricsKey = H;
unicode = 0045;
},
{
glyphname = F;
lastChange = "2019-07-11 15:01:41 +0000";
layers = (
{
anchors = (
{
name = bottom;
position = "{289, 0}";
},
{
name = top;
position = "{289, 825}";
}
);
layerId = "C45C3DCC-6617-4D42-8E57-0A4EECAD9C2E";
paths = (
{
closed = 1;
nodes = (
"49 0 LINE",
"291 0 LINE",
"291 309 LINE",
"536 309 LINE",
"536 518 LINE",
"291 518 LINE",
"291 615 LINE",
"558 615 LINE",
"558 825 LINE",
"49 825 LINE"
);
}
);
width = 622;
},
{
anchors = (
{
name = bottom;
position = "{259, 0}";
},
{
name = top;
position = "{259, 825}";
}
);
layerId = "9D4C2422-5CE9-4C2E-AAC7-BF869A02F5C8";
paths = (
{
closed = 1;
nodes = (
"79 0 LINE",
"117 0 LINE",
"117 394 LINE",
"447 394 LINE",
"447 434 LINE",
"117 434 LINE",
"117 785 LINE",
"469 785 LINE",
"469 825 LINE",
"79 825 LINE"
);
}
);
width = 542;
}
);
leftKerningGroup = H;
rightKerningGroup = F;
unicode = 0046;
},
{
glyphname = G;
lastChange = "2020-04-04 23:57:03 +0000";
layers = (
{
anchors = (
{
name = bottom;
position = "{478, 0}";
},
{
name = top;
position = "{458, 825}";
}
);
layerId = "C45C3DCC-6617-4D42-8E57-0A4EECAD9C2E";
paths = (
{
closed = 1;
nodes = (
"448 289 LINE",
"603 289 LINE",
"571 242 OFFCURVE",
"520 211 OFFCURVE",
"457 211 CURVE SMOOTH",
"348 211 OFFCURVE",
"276 302 OFFCURVE",
"276 413 CURVE SMOOTH",
"276 524 OFFCURVE",
"348 615 OFFCURVE",
"457 615 CURVE SMOOTH",
"519 615 OFFCURVE",
"570 585 OFFCURVE",
"601 539 CURVE",
"795 685 LINE",
"717 780 OFFCURVE",
"596 840 OFFCURVE",
"457 840 CURVE SMOOTH",
"211 840 OFFCURVE",
"24 654 OFFCURVE",
"24 413 CURVE SMOOTH",
"24 172 OFFCURVE",
"194 -15 OFFCURVE",
"457 -15 CURVE SMOOTH",
"714 -15 OFFCURVE",
"890 172 OFFCURVE",
"890 413 CURVE SMOOTH",
"890 470 LINE",
"448 470 LINE"
);
}
);
width = 945;
},
{
anchors = (
{
name = bottom;
position = "{441, 0}";
},
{
name = top;
position = "{429, 825}";
}
);
layerId = "9D4C2422-5CE9-4C2E-AAC7-BF869A02F5C8";
paths = (
{
closed = 1;
nodes = (
"413 398 LINE",
"786 398 LINE",
"779 195 OFFCURVE",
"632 25 OFFCURVE",
"429 25 CURVE SMOOTH",
"221 25 OFFCURVE",
"70 203 OFFCURVE",
"70 413 CURVE SMOOTH",
"70 623 OFFCURVE",
"221 800 OFFCURVE",
"429 800 CURVE SMOOTH",
"544 800 OFFCURVE",
"641 746 OFFCURVE",
"705 662 CURVE",
"734 687 LINE",
"663 780 OFFCURVE",
"554 840 OFFCURVE",
"429 840 CURVE SMOOTH",
"202 840 OFFCURVE",
"30 644 OFFCURVE",
"30 413 CURVE SMOOTH",
"30 182 OFFCURVE",
"202 -15 OFFCURVE",
"429 -15 CURVE SMOOTH",
"651 -15 OFFCURVE",
"826 174 OFFCURVE",
"826 398 CURVE SMOOTH",
"826 437 LINE",
"413 437 LINE"
);
}
);
width = 882;
}
);
leftKerningGroup = O;
leftMetricsKey = O;
rightKerningGroup = O;
rightMetricsKey = O;
unicode = 0047;
},
{
glyphname = H;
lastChange = "2020-04-04 23:59:42 +0000";
layers = (
{
anchors = (
{
name = bottom;
position = "{386, -186}";
},
{
name = center;
position = "{386, 599}";
},
{
name = top;
position = "{386, 825}";
},
{
name = topleft;
position = "{0, 825}";
}
);
layerId = "C45C3DCC-6617-4D42-8E57-0A4EECAD9C2E";
paths = (
{
closed = 1;
nodes = (
"490 0 LINE",
"731 0 LINE",
"731 825 LINE",
"490 825 LINE",
"490 518 LINE",
"282 518 LINE",
"282 825 LINE",
"40 825 LINE",
"40 0 LINE",
"282 0 LINE",
"282 309 LINE",
"490 309 LINE"
);
}
);
width = 814;
},
{
anchors = (
{
name = bottom;
position = "{366, -103}";
},
{
name = center;
position = "{366, 516}";
},
{
name = top;
position = "{366, 825}";
},
{
name = topleft;
position = "{74, 825}";
}
);
layerId = "9D4C2422-5CE9-4C2E-AAC7-BF869A02F5C8";
paths = (
{
closed = 1;
nodes = (
"611 0 LINE",
"649 0 LINE",
"649 825 LINE",
"611 825 LINE",
"611 434 LINE",
"122 434 LINE",
"122 825 LINE",
"84 825 LINE",
"84 0 LINE",
"122 0 LINE",
"122 394 LINE",
"611 394 LINE"
);
}
);
width = 757;
}
);
leftKerningGroup = H;
rightKerningGroup = H;
unicode = 0048;
},
{
glyphname = Hbar;
lastChange = "2020-04-04 23:50:36 +0000";
layers = (
{
components = (
{
name = H;
}
);
layerId = "C45C3DCC-6617-4D42-8E57-0A4EECAD9C2E";
paths = (
{
closed = 1;
nodes = (
"-21 596 LINE",
"786 596 LINE",
"786 746 LINE",
"-21 746 LINE"
);
}
);
width = 814;
},
{
components = (
{
name = H;
}
);
layerId = "9D4C2422-5CE9-4C2E-AAC7-BF869A02F5C8";
paths = (
{
closed = 1;
nodes = (
"18 629 LINE",
"655 629 LINE",
"655 668 LINE",
"18 668 LINE"
);
}
);
width = 697;
}
);
leftKerningGroup = H;
rightKerningGroup = H;
unicode = 0126;
},
{
glyphname = I;
lastChange = "2019-07-11 15:01:41 +0000";
layers = (
{
anchors = (
{
name = bottom;
position = "{166, 0}";
},
{
name = ogonek;
position = "{307, 10}";
},
{
name = top;
position = "{166, 825}";
},
{
name = topleft;
position = "{10, 825}";
}
);
layerId = "C45C3DCC-6617-4D42-8E57-0A4EECAD9C2E";
paths = (
{
closed = 1;
nodes = (
"45 0 LINE",
"287 0 LINE",
"287 825 LINE",
"45 825 LINE"
);
}
);
width = 370;
},
{
anchors = (
{
name = bottom;
position = "{114, 0}";
},
{
name = ogonek;
position = "{187, 10}";
},
{
name = top;
position = "{114, 825}";
},
{
name = topleft;
position = "{42, 825}";
}
);
layerId = "9D4C2422-5CE9-4C2E-AAC7-BF869A02F5C8";
paths = (
{
closed = 1;
nodes = (
"95 0 LINE",
"135 0 LINE",
"135 825 LINE",
"95 825 LINE"
);
}
);
width = 253;
}
);
leftKerningGroup = H;
rightKerningGroup = H;
unicode = 0049;
},
{
glyphname = J;
lastChange = "2020-04-05 00:04:44 +0000";
layers = (
{
anchors = (
{
name = bottom;
position = "{260, 0}";
},
{
name = top;
position = "{340, 825}";
}
);
layerId = "C45C3DCC-6617-4D42-8E57-0A4EECAD9C2E";
paths = (
{
closed = 1;
nodes = (
"456 825 LINE",
"214 825 LINE",
"214 308 LINE SMOOTH",
"214 225 OFFCURVE",
"166 219 OFFCURVE",
"137 219 CURVE SMOOTH",
"108 219 OFFCURVE",
"74 242 OFFCURVE",
"58 262 CURVE",
"-28 51 LINE",
"-16 36 OFFCURVE",
"63 -15 OFFCURVE",
"175 -15 CURVE SMOOTH",
"340 -15 OFFCURVE",
"456 84 OFFCURVE",
"456 256 CURVE SMOOTH"
);
}
);
width = 531;
},
{
anchors = (
{
name = bottom;
position = "{230, 0}";
},
{
name = top;
position = "{364, 825}";
}
);
layerId = "9D4C2422-5CE9-4C2E-AAC7-BF869A02F5C8";
paths = (
{
closed = 1;
nodes = (
"384 825 LINE",
"345 825 LINE",
"345 241 LINE SMOOTH",
"345 127 OFFCURVE",
"310 24 OFFCURVE",
"181 24 CURVE SMOOTH",
"73 24 OFFCURVE",
"35 82 OFFCURVE",
"23 106 CURVE",
"-4 74 LINE",
"6 52 OFFCURVE",
"58 -15 OFFCURVE",
"181 -15 CURVE SMOOTH",
"326 -15 OFFCURVE",
"384 86 OFFCURVE",
"384 248 CURVE SMOOTH"
);
}
);
width = 464;
}
);
leftKerningGroup = J;
rightKerningGroup = J;
unicode = 004A;
},
{
glyphname = K;
lastChange = "2019-07-15 14:26:21 +0000";
layers = (
{
anchors = (
{
name = bottom;
position = "{386, 0}";
},
{
name = top;
position = "{386, 825}";
}
);
layerId = "C45C3DCC-6617-4D42-8E57-0A4EECAD9C2E";
paths = (
{
closed = 1;
nodes = (
"728 825 LINE",
"456 825 LINE",
"260 515 LINE",
"260 825 LINE",
"18 825 LINE",
"18 0 LINE",
"260 0 LINE",
"260 347 LINE",
"477 0 LINE",
"765 0 LINE",
"468 433 LINE"
);
}
);
width = 786;
},
{
anchors = (
{
name = bottom;
position = "{286, 0}";
},
{
name = top;
position = "{286, 825}";
}
);
layerId = "9D4C2422-5CE9-4C2E-AAC7-BF869A02F5C8";
paths = (
{
closed = 1;
nodes = (
"515 825 LINE",
"467 825 LINE",
"134 413 LINE",
"134 825 LINE",
"94 825 LINE",
"94 0 LINE",
"134 0 LINE",
"134 398 LINE",
"486 0 LINE",
"535 0 LINE",
"178 409 LINE"
);
}
);
width = 556;
}
);
leftKerningGroup = H;
rightKerningGroup = K;
unicode = 004B;
},
{
glyphname = L;
lastChange = "2020-04-04 20:22:48 +0000";
layers = (
{
anchors = (
{
name = bottom;
position = "{311, 0}";
},
{
name = center;
position = "{147, 599}";
},
{
name = top;
position = "{288, 825}";
},
{
name = topright;
position = "{566, 825}";
}
);
layerId = "C45C3DCC-6617-4D42-8E57-0A4EECAD9C2E";
paths = (
{
closed = 1;
nodes = (
"49 0 LINE",
"573 0 LINE",
"573 210 LINE",
"291 210 LINE",
"291 825 LINE",
"49 825 LINE"
);
}
);
width = 640;
},
{
anchors = (
{
name = bottom;
position = "{271, 0}";
},
{
name = center;
position = "{82, 516}";
},
{
name = top;
position = "{258, 825}";
},
{
name = topright;
position = "{477, 825}";
}
);
layerId = "9D4C2422-5CE9-4C2E-AAC7-BF869A02F5C8";
paths = (
{
closed = 1;
nodes = (
"79 0 LINE",
"464 0 LINE",
"464 40 LINE",
"118 40 LINE",
"118 825 LINE",
"79 825 LINE"
);
}
);
width = 540;
}
);
leftKerningGroup = H;
rightKerningGroup = L;
unicode = 004C;
},
{
glyphname = Lslash;
lastChange = "2019-07-11 15:01:41 +0000";
layers = (
{
layerId = "C45C3DCC-6617-4D42-8E57-0A4EECAD9C2E";
paths = (
{
closed = 1;
nodes = (
"585 0 LINE",
"585 210 LINE",
"324 210 LINE",
"324 463 LINE",
"440 555 LINE",
"440 740 LINE",
"324 647 LINE",
"324 825 LINE",
"82 825 LINE",
"82 457 LINE",
"12 403 LINE",
"12 219 LINE",
"82 272 LINE",
"82 0 LINE"
);
}
);
width = 656;
},
{
layerId = "9D4C2422-5CE9-4C2E-AAC7-BF869A02F5C8";
paths = (
{
closed = 1;
nodes = (
"515 0 LINE",
"515 40 LINE",
"169 40 LINE",
"169 441 LINE",
"241 498 LINE",
"241 563 LINE",
"169 506 LINE",
"169 825 LINE",
"131 825 LINE",
"131 477 LINE",
"37 403 LINE",
"37 338 LINE",
"131 412 LINE",
"131 0 LINE"
);
}
);
width = 590;
}
);
leftKerningGroup = H;
rightKerningGroup = L;
unicode = 0141;
},
{
glyphname = M;
lastChange = "2019-07-15 14:30:04 +0000";
layers = (
{
anchors = (
{
name = bottom;
position = "{530, 0}";
},
{
name = top;
position = "{530, 825}";
}
);
layerId = "C45C3DCC-6617-4D42-8E57-0A4EECAD9C2E";
paths = (
{
closed = 1;
nodes = (
"664 825 LINE",
"539 342 LINE",
"525 260 LINE",
"511 342 LINE",
"386 825 LINE",
"40 825 LINE",
"40 0 LINE",
"282 0 LINE",
"282 410 LINE",
"272 580 LINE",
"310 382 LINE",
"406 80 LINE",
"643 80 LINE",
"740 382 LINE",
"778 580 LINE",
"768 410 LINE",
"768 0 LINE",
"1010 0 LINE",
"1010 825 LINE"
);
}
);
width = 1100;
},
{
anchors = (
{
name = bottom;
position = "{404, 0}";
},
{
name = top;
position = "{404, 825}";
}
);
layerId = "9D4C2422-5CE9-4C2E-AAC7-BF869A02F5C8";
paths = (
{
closed = 1;
nodes = (
"680 825 LINE",
"404 95 LINE",
"399 73 LINE",
"394 95 LINE",
"119 825 LINE",
"79 825 LINE",
"79 0 LINE",
"118 0 LINE",
"118 688 LINE",
"115 740 LINE",
"129 688 LINE",
"379 30 LINE",
"419 30 LINE",
"669 688 LINE",
"683 740 LINE",
"680 688 LINE",
"680 0 LINE",
"719 0 LINE",
"719 825 LINE"
);
}
);
width = 833;
}
);
leftKerningGroup = M;
rightKerningGroup = M;
unicode = 004D;
},
{
glyphname = N;
lastChange = "2020-04-04 23:58:56 +0000";
layers = (
{
anchors = (
{
name = bottom;
position = "{450, 0}";
},
{
name = top;
position = "{450, 825}";
}
);
layerId = "C45C3DCC-6617-4D42-8E57-0A4EECAD9C2E";
paths = (
{
closed = 1;
nodes = (
"531 0 LINE",
"860 0 LINE",
"860 825 LINE",
"618 825 LINE",
"618 221 LINE",
"636 225 LINE",
"367 825 LINE",
"40 825 LINE",
"40 0 LINE",
"282 0 LINE",
"282 602 LINE",
"264 605 LINE"
);
}
);
width = 943;
},
{
anchors = (
{
name = bottom;
position = "{413, 0}";
},
{
name = top;
position = "{413, 825}";
}
);
layerId = "9D4C2422-5CE9-4C2E-AAC7-BF869A02F5C8";
paths = (
{
closed = 1;
nodes = (
"629 0 LINE",
"692 0 LINE",
"692 825 LINE",
"653 825 LINE",
"653 42 LINE",
"654 42 LINE",
"147 825 LINE",
"84 825 LINE",
"84 0 LINE",
"123 0 LINE",
"123 783 LINE",
"122 783 LINE"
);
}
);
width = 800;
}
);
leftKerningGroup = H;
leftMetricsKey = H;
rightKerningGroup = H;
rightMetricsKey = H;
unicode = 004E;
},
{
glyphname = Eng;
lastChange = "2020-04-05 00:03:31 +0000";
layers = (
{
components = (
{
name = N;
}
);
layerId = "C45C3DCC-6617-4D42-8E57-0A4EECAD9C2E";
paths = (
{
closed = 1;
nodes = (
"860 -15 LINE SMOOTH",
"860 -139 OFFCURVE",
"799 -275 OFFCURVE",
"637 -275 CURVE SMOOTH",
"538 -275 OFFCURVE",
"487 -253 OFFCURVE",
"453 -238 CURVE",
"529 -50 LINE",
"540 -55 OFFCURVE",
"559 -61 OFFCURVE",
"570 -61 CURVE SMOOTH",
"589 -61 OFFCURVE",
"608 -49 OFFCURVE",
"608 -25 CURVE SMOOTH",
"608 0 LINE",
"860 0 LINE"
);
}
);
width = 943;
},
{
components = (
{
name = N;
}
);
layerId = "9D4C2422-5CE9-4C2E-AAC7-BF869A02F5C8";
paths = (
{
closed = 1;
nodes = (
"692 -29 LINE SMOOTH",
"692 -176 OFFCURVE",
"643 -265 OFFCURVE",
"548 -265 CURVE SMOOTH",
"505 -265 OFFCURVE",
"457 -243 OFFCURVE",
"451 -239 CURVE",
"476 -205 LINE",
"488 -214 OFFCURVE",
"516 -225 OFFCURVE",
"550 -225 CURVE SMOOTH",
"624 -225 OFFCURVE",
"654 -152 OFFCURVE",
"654 -25 CURVE SMOOTH",
"654 0 LINE",
"692 0 LINE"
);
}
);
width = 800;
}
);
leftKerningGroup = Eng;
rightKerningGroup = Eng;
unicode = 014A;
},
{
glyphname = O;
lastChange = "2020-04-05 00:04:00 +0000";
layers = (
{
anchors = (
{
name = bottom;
position = "{457, -186}";
},
{
name = center;
position = "{457, 599}";
},
{
name = ogonek;
position = "{638, 10}";
},
{
name = top;
position = "{457, 825}";
},
{
name = topleft;
position = "{25, 825}";
},
{
name = topright;
position = "{711, 748}";
}
);
layerId = "C45C3DCC-6617-4D42-8E57-0A4EECAD9C2E";
paths = (
{
closed = 1;
nodes = (
"276 524 OFFCURVE",
"348 615 OFFCURVE",
"457 615 CURVE SMOOTH",
"566 615 OFFCURVE",
"638 524 OFFCURVE",
"638 413 CURVE SMOOTH",
"638 302 OFFCURVE",
"566 211 OFFCURVE",
"457 211 CURVE SMOOTH",
"348 211 OFFCURVE",
"276 302 OFFCURVE",
"276 413 CURVE SMOOTH"
);
},
{
closed = 1;
nodes = (
"24 172 OFFCURVE",
"194 -15 OFFCURVE",
"457 -15 CURVE SMOOTH",
"714 -15 OFFCURVE",
"890 172 OFFCURVE",
"890 413 CURVE SMOOTH",
"890 654 OFFCURVE",
"706 840 OFFCURVE",
"457 840 CURVE SMOOTH",
"211 840 OFFCURVE",
"24 654 OFFCURVE",
"24 413 CURVE SMOOTH"
);
}
);
width = 945;
},
{
anchors = (
{
name = bottom;
position = "{429, -103}";
},
{
name = center;
position = "{429, 516}";
},
{
name = ogonek;
position = "{638, 10}";
},
{
name = top;
position = "{429, 825}";
},
{
name = topleft;
position = "{47, 825}";
},
{
name = topright;
position = "{672, 751}";
}
);
layerId = "9D4C2422-5CE9-4C2E-AAC7-BF869A02F5C8";
paths = (
{
closed = 1;
nodes = (
"70 633 OFFCURVE",
"221 800 OFFCURVE",
"429 800 CURVE SMOOTH",
"637 800 OFFCURVE",
"786 633 OFFCURVE",
"786 413 CURVE SMOOTH",
"786 193 OFFCURVE",
"637 25 OFFCURVE",
"429 25 CURVE SMOOTH",
"221 25 OFFCURVE",
"70 193 OFFCURVE",
"70 413 CURVE SMOOTH"
);
},
{
closed = 1;
nodes = (
"30 172 OFFCURVE",
"202 -15 OFFCURVE",
"429 -15 CURVE SMOOTH",
"656 -15 OFFCURVE",
"826 172 OFFCURVE",
"826 413 CURVE SMOOTH",
"826 654 OFFCURVE",
"656 840 OFFCURVE",
"429 840 CURVE SMOOTH",
"202 840 OFFCURVE",
"30 654 OFFCURVE",
"30 413 CURVE SMOOTH"
);
}
);
width = 882;
}
);
leftKerningGroup = O;
rightKerningGroup = O;
unicode = 004F;
},
{
glyphname = Oslash;
lastChange = "2019-07-11 15:01:41 +0000";
layers = (
{
components = (
{
name = O;
}
);
layerId = "C45C3DCC-6617-4D42-8E57-0A4EECAD9C2E";
paths = (
{
closed = 1;
nodes = (
"-6 18 LINE",
"74 -53 LINE",
"893 802 LINE",
"813 873 LINE"
);
}
);
width = 932;
},
{
components = (
{
name = O;
}
);
layerId = "9D4C2422-5CE9-4C2E-AAC7-BF869A02F5C8";
paths = (
{
closed = 1;
nodes = (
"15 13 LINE",
"43 -13 LINE",
"836 791 LINE",
"808 817 LINE"
);
}
);
width = 862;
}
);
leftKerningGroup = O;
rightKerningGroup = O;
unicode = 00D8;
},
{
glyphname = OE;
lastChange = "2019-07-11 15:01:41 +0000";
layers = (
{
anchors = (
{
name = bottom;
position = "{510, 0}";
},
{
name = top;
position = "{510, 825}";
}
);
layerId = "C45C3DCC-6617-4D42-8E57-0A4EECAD9C2E";
paths = (
{
closed = 1;
nodes = (
"988 0 LINE",
"988 210 LINE",
"735 210 LINE",
"735 309 LINE",
"976 309 LINE",
"976 518 LINE",
"735 518 LINE",
"735 615 LINE",
"988 615 LINE",
"988 825 LINE",
"438 825 LINE SMOOTH",
"211 825 OFFCURVE",
"8 653 OFFCURVE",
"8 412 CURVE SMOOTH",
"8 171 OFFCURVE",
"218 0 OFFCURVE",
"438 0 CURVE SMOOTH"
);
},
{
closed = 1;
nodes = (
"358 216 OFFCURVE",
"270 300 OFFCURVE",
"270 413 CURVE SMOOTH",
"270 524 OFFCURVE",
"354 609 OFFCURVE",
"469 609 CURVE SMOOTH",
"493 609 LINE",
"493 216 LINE",
"469 216 LINE SMOOTH"
);
}
);
width = 1065;
},
{
anchors = (
{
name = bottom;
position = "{470, 0}";
},
{
name = top;
position = "{470, 825}";
}
);
layerId = "9D4C2422-5CE9-4C2E-AAC7-BF869A02F5C8";
paths = (
{
closed = 1;
nodes = (
"869 0 LINE",
"869 40 LINE",
"498 40 LINE",
"498 394 LINE",
"857 394 LINE",
"857 434 LINE",
"498 434 LINE",
"498 785 LINE",
"869 785 LINE",
"869 825 LINE",
"423 825 LINE SMOOTH",
"196 825 OFFCURVE",
"44 654 OFFCURVE",
"44 413 CURVE SMOOTH",
"44 172 OFFCURVE",
"175 0 OFFCURVE",
"423 0 CURVE SMOOTH"
);
},
{
closed = 1;
nodes = (
"197 36 OFFCURVE",
"85 206 OFFCURVE",
"85 413 CURVE SMOOTH",
"85 620 OFFCURVE",
"208 791 OFFCURVE",
"417 791 CURVE SMOOTH",
"460 791 LINE",
"460 36 LINE",
"417 36 LINE SMOOTH"
);
}
);
width = 964;
}
);
leftKerningGroup = O;
rightKerningGroup = E;
unicode = 0152;
},
{
glyphname = P;
lastChange = "2019-07-11 15:01:41 +0000";
layers = (
{
anchors = (
{
name = bottom;
position = "{338, 0}";
},
{
name = top;
position = "{338, 825}";
}
);
layerId = "C45C3DCC-6617-4D42-8E57-0A4EECAD9C2E";
paths = (
{
closed = 1;
nodes = (
"38 0 LINE",
"280 0 LINE",
"280 293 LINE",
"384 293 LINE SMOOTH",
"545 293 OFFCURVE",
"671 396 OFFCURVE",
"671 565 CURVE SMOOTH",
"671 734 OFFCURVE",
"545 825 OFFCURVE",
"384 825 CURVE SMOOTH",
"38 825 LINE"
);
},
{
closed = 1;
nodes = (
"280 637 LINE",
"316 637 LINE SMOOTH",
"371 637 OFFCURVE",
"412 614 OFFCURVE",
"412 559 CURVE SMOOTH",
"412 504 OFFCURVE",
"371 481 OFFCURVE",
"316 481 CURVE SMOOTH",
"280 481 LINE"
);
}
);
width = 721;
},
{
anchors = (
{
name = bottom;
position = "{293, 0}";
},
{
name = top;
position = "{293, 825}";
}
);
layerId = "9D4C2422-5CE9-4C2E-AAC7-BF869A02F5C8";
paths = (
{
closed = 1;
nodes = (
"94 0 LINE",
"133 0 LINE",
"133 344 LINE",
"271 344 LINE SMOOTH",
"422 344 OFFCURVE",
"541 416 OFFCURVE",
"541 589 CURVE SMOOTH",
"541 762 OFFCURVE",
"422 825 OFFCURVE",
"271 825 CURVE SMOOTH",
"94 825 LINE"
);
},
{
closed = 1;
nodes = (
"133 785 LINE",
"261 785 LINE SMOOTH",
"392 785 OFFCURVE",
"501 742 OFFCURVE",
"501 589 CURVE SMOOTH",
"501 436 OFFCURVE",
"392 384 OFFCURVE",
"261 384 CURVE SMOOTH",
"133 384 LINE"
);
}
);
width = 611;
}
);
leftKerningGroup = H;
rightKerningGroup = P;
unicode = 0050;
},
{
glyphname = Thorn;
lastChange = "2019-07-14 14:17:37 +0000";
layers = (
{
layerId = "C45C3DCC-6617-4D42-8E57-0A4EECAD9C2E";
paths = (
{
closed = 1;
nodes = (
"40 0 LINE",
"282 0 LINE",
"282 153 LINE",
"381 153 LINE SMOOTH",
"542 153 OFFCURVE",
"673 248 OFFCURVE",
"673 418 CURVE SMOOTH",
"673 589 OFFCURVE",
"542 672 OFFCURVE",
"381 672 CURVE SMOOTH",
"282 672 LINE",
"282 825 LINE",
"40 825 LINE"
);
},
{
closed = 1;
nodes = (
"282 484 LINE",
"330 484 LINE SMOOTH",
"375 484 OFFCURVE",
"407 462 OFFCURVE",
"407 414 CURVE SMOOTH",
"407 366 OFFCURVE",
"375 341 OFFCURVE",
"330 341 CURVE SMOOTH",
"282 341 LINE"
);
}
);
width = 721;
},
{
layerId = "9D4C2422-5CE9-4C2E-AAC7-BF869A02F5C8";
paths = (
{
closed = 1;
nodes = (
"84 0 LINE",
"122 0 LINE",
"122 153 LINE",
"303 153 LINE SMOOTH",
"443 153 OFFCURVE",
"540 248 OFFCURVE",
"540 418 CURVE SMOOTH",
"540 589 OFFCURVE",
"443 672 OFFCURVE",
"303 672 CURVE SMOOTH",
"122 672 LINE",
"122 825 LINE",
"84 825 LINE"
);
},
{
closed = 1;
nodes = (
"122 633 LINE",
"300 633 LINE SMOOTH",
"424 633 OFFCURVE",
"502 566 OFFCURVE",
"502 420 CURVE SMOOTH",
"502 274 OFFCURVE",
"424 192 OFFCURVE",
"300 192 CURVE SMOOTH",
"122 192 LINE"
);
}
);
width = 601;
}
);
leftKerningGroup = H;
rightKerningGroup = Thorn;
unicode = 00DE;
},
{
glyphname = Q;
lastChange = "2019-07-14 14:21:57 +0000";
layers = (
{
components = (
{
name = O;
}
);
layerId = "C45C3DCC-6617-4D42-8E57-0A4EECAD9C2E";
paths = (
{
closed = 1;
nodes = (
"596 -14 OFFCURVE",
"547 21 OFFCURVE",
"438 21 CURVE SMOOTH",
"316 21 OFFCURVE",
"214 -27 OFFCURVE",
"164 -92 CURVE",
"257 -203 LINE",
"259 -199 OFFCURVE",
"307 -159 OFFCURVE",
"385 -159 CURVE SMOOTH",
"521 -159 OFFCURVE",
"547 -234 OFFCURVE",
"675 -234 CURVE SMOOTH",
"779 -234 OFFCURVE",
"855 -181 OFFCURVE",
"883 -129 CURVE",
"807 26 LINE",
"802 18 OFFCURVE",
"741 -14 OFFCURVE",
"672 -14 CURVE SMOOTH"
);
}
);
width = 932;
},
{
components = (
{
name = O;
}
);
layerId = "9D4C2422-5CE9-4C2E-AAC7-BF869A02F5C8";
paths = (
{
closed = 1;
nodes = (
"574 -56 OFFCURVE",
"514 0 OFFCURVE",
"422 0 CURVE SMOOTH",
"349 0 OFFCURVE",
"303 -27 OFFCURVE",
"248 -68 CURVE",
"280 -103 LINE",
"284 -99 OFFCURVE",
"344 -40 OFFCURVE",
"420 -40 CURVE SMOOTH",
"512 -40 OFFCURVE",
"552 -98 OFFCURVE",
"662 -98 CURVE SMOOTH",
"748 -98 OFFCURVE",
"793 -69 OFFCURVE",
"810 -58 CURVE",
"781 -21 LINE",
"778 -25 OFFCURVE",
"737 -56 OFFCURVE",
"665 -56 CURVE SMOOTH"
);
}
);
width = 862;
}
);
leftKerningGroup = O;
rightKerningGroup = O;
unicode = 0051;
},
{
glyphname = Q.ss01;
lastChange = "2019-07-14 18:49:20 +0000";
layers = (
{
anchors = (
{
name = bottom;
position = "{444, 0}";
},
{
name = top;
position = "{444, 825}";
}
);
components = (
{
name = O;
}
);
layerId = "C45C3DCC-6617-4D42-8E57-0A4EECAD9C2E";
paths = (
{
closed = 1;
nodes = (
"640 -104 LINE",
"899 -104 LINE",
"670 288 LINE",
"411 288 LINE"
);
}
);
width = 930;
},
{
anchors = (
{
name = bottom;
position = "{418, 0}";
},
{
name = top;
position = "{418, 825}";
}
);
components = (
{
name = O;
}
);
layerId = "9D4C2422-5CE9-4C2E-AAC7-BF869A02F5C8";
paths = (
{
closed = 1;
nodes = (
"699 -104 LINE",
"746 -104 LINE",
"517 288 LINE",
"470 288 LINE"
);
}
);
width = 860;
}
);
leftKerningGroup = O;
rightKerningGroup = O;
},
{
glyphname = Q.ss02;
lastChange = "2019-07-15 16:39:15 +0000";
layers = (
{
anchors = (
{
name = bottom;
position = "{442, 0}";
},
{
name = top;
position = "{442, 825}";
}
);
layerId = "C45C3DCC-6617-4D42-8E57-0A4EECAD9C2E";
paths = (
{
closed = 1;
nodes = (
"513 -15 OFFCURVE",
"587 1 OFFCURVE",
"650 35 CURVE",
"680 11 OFFCURVE",
"731 -21 OFFCURVE",
"803 -51 CURVE",
"909 165 LINE",
"830 188 OFFCURVE",
"823 193 OFFCURVE",
"807 198 CURVE",
"841 260 OFFCURVE",
"862 333 OFFCURVE",
"862 413 CURVE SMOOTH",
"862 654 OFFCURVE",
"669 840 OFFCURVE",
"440 840 CURVE SMOOTH",
"214 840 OFFCURVE",
"18 654 OFFCURVE",
"18 413 CURVE SMOOTH",
"18 172 OFFCURVE",
"197 -15 OFFCURVE",
"440 -15 CURVE SMOOTH"
);
},
{
closed = 1;
nodes = (
"309 233 OFFCURVE",
"280 322 OFFCURVE",
"280 413 CURVE SMOOTH",
"280 504 OFFCURVE",
"318 593 OFFCURVE",
"440 593 CURVE SMOOTH",
"564 593 OFFCURVE",
"600 504 OFFCURVE",
"600 413 CURVE SMOOTH",
"600 380 OFFCURVE",
"597 347 OFFCURVE",
"586 317 CURVE",
"490 384 OFFCURVE",
"435 455 OFFCURVE",
"456 434 CURVE",
"356 309 LINE",
"362 297 OFFCURVE",
"391 253 OFFCURVE",
"433 205 CURVE",
"429 222 OFFCURVE",
"433 233 OFFCURVE",
"440 233 CURVE SMOOTH"
);
}
);
width = 931;
},
{
anchors = (
{
name = bottom;
position = "{427, 0}";
},
{
name = top;
position = "{427, 825}";
}
);
layerId = "9D4C2422-5CE9-4C2E-AAC7-BF869A02F5C8";
paths = (
{
closed = 1;
nodes = (
"534 -15 OFFCURVE",
"629 30 OFFCURVE",
"696 104 CURVE",
"754 72 OFFCURVE",
"806 52 OFFCURVE",
"842 44 CURVE",
"861 77 LINE",
"837 81 OFFCURVE",
"781 105 OFFCURVE",
"718 137 CURVE",
"766 207 OFFCURVE",
"797 303 OFFCURVE",
"797 413 CURVE SMOOTH",
"797 654 OFFCURVE",
"646 840 OFFCURVE",
"418 840 CURVE SMOOTH",
"191 840 OFFCURVE",
"38 654 OFFCURVE",
"38 413 CURVE SMOOTH",
"38 172 OFFCURVE",
"174 -15 OFFCURVE",
"418 -15 CURVE SMOOTH"
);
},
{
closed = 1;
nodes = (
"201 25 OFFCURVE",
"79 203 OFFCURVE",
"79 413 CURVE SMOOTH",
"79 623 OFFCURVE",
"210 800 OFFCURVE",
"418 800 CURVE SMOOTH",
"626 800 OFFCURVE",
"756 623 OFFCURVE",
"756 413 CURVE SMOOTH",
"756 315 OFFCURVE",
"729 225 OFFCURVE",
"682 158 CURVE",
"631 187 OFFCURVE",
"572 225 OFFCURVE",
"515 284 CURVE",
"490 253 LINE",
"540 200 OFFCURVE",
"597 159 OFFCURVE",
"658 122 CURVE",
"597 57 OFFCURVE",
"508 25 OFFCURVE",
"418 25 CURVE SMOOTH"
);
}
);
width = 878;
}
);
leftKerningGroup = Q.ss02;
rightKerningGroup = Q.ss02;
},
{
glyphname = R;
lastChange = "2019-07-15 14:33:40 +0000";
layers = (
{
anchors = (
{
name = bottom;
position = "{363, 0}";
},
{
name = top;
position = "{363, 825}";
}
);
layerId = "C45C3DCC-6617-4D42-8E57-0A4EECAD9C2E";
paths = (
{
closed = 1;
nodes = (
"34 0 LINE",
"276 0 LINE",
"276 313 LINE",
"260 313 LINE",
"430 0 LINE",
"701 0 LINE",
"504 332 LINE",
"565 345 OFFCURVE",
"659 406 OFFCURVE",
"659 565 CURVE SMOOTH",
"659 725 OFFCURVE",
"554 825 OFFCURVE",
"404 825 CURVE SMOOTH",
"34 825 LINE"
);
},
{
closed = 1;
nodes = (
"276 637 LINE",
"318 637 LINE SMOOTH",
"362 637 OFFCURVE",
"410 622 OFFCURVE",
"410 557 CURVE SMOOTH",
"410 492 OFFCURVE",
"360 477 OFFCURVE",
"316 477 CURVE SMOOTH",
"276 477 LINE"
);
}
);
width = 771;
},
{
anchors = (
{
name = bottom;
position = "{300, 0}";
},
{
name = top;
position = "{300, 825}";
}
);
layerId = "9D4C2422-5CE9-4C2E-AAC7-BF869A02F5C8";
paths = (
{
closed = 1;
nodes = (
"86 0 LINE",
"125 0 LINE",
"125 366 LINE",
"333 366 LINE",
"535 0 LINE",
"581 0 LINE",
"373 369 LINE",
"451 369 OFFCURVE",
"569 446 OFFCURVE",
"569 596 CURVE SMOOTH",
"569 746 OFFCURVE",
"459 825 OFFCURVE",
"334 825 CURVE SMOOTH",
"86 825 LINE"
);
},
{
closed = 1;
nodes = (
"125 785 LINE",
"321 785 LINE SMOOTH",
"446 785 OFFCURVE",
"529 726 OFFCURVE",
"529 596 CURVE SMOOTH",
"529 466 OFFCURVE",
"446 404 OFFCURVE",
"321 404 CURVE SMOOTH",
"125 404 LINE"
);
}
);
width = 654;
}
);
leftKerningGroup = H;
rightKerningGroup = R;
unicode = 0052;
},
{
glyphname = S;
lastChange = "2019-07-15 14:22:40 +0000";
layers = (
{
anchors = (
{
name = bottom;
position = "{341, 0}";
},
{
name = top;
position = "{341, 825}";
}
);
layerId = "C45C3DCC-6617-4D42-8E57-0A4EECAD9C2E";
paths = (
{
closed = 1;
nodes = (
"219 840 OFFCURVE",
"74 749 OFFCURVE",
"74 597 CURVE SMOOTH",
"74 446 OFFCURVE",
"176 378 OFFCURVE",
"281 340 CURVE SMOOTH",
"390 301 OFFCURVE",
"418 280 OFFCURVE",
"418 250 CURVE SMOOTH",
"418 222 OFFCURVE",
"394 206 OFFCURVE",
"341 206 CURVE SMOOTH",
"263 206 OFFCURVE",
"144 269 OFFCURVE",
"126 284 CURVE",
"8 82 LINE",
"28 62 OFFCURVE",
"157 -15 OFFCURVE",
"341 -15 CURVE SMOOTH",
"501 -15 OFFCURVE",
"670 55 OFFCURVE",
"670 239 CURVE SMOOTH",
"670 377 OFFCURVE",
"579 457 OFFCURVE",
"451 499 CURVE SMOOTH",
"352 532 OFFCURVE",
"321 552 OFFCURVE",
"321 582 CURVE SMOOTH",
"321 611 OFFCURVE",
"354 622 OFFCURVE",
"398 622 CURVE SMOOTH",
"454 622 OFFCURVE",
"527 581 OFFCURVE",
"547 566 CURVE",
"661 760 LINE",
"643 774 OFFCURVE",
"531 840 OFFCURVE",
"371 840 CURVE SMOOTH"
);
}
);
width = 727;
},
{
anchors = (
{
name = bottom;
position = "{301, 0}";
},
{
name = top;
position = "{301, 825}";
}
);
layerId = "9D4C2422-5CE9-4C2E-AAC7-BF869A02F5C8";
paths = (
{
closed = 1;
nodes = (
"170 840 OFFCURVE",
"72 762 OFFCURVE",
"72 658 CURVE SMOOTH",
"72 550 OFFCURVE",
"162 494 OFFCURVE",
"279 437 CURVE SMOOTH",
"388 384 OFFCURVE",
"512 323 OFFCURVE",
"512 204 CURVE SMOOTH",
"512 101 OFFCURVE",
"436 25 OFFCURVE",
"295 25 CURVE SMOOTH",
"168 25 OFFCURVE",
"92 82 OFFCURVE",
"70 99 CURVE",
"42 62 LINE",
"48 56 OFFCURVE",
"156 -15 OFFCURVE",
"292 -15 CURVE SMOOTH",
"452 -15 OFFCURVE",
"555 79 OFFCURVE",
"555 201 CURVE SMOOTH",
"555 348 OFFCURVE",
"419 415 OFFCURVE",
"311 466 CURVE SMOOTH",
"203 517 OFFCURVE",
"115 567 OFFCURVE",
"115 657 CURVE SMOOTH",
"115 746 OFFCURVE",
"187 800 OFFCURVE",
"305 800 CURVE SMOOTH",
"415 800 OFFCURVE",
"473 750 OFFCURVE",
"492 733 CURVE",
"517 768 LINE",
"509 778 OFFCURVE",
"436 840 OFFCURVE",
"303 840 CURVE SMOOTH"
);
}
);
width = 627;
}
);
leftKerningGroup = S;
rightKerningGroup = S;
unicode = 0053;
},
{
glyphname = Germandbls;
lastChange = "2019-07-11 15:01:41 +0000";
layers = (
{
anchors = (
{
name = bottom;
position = "{390, 0}";
},
{
name = top;
position = "{390, 825}";
}
);
layerId = "C45C3DCC-6617-4D42-8E57-0A4EECAD9C2E";
paths = (
{
closed = 1;
nodes = (
"332 -6 LINE",
"380 -15 OFFCURVE",
"420 -19 OFFCURVE",
"465 -19 CURVE SMOOTH",
"626 -19 OFFCURVE",
"772 58 OFFCURVE",
"772 231 CURVE SMOOTH",
"772 433 OFFCURVE",
"650 468 OFFCURVE",
"546 475 CURVE",
"685 612 LINE",
"685 802 LINE",
"608 827 OFFCURVE",
"492 844 OFFCURVE",
"416 844 CURVE SMOOTH",
"193 844 OFFCURVE",
"49 764 OFFCURVE",
"49 586 CURVE SMOOTH",
"49 0 LINE",
"286 0 LINE",
"286 483 LINE SMOOTH",
"286 568 OFFCURVE",
"297 647 OFFCURVE",
"390 647 CURVE SMOOTH",
"399 647 OFFCURVE",
"430 646 OFFCURVE",
"448 644 CURVE",
"332 527 LINE",
"332 322 LINE",
"454 333 OFFCURVE",
"528 298 OFFCURVE",
"528 248 CURVE SMOOTH",
"528 203 OFFCURVE",
"480 178 OFFCURVE",
"435 178 CURVE SMOOTH",
"398 178 OFFCURVE",
"368 182 OFFCURVE",
"332 193 CURVE"
);
}
);
width = 824;
},
{
anchors = (
{
name = bottom;
position = "{363, 0}";
},
{
name = top;
position = "{363, 825}";
}
);
layerId = "9D4C2422-5CE9-4C2E-AAC7-BF869A02F5C8";
paths = (
{
closed = 1;
nodes = (
"255 16 LINE",
"298 -1 OFFCURVE",
"359 -11 OFFCURVE",
"420 -11 CURVE SMOOTH",
"561 -11 OFFCURVE",
"671 77 OFFCURVE",
"671 245 CURVE SMOOTH",
"671 430 OFFCURVE",
"525 477 OFFCURVE",
"384 460 CURVE",
"593 779 LINE",
"596 818 LINE",
"510 835 OFFCURVE",
"438 845 OFFCURVE",
"375 845 CURVE SMOOTH",
"189 845 OFFCURVE",
"79 762 OFFCURVE",
"79 551 CURVE SMOOTH",
"79 0 LINE",
"119 0 LINE",
"119 532 LINE SMOOTH",
"119 731 OFFCURVE",
"196 807 OFFCURVE",
"382 807 CURVE SMOOTH",
"432 807 OFFCURVE",
"498 800 OFFCURVE",
"554 786 CURVE",
"340 465 LINE",
"340 419 LINE",
"547 452 OFFCURVE",
"630 379 OFFCURVE",
"630 238 CURVE SMOOTH",
"630 118 OFFCURVE",
"565 29 OFFCURVE",
"417 29 CURVE SMOOTH",
"363 29 OFFCURVE",
"300 41 OFFCURVE",
"255 58 CURVE"
);
}
);
width = 747;
}
);
leftKerningGroup = Germandbls;
leftMetricsKey = B;
rightKerningGroup = Germandbls;
rightMetricsKey = B;
unicode = 1E9E;
},
{
glyphname = Schwa;
lastChange = "2020-04-04 15:21:01 +0000";
layers = (
{
layerId = "9D4C2422-5CE9-4C2E-AAC7-BF869A02F5C8";
paths = (
{
closed = 1;
nodes = (
"626 -8 OFFCURVE",
"767 184 OFFCURVE",
"767 429 CURVE SMOOTH",
"767 691 OFFCURVE",
"617 840 OFFCURVE",
"395 840 CURVE SMOOTH",
"219 840 OFFCURVE",
"90 728 OFFCURVE",
"59 656 CURVE",
"96 631 LINE",
"113 671 OFFCURVE",
"210 801 OFFCURVE",
"393 801 CURVE SMOOTH",
"595 801 OFFCURVE",
"724 663 OFFCURVE",
"724 432 CURVE",
"31 432 LINE",
"31 426 OFFCURVE",
"30 418 OFFCURVE",
"30 411 CURVE SMOOTH",
"30 183 OFFCURVE",
"171 -8 OFFCURVE",
"390 -8 CURVE SMOOTH"
);
},
{
closed = 1;
nodes = (
"190 32 OFFCURVE",
"74 216 OFFCURVE",
"74 392 CURVE",
"721 392 LINE",
"721 212 OFFCURVE",
"605 32 OFFCURVE",
"390 32 CURVE SMOOTH"
);
}
);
width = 823;
},
{
layerId = "C45C3DCC-6617-4D42-8E57-0A4EECAD9C2E";
paths = (
{
closed = 1;
nodes = (
"664 -16 OFFCURVE",
"826 141 OFFCURVE",
"826 413 CURVE SMOOTH",
"826 695 OFFCURVE",
"639 840 OFFCURVE",
"415 840 CURVE SMOOTH",
"230 840 OFFCURVE",
"102 746 OFFCURVE",
"62 705 CURVE",
"242 546 LINE",
"270 579 OFFCURVE",
"321 624 OFFCURVE",
"416 624 CURVE SMOOTH",
"517 624 OFFCURVE",
"583 561 OFFCURVE",
"583 487 CURVE",
"26 487 LINE",
"24 481 OFFCURVE",
"24 425 OFFCURVE",
"24 418 CURVE SMOOTH",
"24 162 OFFCURVE",
"174 -16 OFFCURVE",
"419 -16 CURVE SMOOTH"
);
},
{
closed = 1;
nodes = (
"309 182 OFFCURVE",
"266 262 OFFCURVE",
"266 326 CURVE",
"578 326 LINE",
"578 258 OFFCURVE",
"530 182 OFFCURVE",
"421 182 CURVE SMOOTH"
);
}
);
width = 881;
}
);
leftKerningGroup = O;
leftMetricsKey = O;
rightKerningGroup = O;
rightMetricsKey = O;
unicode = 018F;
},
{
glyphname = T;
lastChange = "2019-07-15 14:18:37 +0000";
layers = (
{
anchors = (
{
name = bottom;
position = "{303, 0}";
},
{
name = center;
position = "{303, 413}";
},
{
name = top;
position = "{303, 825}";
}
);
layerId = "C45C3DCC-6617-4D42-8E57-0A4EECAD9C2E";
paths = (
{
closed = 1;
nodes = (
"182 0 LINE",
"424 0 LINE",
"424 615 LINE",
"602 615 LINE",
"602 825 LINE",
"4 825 LINE",
"4 615 LINE",
"182 615 LINE"
);
}
);
width = 651;
},
{
anchors = (
{
name = bottom;
position = "{288, 0}";
},
{
name = center;
position = "{288, 413}";
},
{
name = top;
position = "{288, 825}";
}
);
layerId = "9D4C2422-5CE9-4C2E-AAC7-BF869A02F5C8";
paths = (
{
closed = 1;
nodes = (
"268 0 LINE",
"308 0 LINE",
"308 785 LINE",
"553 785 LINE",
"553 825 LINE",
"23 825 LINE",
"23 785 LINE",
"268 785 LINE"
);
}
);
width = 601;
}
);
leftKerningGroup = T;
rightKerningGroup = T;
unicode = 0054;
},
{
glyphname = Tbar;
lastChange = "2020-04-04 23:46:54 +0000";
layers = (
{
components = (
{
name = T;
}
);
layerId = "C45C3DCC-6617-4D42-8E57-0A4EECAD9C2E";
paths = (
{
closed = 1;
nodes = (
"4 327 LINE",
"600 327 LINE",
"600 499 LINE",
"4 499 LINE"
);
}
);
width = 651;
},
{
components = (
{
name = T;
}
);
layerId = "9D4C2422-5CE9-4C2E-AAC7-BF869A02F5C8";
paths = (
{
closed = 1;
nodes = (
"33 438 LINE",
"539 438 LINE",
"539 478 LINE",
"33 478 LINE"
);
}
);
width = 601;
}
);
leftKerningGroup = T;
rightKerningGroup = T;
unicode = 0166;
},
{
glyphname = U;
lastChange = "2020-04-04 15:05:06 +0000";
layers = (
{
anchors = (
{
name = bottom;
position = "{388, 0}";
},
{
name = ogonek;
position = "{700, 10}";
},
{
name = top;
position = "{388, 825}";
},
{
name = topright;
position = "{732, 825}";
}
);
layerId = "C45C3DCC-6617-4D42-8E57-0A4EECAD9C2E";
paths = (
{
closed = 1;
nodes = (
"490 335 LINE SMOOTH",
"490 243 OFFCURVE",
"457 204 OFFCURVE",
"388 204 CURVE SMOOTH",
"318 204 OFFCURVE",
"285 243 OFFCURVE",
"285 335 CURVE SMOOTH",
"285 825 LINE",
"43 825 LINE",
"43 322 LINE SMOOTH",
"43 118 OFFCURVE",
"164 -15 OFFCURVE",
"388 -15 CURVE SMOOTH",
"612 -15 OFFCURVE",
"732 118 OFFCURVE",
"732 322 CURVE SMOOTH",
"732 825 LINE",
"490 825 LINE"
);
}
);
width = 809;
},
{
anchors = (
{
name = bottom;
position = "{371, 0}";
},
{
name = ogonek;
position = "{629, 10}";
},
{
name = top;
position = "{371, 825}";
},
{
name = topright;
position = "{671, 825}";
}
);
layerId = "9D4C2422-5CE9-4C2E-AAC7-BF869A02F5C8";
paths = (
{
closed = 1;
nodes = (
"632 310 LINE SMOOTH",
"632 139 OFFCURVE",
"515 25 OFFCURVE",
"371 25 CURVE SMOOTH",
"227 25 OFFCURVE",
"109 139 OFFCURVE",
"109 310 CURVE SMOOTH",
"109 825 LINE",
"70 825 LINE",
"70 308 LINE SMOOTH",
"70 104 OFFCURVE",
"208 -15 OFFCURVE",
"371 -15 CURVE SMOOTH",
"534 -15 OFFCURVE",
"671 104 OFFCURVE",
"671 308 CURVE SMOOTH",
"671 825 LINE",
"632 825 LINE"
);
}
);
width = 761;
}
);
leftKerningGroup = U;
rightKerningGroup = U;
unicode = 0055;
},
{
glyphname = V;
lastChange = "2019-07-15 14:42:32 +0000";
layers = (
{
anchors = (
{
name = bottom;
position = "{423, 0}";
},
{
name = top;
position = "{423, 825}";
}
);
layerId = "C45C3DCC-6617-4D42-8E57-0A4EECAD9C2E";
paths = (
{
closed = 1;
nodes = (
"846 825 LINE",
"573 825 LINE",
"423 313 LINE",
"273 825 LINE",
"0 825 LINE",
"288 0 LINE",
"558 0 LINE"
);
}
);
width = 886;
},
{
anchors = (
{
name = bottom;
position = "{352, 0}";
},
{
name = top;
position = "{352, 825}";
}
);
layerId = "9D4C2422-5CE9-4C2E-AAC7-BF869A02F5C8";
paths = (
{
closed = 1;
nodes = (
"689 825 LINE",
"645 825 LINE",
"352 38 LINE",
"60 825 LINE",
"16 825 LINE",
"325 0 LINE",
"379 0 LINE"
);
}
);
width = 729;
}
);
leftKerningGroup = V;
rightKerningGroup = V;
unicode = 0056;
},
{
glyphname = W;
lastChange = "2020-04-04 14:49:13 +0000";
layers = (
{
anchors = (
{
name = bottom;
position = "{595, 0}";
},
{
name = top;
position = "{595, 825}";
}
);
layerId = "C45C3DCC-6617-4D42-8E57-0A4EECAD9C2E";
paths = (
{
closed = 1;
nodes = (
"1169 825 LINE",
"890 825 LINE",
"809 320 LINE",
"812 320 LINE",
"673 825 LINE",
"502 825 LINE",
"363 320 LINE",
"366 320 LINE",
"285 825 LINE",
"6 825 LINE",
"205 0 LINE",
"493 0 LINE",
"609 489 LINE",
"567 489 LINE",
"682 0 LINE",
"969 0 LINE"
);
}
);
width = 1223;
},
{
anchors = (
{
name = bottom;
position = "{454, 0}";
},
{
name = top;
position = "{454, 825}";
}
);
layerId = "9D4C2422-5CE9-4C2E-AAC7-BF869A02F5C8";
paths = (
{
closed = 1;
nodes = (
"866 825 LINE",
"823 825 LINE",
"675 49 LINE",
"676 49 LINE",
"477 825 LINE",
"417 825 LINE",
"218 49 LINE",
"219 49 LINE",
"71 825 LINE",
"28 825 LINE",
"189 0 LINE",
"247 0 LINE",
"452 806 LINE",
"442 806 LINE",
"647 0 LINE",
"705 0 LINE"
);
}
);
width = 933;
}
);
leftKerningGroup = W;
rightKerningGroup = W;
unicode = 0057;
},
{
glyphname = X;
lastChange = "2019-07-11 15:01:41 +0000";
layers = (
{
anchors = (
{
name = bottom;
position = "{454, 0}";
},
{
name = top;
position = "{454, 825}";
}
);
layerId = "C45C3DCC-6617-4D42-8E57-0A4EECAD9C2E";
paths = (
{
closed = 1;
nodes = (
"866 825 LINE",
"572 825 LINE",
"456 630 LINE",
"340 825 LINE",
"31 825 LINE",
"297 444 LINE",
"5 0 LINE",
"297 0 LINE",
"446 241 LINE",
"605 0 LINE",
"922 0 LINE",
"606 444 LINE"
);
}
);
width = 957;
},
{
anchors = (
{
name = bottom;
position = "{330, 0}";
},
{
name = top;
position = "{330, 825}";
}
);
layerId = "9D4C2422-5CE9-4C2E-AAC7-BF869A02F5C8";
paths = (
{
closed = 1;
nodes = (
"625 825 LINE",
"577 825 LINE",
"332 475 LINE",
"84 825 LINE",
"36 825 LINE",
"302 444 LINE",
"6 0 LINE",
"54 0 LINE",
"332 413 LINE",
"607 0 LINE",
"655 0 LINE",
"362 444 LINE"
);
}
);
width = 685;
}
);
leftKerningGroup = X;
rightKerningGroup = X;
unicode = 0058;
},
{
glyphname = Y;
lastChange = "2019-07-15 14:45:25 +0000";
layers = (
{
anchors = (
{
name = bottom;
position = "{374, 0}";
},
{
name = top;
position = "{374, 825}";
},
{
name = topleft;
position = "{-6, 825}";
}
);
layerId = "C45C3DCC-6617-4D42-8E57-0A4EECAD9C2E";
paths = (
{
closed = 1;
nodes = (
"253 0 LINE",
"495 0 LINE",
"495 297 LINE",
"783 825 LINE",
"490 825 LINE",
"374 572 LINE",
"258 825 LINE",
"-36 825 LINE",
"253 297 LINE"
);
}
);
width = 791;
},
{
anchors = (
{
name = bottom;
position = "{308, 0}";
},
{
name = top;
position = "{308, 825}";
},
{
name = topleft;
position = "{47, 825}";
}
);
layerId = "9D4C2422-5CE9-4C2E-AAC7-BF869A02F5C8";
paths = (
{
closed = 1;
nodes = (
"288 0 LINE",
"328 0 LINE",
"328 297 LINE",
"598 825 LINE",
"552 825 LINE",
"308 346 LINE",
"63 825 LINE",
"17 825 LINE",
"288 297 LINE"
);
}
);
width = 641;
}
);
leftKerningGroup = Y;
rightKerningGroup = Y;
unicode = 0059;
},
{
glyphname = Z;
lastChange = "2019-07-11 15:01:41 +0000";
layers = (
{
anchors = (
{
name = bottom;
position = "{390, 0}";
},
{
name = top;
position = "{390, 825}";
}
);
layerId = "C45C3DCC-6617-4D42-8E57-0A4EECAD9C2E";
paths = (
{
closed = 1;
nodes = (
"52 615 LINE",
"363 615 LINE",
"-6 0 LINE",
"758 0 LINE",
"758 210 LINE",
"413 210 LINE",
"785 825 LINE",
"52 825 LINE"
);
}
);
width = 824;
},
{
anchors = (
{
name = bottom;
position = "{334, 0}";
},
{
name = top;
position = "{334, 825}";
}
);
layerId = "9D4C2422-5CE9-4C2E-AAC7-BF869A02F5C8";
paths = (
{
closed = 1;
nodes = (
"98 785 LINE",
"554 785 LINE",
"40 0 LINE",
"600 0 LINE",
"600 40 LINE",
"117 40 LINE",
"627 825 LINE",
"98 825 LINE"
);
}
);
width = 692;
}
);
leftKerningGroup = Z;
rightKerningGroup = Z;
unicode = 005A;
},
{
glyphname = a;
lastChange = "2020-04-05 00:00:10 +0000";
layers = (
{
anchors = (
{
name = bottom;
position = "{356, 0}";
},
{
name = ogonek;
position = "{643, 10}";
},
{
name = top;
position = "{356, 513}";
}
);
layerId = "C45C3DCC-6617-4D42-8E57-0A4EECAD9C2E";
paths = (
{
closed = 1;
nodes = (
"674 0 LINE",
"674 513 LINE",
"429 513 LINE",
"429 453 LINE",
"407 485 OFFCURVE",
"354 528 OFFCURVE",
"266 528 CURVE SMOOTH",
"112 528 OFFCURVE",
"20 397 OFFCURVE",
"20 256 CURVE SMOOTH",
"20 115 OFFCURVE",
"112 -15 OFFCURVE",
"266 -15 CURVE SMOOTH",
"358 -15 OFFCURVE",
"418 49 OFFCURVE",
"431 72 CURVE",
"431 0 LINE"
);
},
{
closed = 1;
nodes = (
"261 299 OFFCURVE",
"295 338 OFFCURVE",
"345 338 CURVE SMOOTH",
"395 338 OFFCURVE",
"429 299 OFFCURVE",
"429 256 CURVE SMOOTH",
"429 213 OFFCURVE",
"395 175 OFFCURVE",
"345 175 CURVE SMOOTH",
"295 175 OFFCURVE",
"261 213 OFFCURVE",
"261 256 CURVE SMOOTH"
);
}
);
width = 734;
},
{
anchors = (
{
name = bottom;
position = "{308, 0}";
},
{
name = ogonek;
position = "{543, 10}";
},
{
name = top;
position = "{308, 513}";
}
);
layerId = "9D4C2422-5CE9-4C2E-AAC7-BF869A02F5C8";
paths = (
{
closed = 1;
nodes = (
"540 0 LINE",
"540 513 LINE",
"501 513 LINE",
"501 399 LINE",
"497 438 OFFCURVE",
"418 528 OFFCURVE",
"295 528 CURVE SMOOTH",
"158 528 OFFCURVE",
"36 431 OFFCURVE",
"36 256 CURVE SMOOTH",
"36 81 OFFCURVE",
"158 -15 OFFCURVE",
"295 -15 CURVE SMOOTH",
"419 -15 OFFCURVE",
"494 78 OFFCURVE",
"501 114 CURVE",
"501 0 LINE"
);
},
{
closed = 1;
nodes = (
"76 401 OFFCURVE",
"184 488 OFFCURVE",
"291 488 CURVE SMOOTH",
"410 488 OFFCURVE",
"499 398 OFFCURVE",
"499 256 CURVE SMOOTH",
"499 114 OFFCURVE",
"410 25 OFFCURVE",
"291 25 CURVE SMOOTH",
"184 25 OFFCURVE",
"76 111 OFFCURVE",
"76 256 CURVE SMOOTH"
);
}
);
width = 630;
}
);
leftKerningGroup = o;
leftMetricsKey = o;
rightKerningGroup = n;
unicode = 0061;
},
{
glyphname = ae;
lastChange = "2020-04-05 00:02:38 +0000";
layers = (
{
anchors = (
{
name = bottom;
position = "{524, 0}";
},
{
name = top;
position = "{524, 513}";
}
);
layerId = "C45C3DCC-6617-4D42-8E57-0A4EECAD9C2E";
paths = (
{
closed = 1;
nodes = (
"370 -15 OFFCURVE",
"452 39 OFFCURVE",
"478 79 CURVE",
"528 23 OFFCURVE",
"607 -15 OFFCURVE",
"695 -15 CURVE SMOOTH",
"816 -15 OFFCURVE",
"901 13 OFFCURVE",
"965 64 CURVE",
"838 202 LINE",
"805 172 OFFCURVE",
"750 160 OFFCURVE",
"708 160 CURVE SMOOTH",
"696 160 OFFCURVE",
"614 171 OFFCURVE",
"614 227 CURVE",
"982 227 LINE",
"982 233 OFFCURVE",
"983 249 OFFCURVE",
"983 256 CURVE SMOOTH",
"983 446 OFFCURVE",
"860 528 OFFCURVE",
"695 528 CURVE SMOOTH",
"607 528 OFFCURVE",
"535 490 OFFCURVE",
"491 452 CURVE",
"463 497 OFFCURVE",
"376 528 OFFCURVE",
"282 528 CURVE SMOOTH",
"154 528 OFFCURVE",
"57 503 OFFCURVE",
"20 484 CURVE",
"115 333 LINE",
"139 345 OFFCURVE",
"195 362 OFFCURVE",
"262 362 CURVE SMOOTH",
"362 362 OFFCURVE",
"386 319 OFFCURVE",
"386 299 CURVE SMOOTH",
"386 291 LINE",
"372 300 OFFCURVE",
"339 321 OFFCURVE",
"260 321 CURVE SMOOTH",
"132 321 OFFCURVE",
"45 246 OFFCURVE",
"45 161 CURVE SMOOTH",
"45 54 OFFCURVE",
"125 -15 OFFCURVE",
"240 -15 CURVE SMOOTH"
);
},
{
closed = 1;
nodes = (
"267 119 OFFCURVE",
"247 139 OFFCURVE",
"247 163 CURVE SMOOTH",
"247 187 OFFCURVE",
"267 207 OFFCURVE",
"291 207 CURVE SMOOTH",
"315 207 OFFCURVE",
"335 187 OFFCURVE",
"335 163 CURVE SMOOTH",
"335 139 OFFCURVE",
"315 119 OFFCURVE",
"291 119 CURVE SMOOTH"
);
},
{
closed = 1;
nodes = (
"624 366 OFFCURVE",
"661 390 OFFCURVE",
"701 390 CURVE SMOOTH",
"746 390 OFFCURVE",
"763 362 OFFCURVE",
"770 344 CURVE",
"619 344 LINE"
);
}
);
width = 1023;
},
{
anchors = (
{
name = bottom;
position = "{429, 0}";
},
{
name = top;
position = "{429, 513}";
}
);
layerId = "9D4C2422-5CE9-4C2E-AAC7-BF869A02F5C8";
paths = (
{
closed = 1;
nodes = (
"328 -15 OFFCURVE",
"399 61 OFFCURVE",
"412 99 CURVE",
"434 39 OFFCURVE",
"516 -15 OFFCURVE",
"608 -15 CURVE SMOOTH",
"714 -15 OFFCURVE",
"787 64 OFFCURVE",
"812 107 CURVE",
"776 130 LINE",
"764 105 OFFCURVE",
"706 25 OFFCURVE",
"612 25 CURVE SMOOTH",
"486 25 OFFCURVE",
"435 103 OFFCURVE",
"435 245 CURVE",
"820 245 LINE",
"820 251 OFFCURVE",
"821 249 OFFCURVE",
"821 256 CURVE SMOOTH",
"821 436 OFFCURVE",
"739 528 OFFCURVE",
"608 528 CURVE SMOOTH",
"514 528 OFFCURVE",
"437 450 OFFCURVE",
"423 390 CURVE",
"404 451 OFFCURVE",
"351 528 OFFCURVE",
"239 528 CURVE SMOOTH",
"153 528 OFFCURVE",
"89 490 OFFCURVE",
"64 462 CURVE",
"95 423 LINE",
"117 451 OFFCURVE",
"172 488 OFFCURVE",
"239 488 CURVE SMOOTH",
"290 488 OFFCURVE",
"391 455 OFFCURVE",
"391 299 CURVE SMOOTH",
"391 267 LINE",
"380 281 OFFCURVE",
"322 323 OFFCURVE",
"233 323 CURVE SMOOTH",
"128 323 OFFCURVE",
"36 258 OFFCURVE",
"36 156 CURVE SMOOTH",
"36 37 OFFCURVE",
"127 -15 OFFCURVE",
"229 -15 CURVE SMOOTH"
);
},
{
closed = 1;
nodes = (
"140 26 OFFCURVE",
"77 80 OFFCURVE",
"77 155 CURVE SMOOTH",
"77 239 OFFCURVE",
"163 283 OFFCURVE",
"238 283 CURVE SMOOTH",
"324 283 OFFCURVE",
"391 237 OFFCURVE",
"391 162 CURVE SMOOTH",
"391 96 OFFCURVE",
"320 24 OFFCURVE",
"223 25 CURVE SMOOTH"
);
},
{
closed = 1;
nodes = (
"448 408 OFFCURVE",
"507 488 OFFCURVE",
"612 488 CURVE SMOOTH",
"755 488 OFFCURVE",
"774 337 OFFCURVE",
"775 283 CURVE",
"440 283 LINE"
);
}
);
width = 882;
}
);
leftKerningGroup = a;
leftMetricsKey = a;
rightKerningGroup = e;
rightMetricsKey = e;
unicode = 00E6;
},
{
glyphname = b;
lastChange = "2020-04-05 00:01:36 +0000";
layers = (
{
anchors = (
{
name = bottom;
position = "{367, 0}";
},
{
name = top;
position = "{367, 900}";
}
);
layerId = "C45C3DCC-6617-4D42-8E57-0A4EECAD9C2E";
paths = (
{
closed = 1;
nodes = (
"283 0 LINE",
"283 72 LINE",
"316 21 OFFCURVE",
"383 -15 OFFCURVE",
"450 -15 CURVE SMOOTH",
"604 -15 OFFCURVE",
"694 115 OFFCURVE",
"694 256 CURVE SMOOTH",
"694 397 OFFCURVE",
"604 528 OFFCURVE",
"450 528 CURVE SMOOTH",
"362 528 OFFCURVE",
"299 485 OFFCURVE",
"285 453 CURVE",
"285 860 LINE",
"40 860 LINE",
"40 0 LINE"
);
},
{
closed = 1;
nodes = (
"453 213 OFFCURVE",
"419 175 OFFCURVE",
"369 175 CURVE SMOOTH",
"319 175 OFFCURVE",
"285 213 OFFCURVE",
"285 256 CURVE SMOOTH",
"285 299 OFFCURVE",
"319 338 OFFCURVE",
"369 338 CURVE SMOOTH",
"419 338 OFFCURVE",
"453 299 OFFCURVE",
"453 256 CURVE SMOOTH"
);
}
);
width = 728;
},
{
anchors = (
{
name = bottom;
position = "{297, 0}";
},
{
name = top;
position = "{297, 900}";
}
);
layerId = "9D4C2422-5CE9-4C2E-AAC7-BF869A02F5C8";
paths = (
{
closed = 1;
nodes = (
"115 0 LINE",
"115 114 LINE",
"119 76 OFFCURVE",
"205 -15 OFFCURVE",
"331 -15 CURVE SMOOTH",
"468 -15 OFFCURVE",
"580 81 OFFCURVE",
"580 256 CURVE SMOOTH",
"580 431 OFFCURVE",
"468 528 OFFCURVE",
"331 528 CURVE SMOOTH",
"206 528 OFFCURVE",
"121 441 OFFCURVE",
"117 399 CURVE",
"117 860 LINE",
"75 860 LINE",
"75 0 LINE"
);
},
{
closed = 1;
nodes = (
"539 111 OFFCURVE",
"442 25 OFFCURVE",
"335 25 CURVE SMOOTH",
"216 25 OFFCURVE",
"117 114 OFFCURVE",
"117 256 CURVE SMOOTH",
"117 398 OFFCURVE",
"216 488 OFFCURVE",
"335 488 CURVE SMOOTH",
"442 488 OFFCURVE",
"539 401 OFFCURVE",
"539 256 CURVE SMOOTH"
);
}
);
width = 618;
}
);
leftKerningGroup = h;
rightKerningGroup = o;
unicode = 0062;
},
{
glyphname = c;
lastChange = "2019-07-14 18:41:29 +0000";
layers = (
{
anchors = (
{
name = bottom;
position = "{269, 0}";
},
{
name = top;
position = "{269, 513}";
}
);
layerId = "C45C3DCC-6617-4D42-8E57-0A4EECAD9C2E";
paths = (
{
closed = 1;
nodes = (
"298 175 OFFCURVE",
"264 215 OFFCURVE",
"264 257 CURVE SMOOTH",
"264 298 OFFCURVE",
"298 338 OFFCURVE",
"347 338 CURVE SMOOTH",
"385 338 OFFCURVE",
"410 319 OFFCURVE",
"418 312 CURVE",
"531 477 LINE",
"507 497 OFFCURVE",
"437 528 OFFCURVE",
"346 528 CURVE SMOOTH",
"144 528 OFFCURVE",
"29 416 OFFCURVE",
"29 257 CURVE SMOOTH",
"29 98 OFFCURVE",
"144 -15 OFFCURVE",
"346 -15 CURVE SMOOTH",
"440 -15 OFFCURVE",
"504 18 OFFCURVE",
"529 39 CURVE",
"418 203 LINE",
"407 192 OFFCURVE",
"382 175 OFFCURVE",
"347 175 CURVE SMOOTH"
);
}
);
width = 542;
},
{
anchors = (
{
name = bottom;
position = "{241, 0}";
},
{
name = top;
position = "{241, 513}";
}
);
layerId = "9D4C2422-5CE9-4C2E-AAC7-BF869A02F5C8";
paths = (
{
closed = 1;
nodes = (
"191 25 OFFCURVE",
"83 107 OFFCURVE",
"83 257 CURVE SMOOTH",
"83 407 OFFCURVE",
"191 488 OFFCURVE",
"288 488 CURVE SMOOTH",
"368 488 OFFCURVE",
"412 447 OFFCURVE",
"423 436 CURVE",
"447 471 LINE",
"436 482 OFFCURVE",
"375 528 OFFCURVE",
"283 528 CURVE SMOOTH",
"173 528 OFFCURVE",
"43 440 OFFCURVE",
"43 257 CURVE SMOOTH",
"43 74 OFFCURVE",
"173 -15 OFFCURVE",
"283 -15 CURVE SMOOTH",
"375 -15 OFFCURVE",
"444 26 OFFCURVE",
"451 33 CURVE",
"427 68 LINE",
"417 60 OFFCURVE",
"368 25 OFFCURVE",
"288 25 CURVE SMOOTH"
);
}
);
width = 507;
}
);
leftKerningGroup = o;
rightKerningGroup = c;
unicode = 0063;
},
{
glyphname = eth;
lastChange = "2020-04-04 23:54:45 +0000";
layers = (
{
layerId = "C45C3DCC-6617-4D42-8E57-0A4EECAD9C2E";
paths = (
{
closed = 1;
nodes = (
"33 98 OFFCURVE",
"166 -15 OFFCURVE",
"356 -15 CURVE SMOOTH",
"532 -15 OFFCURVE",
"675 99 OFFCURVE",
"675 290 CURVE SMOOTH",
"675 503 OFFCURVE",
"581 666 OFFCURVE",
"463 752 CURVE",
"503 794 LINE",
"416 888 LINE",
"349 825 LINE",
"253 871 OFFCURVE",
"174 896 OFFCURVE",
"142 902 CURVE",
"91 712 LINE",
"109 708 OFFCURVE",
"150 694 OFFCURVE",
"197 674 CURVE",
"144 621 LINE",
"235 529 LINE",
"328 617 LINE",
"361 594 OFFCURVE",
"401 531 OFFCURVE",
"411 501 CURVE",
"396 517 OFFCURVE",
"378 528 OFFCURVE",
"314 528 CURVE SMOOTH",
"196 528 OFFCURVE",
"33 444 OFFCURVE",
"33 256 CURVE SMOOTH"
);
},
{
closed = 1;
nodes = (
"275 300 OFFCURVE",
"306 337 OFFCURVE",
"354 337 CURVE SMOOTH",
"402 337 OFFCURVE",
"433 302 OFFCURVE",
"433 256 CURVE SMOOTH",
"433 212 OFFCURVE",
"402 177 OFFCURVE",
"354 177 CURVE SMOOTH",
"306 177 OFFCURVE",
"275 213 OFFCURVE",
"275 256 CURVE SMOOTH"
);
}
);
width = 709;
},
{
layerId = "9D4C2422-5CE9-4C2E-AAC7-BF869A02F5C8";
paths = (
{
closed = 1;
nodes = (
"58 97 OFFCURVE",
"157 -15 OFFCURVE",
"330 -15 CURVE SMOOTH",
"506 -15 OFFCURVE",
"598 108 OFFCURVE",
"598 266 CURVE SMOOTH",
"598 522 OFFCURVE",
"479 645 OFFCURVE",
"332 726 CURVE",
"419 805 LINE",
"374 840 LINE",
"288 747 LINE",
"268 757 OFFCURVE",
"196 783 OFFCURVE",
"147 796 CURVE",
"130 760 LINE",
"159 754 OFFCURVE",
"230 730 OFFCURVE",
"259 715 CURVE",
"170 625 LINE",
"207 590 LINE",
"305 696 LINE",
"404 644 OFFCURVE",
"502 540 OFFCURVE",
"529 452 CURVE",
"514 468 OFFCURVE",
"451 528 OFFCURVE",
"322 528 CURVE SMOOTH",
"179 528 OFFCURVE",
"58 425 OFFCURVE",
"58 256 CURVE SMOOTH"
);
},
{
closed = 1;
nodes = (
"98 400 OFFCURVE",
"190 488 OFFCURVE",
"329 488 CURVE SMOOTH",
"478 488 OFFCURVE",
"558 414 OFFCURVE",
"558 256 CURVE SMOOTH",
"558 125 OFFCURVE",
"485 24 OFFCURVE",
"329 24 CURVE SMOOTH",
"186 24 OFFCURVE",
"98 123 OFFCURVE",
"98 256 CURVE SMOOTH"
);
}
);
width = 669;
}
);
leftKerningGroup = eth;
rightKerningGroup = eth;
unicode = 00F0;
},
{
glyphname = dcroat;
lastChange = "2019-07-14 14:22:41 +0000";
layers = (
{
components = (
{
name = d;
}
);
layerId = "C45C3DCC-6617-4D42-8E57-0A4EECAD9C2E";
paths = (
{
closed = 1;
nodes = (
"731 619 LINE",
"731 760 LINE",
"333 760 LINE",
"333 619 LINE"
);
}
);
width = 728;
},
{
components = (
{
name = d;
}
);
layerId = "9D4C2422-5CE9-4C2E-AAC7-BF869A02F5C8";
paths = (
{
closed = 1;
nodes = (
"620 653 LINE",
"620 692 LINE",
"358 692 LINE",
"358 653 LINE"
);
}
);
width = 618;
}
);
leftKerningGroup = o;
rightKerningGroup = l;
unicode = 0111;
},
{
glyphname = e;
lastChange = "2020-04-05 00:53:26 +0000";
layers = (
{
anchors = (
{
name = bottom;
position = "{315, 0}";
},
{
name = ogonek;
position = "{561, 10}";
},
{
name = top;
position = "{315, 513}";
}
);
layerId = "C45C3DCC-6617-4D42-8E57-0A4EECAD9C2E";
paths = (
{
closed = 1;
nodes = (
"600 208 LINE",
"602 214 OFFCURVE",
"602 240 OFFCURVE",
"602 247 CURVE SMOOTH",
"602 440 OFFCURVE",
"490 528 OFFCURVE",
"311 528 CURVE SMOOTH",
"126 528 OFFCURVE",
"20 411 OFFCURVE",
"20 262 CURVE SMOOTH",
"20 71 OFFCURVE",
"157 -15 OFFCURVE",
"331 -15 CURVE SMOOTH",
"486 -15 OFFCURVE",
"549 17 OFFCURVE",
"573 32 CURVE",
"485 186 LINE",
"458 168 OFFCURVE",
"403 161 OFFCURVE",
"348 161 CURVE SMOOTH",
"297 161 OFFCURVE",
"259 178 OFFCURVE",
"253 208 CURVE"
);
},
{
closed = 1;
nodes = (
"258 309 LINE",
"259 354 OFFCURVE",
"286 370 OFFCURVE",
"315 370 CURVE SMOOTH",
"347 370 OFFCURVE",
"368 350 OFFCURVE",
"370 309 CURVE"
);
}
);
width = 642;
},
{
anchors = (
{
name = bottom;
position = "{279, 0}";
},
{
name = ogonek;
position = "{491, 10}";
},
{
name = top;
position = "{279, 513}";
}
);
layerId = "9D4C2422-5CE9-4C2E-AAC7-BF869A02F5C8";
paths = (
{
closed = 1;
nodes = (
"512 260 LINE",
"512 266 OFFCURVE",
"513 274 OFFCURVE",
"513 281 CURVE SMOOTH",
"513 424 OFFCURVE",
"422 528 OFFCURVE",
"283 528 CURVE SMOOTH",
"127 528 OFFCURVE",
"36 413 OFFCURVE",
"36 263 CURVE SMOOTH",
"36 111 OFFCURVE",
"123 -15 OFFCURVE",
"285 -15 CURVE SMOOTH",
"391 -15 OFFCURVE",
"453 27 OFFCURVE",
"504 109 CURVE",
"467 134 LINE",
"450 95 OFFCURVE",
"400 24 OFFCURVE",
"287 24 CURVE SMOOTH",
"145 24 OFFCURVE",
"79 139 OFFCURVE",
"79 260 CURVE"
);
},
{
closed = 1;
nodes = (
"82 300 LINE",
"89 385 OFFCURVE",
"135 489 OFFCURVE",
"283 489 CURVE SMOOTH",
"423 489 OFFCURVE",
"466 381 OFFCURVE",
"469 300 CURVE"
);
}
);
width = 574;
}
);
leftKerningGroup = o;
leftMetricsKey = o;
rightKerningGroup = o;
rightMetricsKey = o;
unicode = 0065;
},
{
glyphname = f;
lastChange = "2020-04-05 00:54:12 +0000";
layers = (
{
anchors = (
{
name = bottom;
position = "{221, 0}";
},
{
name = top;
position = "{221, 900}";
}
);
layerId = "C45C3DCC-6617-4D42-8E57-0A4EECAD9C2E";
paths = (
{
closed = 1;
nodes = (
"10 313 LINE",
"81 313 LINE",
"81 0 LINE",
"327 0 LINE",
"327 313 LINE",
"441 313 LINE",
"441 513 LINE",
"327 513 LINE",
"327 622 LINE SMOOTH",
"327 656 OFFCURVE",
"346 668 OFFCURVE",
"364 668 CURVE SMOOTH",
"383 668 OFFCURVE",
"397 652 OFFCURVE",
"401 645 CURVE",
"494 823 LINE",
"479 838 OFFCURVE",
"429 875 OFFCURVE",
"326 875 CURVE SMOOTH",
"202 875 OFFCURVE",
"81 787 OFFCURVE",
"81 642 CURVE SMOOTH",
"81 513 LINE",
"10 513 LINE"
);
}
);
width = 464;
},
{
anchors = (
{
name = bottom;
position = "{178, 0}";
},
{
name = top;
position = "{178, 900}";
}
);
layerId = "9D4C2422-5CE9-4C2E-AAC7-BF869A02F5C8";
paths = (
{
closed = 1;
nodes = (
"21 474 LINE",
"143 474 LINE",
"143 0 LINE",
"182 0 LINE",
"182 474 LINE",
"344 474 LINE",
"344 513 LINE",
"182 513 LINE",
"182 659 LINE SMOOTH",
"182 811 OFFCURVE",
"239 837 OFFCURVE",
"291 837 CURVE SMOOTH",
"339 837 OFFCURVE",
"364 817 OFFCURVE",
"369 813 CURVE",
"388 848 LINE",
"384 851 OFFCURVE",
"352 875 OFFCURVE",
"295 875 CURVE SMOOTH",
"223 875 OFFCURVE",
"143 829 OFFCURVE",
"143 667 CURVE SMOOTH",
"143 513 LINE",
"21 513 LINE"
);
}
);
width = 381;
}
);
leftKerningGroup = f;
rightKerningGroup = f;
unicode = 0066;
},
{
glyphname = g;
lastChange = "2019-07-15 14:23:59 +0000";
layers = (
{
anchors = (
{
name = bottom;
position = "{354, -260}";
},
{
name = top;
position = "{354, 513}";
}
);
components = (
{
name = a;
}
);
layerId = "C45C3DCC-6617-4D42-8E57-0A4EECAD9C2E";
paths = (
{
closed = 1;
nodes = (
"523 -275 OFFCURVE",
"674 -187 OFFCURVE",
"674 -14 CURVE SMOOTH",
"674 10 LINE",
"431 10 LINE",
"431 0 LINE SMOOTH",
"431 -65 OFFCURVE",
"382 -86 OFFCURVE",
"318 -86 CURVE SMOOTH",
"247 -86 OFFCURVE",
"199 -56 OFFCURVE",
"167 -21 CURVE",
"28 -170 LINE",
"103 -260 OFFCURVE",
"231 -275 OFFCURVE",
"330 -275 CURVE SMOOTH"
);
}
);
width = 734;
},
{
anchors = (
{
name = bottom;
position = "{327, -260}";
},
{
name = top;
position = "{327, 513}";
}
);
components = (
{
name = a;
}
);
layerId = "9D4C2422-5CE9-4C2E-AAC7-BF869A02F5C8";
paths = (
{
closed = 1;
nodes = (
"439 -274 OFFCURVE",
"546 -183 OFFCURVE",
"546 -15 CURVE SMOOTH",
"546 9 LINE",
"507 9 LINE",
"507 -11 LINE SMOOTH",
"507 -129 OFFCURVE",
"439 -233 OFFCURVE",
"307 -233 CURVE SMOOTH",
"175 -233 OFFCURVE",
"135 -179 OFFCURVE",
"115 -147 CURVE",
"77 -175 LINE",
"106 -222 OFFCURVE",
"175 -274 OFFCURVE",
"307 -274 CURVE SMOOTH"
);
}
);
width = 636;
}
);
leftKerningGroup = g;
rightKerningGroup = g;
unicode = 0067;
},
{
glyphname = h;
lastChange = "2019-07-11 15:04:02 +0000";
layers = (
{
anchors = (
{
name = bottom;
position = "{353, 0}";
},
{
name = center;
position = "{353, 450}";
},
{
name = top;
position = "{353, 900}";
}
);
layerId = "C45C3DCC-6617-4D42-8E57-0A4EECAD9C2E";
paths = (
{
closed = 1;
nodes = (
"366 528 OFFCURVE",
"297 488 OFFCURVE",
"281 449 CURVE",
"281 860 LINE",
"35 860 LINE",
"35 0 LINE",
"281 0 LINE",
"281 270 LINE SMOOTH",
"281 323 OFFCURVE",
"322 357 OFFCURVE",
"366 357 CURVE SMOOTH",
"410 357 OFFCURVE",
"434 323 OFFCURVE",
"434 270 CURVE SMOOTH",
"434 0 LINE",
"680 0 LINE",
"680 308 LINE SMOOTH",
"680 465 OFFCURVE",
"560 528 OFFCURVE",
"447 528 CURVE SMOOTH"
);
}
);
width = 725;
},
{
anchors = (
{
name = bottom;
position = "{281, 0}";
},
{
name = center;
position = "{281, 450}";
},
{
name = top;
position = "{281, 900}";
}
);
layerId = "9D4C2422-5CE9-4C2E-AAC7-BF869A02F5C8";
paths = (
{
closed = 1;
nodes = (
"214 528 OFFCURVE",
"134 453 OFFCURVE",
"127 408 CURVE",
"127 860 LINE",
"85 860 LINE",
"85 0 LINE",
"127 0 LINE",
"127 290 LINE SMOOTH",
"127 401 OFFCURVE",
"220 488 OFFCURVE",
"310 488 CURVE SMOOTH",
"400 488 OFFCURVE",
"465 439 OFFCURVE",
"465 313 CURVE SMOOTH",
"465 0 LINE",
"506 0 LINE",
"506 326 LINE SMOOTH",
"506 469 OFFCURVE",
"405 528 OFFCURVE",
"311 528 CURVE SMOOTH"
);
}
);
width = 606;
}
);
leftKerningGroup = h;
rightKerningGroup = n;
unicode = 0068;
},
{
glyphname = hbar;
lastChange = "2019-07-14 14:22:50 +0000";
layers = (
{
components = (
{
name = h;
}
);
layerId = "C45C3DCC-6617-4D42-8E57-0A4EECAD9C2E";
paths = (
{
closed = 1;
nodes = (
"373 619 LINE",
"373 760 LINE",
"-25 760 LINE",
"-25 619 LINE"
);
}
);
width = 725;
},
{
components = (
{
name = h;
}
);
layerId = "9D4C2422-5CE9-4C2E-AAC7-BF869A02F5C8";
paths = (
{
closed = 1;
nodes = (
"276 653 LINE",
"276 692 LINE",
"14 692 LINE",
"14 653 LINE"
);
}
);
width = 606;
}
);
leftKerningGroup = h;
rightKerningGroup = n;
unicode = 0127;
},
{
glyphname = i;
lastChange = "2019-07-14 14:28:32 +0000";
layers = (
{
anchors = (
{
name = bottom;
position = "{172, 0}";
}
);
layerId = "C45C3DCC-6617-4D42-8E57-0A4EECAD9C2E";
paths = (
{
closed = 1;
nodes = (
"292 0 LINE",
"292 513 LINE",
"46 513 LINE",
"46 0 LINE"
);
},
{
closed = 1;
nodes = (
"245 570 OFFCURVE",
"305 630 OFFCURVE",
"305 702 CURVE SMOOTH",
"305 775 OFFCURVE",
"244 835 OFFCURVE",
"172 835 CURVE SMOOTH",
"99 835 OFFCURVE",
"40 774 OFFCURVE",
"40 702 CURVE SMOOTH",
"40 630 OFFCURVE",
"99 570 OFFCURVE",
"172 570 CURVE SMOOTH"
);
}
);
width = 355;
},
{
anchors = (
{
name = bottom;
position = "{114, 0}";
}
);
layerId = "9D4C2422-5CE9-4C2E-AAC7-BF869A02F5C8";
paths = (
{
closed = 1;
nodes = (
"133 0 LINE",
"133 513 LINE",
"93 513 LINE",
"93 0 LINE"
);
},
{
closed = 1;
nodes = (
"137 748 OFFCURVE",
"156 766 OFFCURVE",
"156 789 CURVE SMOOTH",
"156 812 OFFCURVE",
"136 830 OFFCURVE",
"114 830 CURVE SMOOTH",
"92 830 OFFCURVE",
"73 812 OFFCURVE",
"73 789 CURVE SMOOTH",
"73 766 OFFCURVE",
"91 748 OFFCURVE",
"114 748 CURVE SMOOTH"
);
}
);
width = 253;
}
);
leftKerningGroup = i;
rightKerningGroup = i;
unicode = 0069;
},
{
glyphname = idotless;
lastChange = "2019-07-10 14:01:49 +0000";
layers = (
{
anchors = (
{
name = bottom;
position = "{140, 0}";
},
{
name = ogonek;
position = "{265, 10}";
},
{
name = top;
position = "{140, 513}";
}
);
layerId = "C45C3DCC-6617-4D42-8E57-0A4EECAD9C2E";
paths = (
{
closed = 1;
nodes = (
"253 0 LINE",
"253 513 LINE",
"26 513 LINE",
"26 0 LINE"
);
}
);
width = 294;
},
{
anchors = (
{
name = bottom;
position = "{94, 0}";
},
{
name = ogonek;
position = "{150, 10}";
},
{
name = top;
position = "{94, 513}";
}
);
layerId = "9D4C2422-5CE9-4C2E-AAC7-BF869A02F5C8";
paths = (
{
closed = 1;
nodes = (
"114 0 LINE",
"114 513 LINE",
"74 513 LINE",
"74 0 LINE"
);
}
);
width = 212;
}
);
leftKerningGroup = idotless;
rightKerningGroup = idotless;
unicode = 0131;
},
{
glyphname = j;
lastChange = "2019-07-11 14:23:00 +0000";
layers = (
{
layerId = "C45C3DCC-6617-4D42-8E57-0A4EECAD9C2E";
paths = (
{
closed = 1;
nodes = (
"225 -275 OFFCURVE",
"296 -176 OFFCURVE",
"296 -57 CURVE SMOOTH",
"296 513 LINE",
"50 513 LINE",
"50 -25 LINE SMOOTH",
"50 -59 OFFCURVE",
"29 -71 OFFCURVE",
"10 -71 CURVE SMOOTH",
"-3 -71 OFFCURVE",
"-19 -68 OFFCURVE",
"-34 -57 CURVE",
"-105 -238 LINE",
"-75 -255 OFFCURVE",
"-20 -275 OFFCURVE",
"68 -275 CURVE SMOOTH"
);
},
{
closed = 1;
nodes = (
"247 570 OFFCURVE",
"307 630 OFFCURVE",
"307 702 CURVE SMOOTH",
"307 775 OFFCURVE",
"246 835 OFFCURVE",
"174 835 CURVE SMOOTH",
"101 835 OFFCURVE",
"42 774 OFFCURVE",
"42 702 CURVE SMOOTH",
"42 630 OFFCURVE",
"101 570 OFFCURVE",
"174 570 CURVE SMOOTH"
);
}
);
width = 362;
},
{
layerId = "9D4C2422-5CE9-4C2E-AAC7-BF869A02F5C8";
paths = (
{
closed = 1;
nodes = (
"127 -275 OFFCURVE",
"154 -202 OFFCURVE",
"154 -79 CURVE SMOOTH",
"154 513 LINE",
"114 513 LINE",
"114 -55 LINE SMOOTH",
"114 -162 OFFCURVE",
"105 -235 OFFCURVE",
"31 -235 CURVE SMOOTH",
"-4 -235 OFFCURVE",
"-15 -226 OFFCURVE",
"-24 -218 CURVE",
"-49 -252 LINE",
"-38 -262 OFFCURVE",
"-8 -275 OFFCURVE",
"32 -275 CURVE SMOOTH"
);
},
{
closed = 1;
nodes = (
"161 748 OFFCURVE",
"179 766 OFFCURVE",
"179 789 CURVE SMOOTH",
"179 811 OFFCURVE",
"161 830 OFFCURVE",
"138 830 CURVE SMOOTH",
"115 830 OFFCURVE",
"97 811 OFFCURVE",
"97 789 CURVE SMOOTH",
"97 766 OFFCURVE",
"115 748 OFFCURVE",
"138 748 CURVE SMOOTH"
);
}
);
width = 267;
}
);
leftKerningGroup = j;
rightKerningGroup = j;
unicode = 006A;
},
{
glyphname = jdotless;
lastChange = "2020-04-04 23:51:05 +0000";
layers = (
{
anchors = (
{
name = bottom;
position = "{134, -260}";
},
{
name = top;
position = "{134, 513}";
}
);
layerId = "9D4C2422-5CE9-4C2E-AAC7-BF869A02F5C8";
paths = (
{
closed = 1;
nodes = (
"127 -275 OFFCURVE",
"154 -202 OFFCURVE",
"154 -79 CURVE SMOOTH",
"154 513 LINE",
"114 513 LINE",
"114 -55 LINE SMOOTH",
"114 -162 OFFCURVE",
"105 -235 OFFCURVE",
"31 -235 CURVE SMOOTH",
"-4 -235 OFFCURVE",
"-15 -226 OFFCURVE",
"-24 -218 CURVE",
"-49 -252 LINE",
"-38 -262 OFFCURVE",
"-8 -275 OFFCURVE",
"32 -275 CURVE SMOOTH"
);
}
);
width = 267;
},
{
anchors = (
{
name = bottom;
position = "{181, -260}";
},
{
name = top;
position = "{181, 513}";
}
);
layerId = "C45C3DCC-6617-4D42-8E57-0A4EECAD9C2E";
paths = (
{
closed = 1;
nodes = (
"225 -275 OFFCURVE",
"296 -176 OFFCURVE",
"296 -57 CURVE SMOOTH",
"296 513 LINE",
"50 513 LINE",
"50 -25 LINE SMOOTH",
"50 -59 OFFCURVE",
"29 -71 OFFCURVE",
"10 -71 CURVE SMOOTH",
"-3 -71 OFFCURVE",
"-19 -68 OFFCURVE",
"-34 -57 CURVE",
"-105 -238 LINE",
"-75 -255 OFFCURVE",
"-20 -275 OFFCURVE",
"68 -275 CURVE SMOOTH"
);
}
);
width = 362;
}
);
leftKerningGroup = jdotless;
rightKerningGroup = jdotless;
unicode = 0237;
},
{
glyphname = k;
lastChange = "2019-07-15 14:25:43 +0000";
layers = (
{
anchors = (
{
name = bottom;
position = "{349, 0}";
},
{
name = top;
position = "{349, 900}";
}
);
layerId = "C45C3DCC-6617-4D42-8E57-0A4EECAD9C2E";
paths = (
{
closed = 1;
nodes = (
"271 352 LINE",
"271 860 LINE",
"25 860 LINE",
"25 0 LINE",
"271 0 LINE",
"271 192 LINE",
"442 0 LINE",
"721 0 LINE",
"465 268 LINE",
"692 513 LINE",
"419 513 LINE"
);
}
);
width = 711;
},
{
anchors = (
{
name = bottom;
position = "{210, 0}";
},
{
name = top;
position = "{210, 900}";
}
);
layerId = "9D4C2422-5CE9-4C2E-AAC7-BF869A02F5C8";
paths = (
{
closed = 1;
nodes = (
"100 289 LINE",
"100 860 LINE",
"60 860 LINE",
"60 0 LINE",
"100 0 LINE",
"100 245 LINE",
"372 0 LINE",
"432 0 LINE",
"136 269 LINE",
"420 513 LINE",
"360 513 LINE"
);
}
);
width = 452;
}
);
leftKerningGroup = h;
rightKerningGroup = k;
unicode = 006B;
},
{
glyphname = kgreenlandic;
lastChange = "2020-04-04 23:51:05 +0000";
layers = (
{
anchors = (
{
name = bottom;
position = "{256, 0}";
},
{
name = top;
position = "{256, 513}";
}
);
layerId = "9D4C2422-5CE9-4C2E-AAC7-BF869A02F5C8";
paths = (
{
closed = 1;
nodes = (
"418 513 LINE",
"366 513 LINE",
"134 269 LINE",
"134 513 LINE",
"94 513 LINE",
"94 0 LINE",
"134 0 LINE",
"134 254 LINE",
"385 0 LINE",
"438 0 LINE",
"178 265 LINE"
);
}
);
width = 459;
},
{
anchors = (
{
name = bottom;
position = "{386, 0}";
},
{
name = top;
position = "{354, 513}";
}
);
layerId = "C45C3DCC-6617-4D42-8E57-0A4EECAD9C2E";
paths = (
{
closed = 1;
nodes = (
"666 513 LINE",
"394 513 LINE",
"260 339 LINE",
"260 513 LINE",
"18 513 LINE",
"18 0 LINE",
"260 0 LINE",
"260 171 LINE",
"415 0 LINE",
"703 0 LINE",
"447 257 LINE"
);
}
);
width = 724;
}
);
leftKerningGroup = h;
rightKerningGroup = k;
unicode = 0138;
},
{
glyphname = l;
lastChange = "2020-04-04 23:55:06 +0000";
layers = (
{
anchors = (
{
name = bottom;
position = "{164, 0}";
},
{
name = center;
position = "{154, 653}";
},
{
name = top;
position = "{154, 900}";
},
{
name = topright;
position = "{306, 900}";
}
);
layerId = "C45C3DCC-6617-4D42-8E57-0A4EECAD9C2E";
paths = (
{
closed = 1;
nodes = (
"286 860 LINE",
"40 860 LINE",
"40 0 LINE",
"286 0 LINE"
);
}
);
width = 342;
},
{
anchors = (
{
name = bottom;
position = "{104, 0}";
},
{
name = center;
position = "{104, 563}";
},
{
name = top;
position = "{104, 900}";
},
{
name = topright;
position = "{165, 900}";
}
);
layerId = "9D4C2422-5CE9-4C2E-AAC7-BF869A02F5C8";
paths = (
{
closed = 1;
nodes = (
"125 860 LINE",
"84 860 LINE",
"84 0 LINE",
"125 0 LINE"
);
}
);
width = 233;
}
);
leftKerningGroup = h;
rightKerningGroup = l;
unicode = 006C;
},
{
glyphname = lslash;
lastChange = "2019-07-10 14:01:49 +0000";
layers = (
{
layerId = "C45C3DCC-6617-4D42-8E57-0A4EECAD9C2E";
paths = (
{
closed = 1;
nodes = (
"305 0 LINE",
"305 462 LINE",
"383 523 LINE",
"383 707 LINE",
"305 646 LINE",
"305 860 LINE",
"79 860 LINE",
"79 469 LINE",
"-4 403 LINE",
"-4 219 LINE",
"79 285 LINE",
"79 0 LINE"
);
}
);
width = 394;
},
{
layerId = "9D4C2422-5CE9-4C2E-AAC7-BF869A02F5C8";
paths = (
{
closed = 1;
nodes = (
"143 0 LINE",
"143 413 LINE",
"215 469 LINE",
"215 536 LINE",
"143 480 LINE",
"143 860 LINE",
"102 860 LINE",
"102 447 LINE",
"46 403 LINE",
"46 336 LINE",
"102 380 LINE",
"102 0 LINE"
);
}
);
width = 286;
}
);
leftKerningGroup = lslash;
rightKerningGroup = lslash;
unicode = 0142;
},
{
glyphname = m;
lastChange = "2019-07-11 15:03:50 +0000";
layers = (
{
anchors = (
{
name = bottom;
position = "{515, 0}";
},
{
name = top;
position = "{515, 513}";
}
);
layerId = "C45C3DCC-6617-4D42-8E57-0A4EECAD9C2E";
paths = (
{
closed = 1;
nodes = (
"722 528 OFFCURVE",
"642 482 OFFCURVE",
"626 443 CURVE",
"595 498 OFFCURVE",
"553 528 OFFCURVE",
"464 528 CURVE SMOOTH",
"382 528 OFFCURVE",
"300 482 OFFCURVE",
"284 444 CURVE",
"284 513 LINE",
"40 513 LINE",
"40 0 LINE",
"284 0 LINE",
"284 270 LINE SMOOTH",
"284 313 OFFCURVE",
"305 357 OFFCURVE",
"358 357 CURVE SMOOTH",
"411 357 OFFCURVE",
"419 314 OFFCURVE",
"419 270 CURVE SMOOTH",
"419 0 LINE",
"643 0 LINE",
"643 270 LINE SMOOTH",
"643 313 OFFCURVE",
"663 357 OFFCURVE",
"716 357 CURVE SMOOTH",
"769 357 OFFCURVE",
"778 314 OFFCURVE",
"778 270 CURVE SMOOTH",
"778 0 LINE",
"1020 0 LINE",
"1020 303 LINE SMOOTH",
"1020 460 OFFCURVE",
"929 528 OFFCURVE",
"811 528 CURVE SMOOTH"
);
}
);
width = 1060;
},
{
anchors = (
{
name = bottom;
position = "{433, 0}";
},
{
name = top;
position = "{433, 513}";
}
);
layerId = "9D4C2422-5CE9-4C2E-AAC7-BF869A02F5C8";
paths = (
{
closed = 1;
nodes = (
"521 528 OFFCURVE",
"455 457 OFFCURVE",
"437 395 CURVE",
"431 442 OFFCURVE",
"385 528 OFFCURVE",
"290 528 CURVE SMOOTH",
"198 528 OFFCURVE",
"139 469 OFFCURVE",
"127 430 CURVE",
"127 513 LINE",
"87 513 LINE",
"87 0 LINE",
"127 0 LINE",
"127 280 LINE SMOOTH",
"127 435 OFFCURVE",
"209 487 OFFCURVE",
"281 487 CURVE SMOOTH",
"359 487 OFFCURVE",
"415 425 OFFCURVE",
"415 280 CURVE SMOOTH",
"415 0 LINE",
"455 0 LINE",
"455 280 LINE SMOOTH",
"455 431 OFFCURVE",
"541 487 OFFCURVE",
"613 487 CURVE SMOOTH",
"710 487 OFFCURVE",
"744 425 OFFCURVE",
"744 280 CURVE SMOOTH",
"744 0 LINE",
"784 0 LINE",
"784 296 LINE SMOOTH",
"784 453 OFFCURVE",
"729 528 OFFCURVE",
"616 528 CURVE SMOOTH"
);
}
);
width = 890;
}
);
leftKerningGroup = n;
rightKerningGroup = n;
unicode = 006D;
},
{
glyphname = n;
lastChange = "2019-07-11 15:04:11 +0000";
layers = (
{
anchors = (
{
name = bottom;
position = "{347, 0}";
},
{
name = top;
position = "{347, 513}";
}
);
layerId = "C45C3DCC-6617-4D42-8E57-0A4EECAD9C2E";
paths = (
{
closed = 1;
nodes = (
"361 528 OFFCURVE",
"292 488 OFFCURVE",
"276 449 CURVE",
"276 513 LINE",
"30 513 LINE",
"30 0 LINE",
"276 0 LINE",
"276 270 LINE SMOOTH",
"276 323 OFFCURVE",
"312 357 OFFCURVE",
"356 357 CURVE SMOOTH",
"400 357 OFFCURVE",
"429 323 OFFCURVE",
"429 270 CURVE SMOOTH",
"429 0 LINE",
"675 0 LINE",
"675 308 LINE SMOOTH",
"675 465 OFFCURVE",
"555 528 OFFCURVE",
"442 528 CURVE SMOOTH"
);
}
);
width = 720;
},
{
anchors = (
{
name = bottom;
position = "{276, 0}";
},
{
name = top;
position = "{276, 513}";
}
);
layerId = "9D4C2422-5CE9-4C2E-AAC7-BF869A02F5C8";
paths = (
{
closed = 1;
nodes = (
"212 528 OFFCURVE",
"131 453 OFFCURVE",
"124 408 CURVE",
"124 513 LINE",
"84 513 LINE",
"84 0 LINE",
"124 0 LINE",
"124 290 LINE SMOOTH",
"124 401 OFFCURVE",
"217 488 OFFCURVE",
"307 488 CURVE SMOOTH",
"397 488 OFFCURVE",
"462 439 OFFCURVE",
"462 313 CURVE SMOOTH",
"462 0 LINE",
"503 0 LINE",
"503 326 LINE SMOOTH",
"503 469 OFFCURVE",
"402 528 OFFCURVE",
"308 528 CURVE SMOOTH"
);
}
);
width = 596;
}
);
leftKerningGroup = n;
rightKerningGroup = n;
unicode = 006E;
},
{
glyphname = eng;
lastChange = "2020-04-04 14:49:59 +0000";
layers = (
{
components = (
{
name = n;
}
);
layerId = "C45C3DCC-6617-4D42-8E57-0A4EECAD9C2E";
paths = (
{
closed = 1;
nodes = (
"675 -19 LINE SMOOTH",
"675 -125 OFFCURVE",
"594 -275 OFFCURVE",
"437 -275 CURVE SMOOTH",
"339 -275 OFFCURVE",
"298 -253 OFFCURVE",
"274 -238 CURVE",
"350 -60 LINE",
"358 -65 OFFCURVE",
"375 -71 OFFCURVE",
"391 -71 CURVE SMOOTH",
"410 -71 OFFCURVE",
"429 -59 OFFCURVE",
"429 -15 CURVE SMOOTH",
"429 0 LINE",
"675 0 LINE"
);
}
);
width = 720;
},
{
components = (
{
name = n;
}
);
layerId = "9D4C2422-5CE9-4C2E-AAC7-BF869A02F5C8";
paths = (
{
closed = 1;
nodes = (
"503 -79 LINE SMOOTH",
"503 -182 OFFCURVE",
"479 -265 OFFCURVE",
"381 -265 CURVE SMOOTH",
"334 -265 OFFCURVE",
"303 -248 OFFCURVE",
"302 -246 CURVE",
"325 -205 LINE",
"334 -214 OFFCURVE",
"357 -225 OFFCURVE",
"388 -225 CURVE SMOOTH",
"462 -225 OFFCURVE",
"462 -132 OFFCURVE",
"462 -45 CURVE SMOOTH",
"462 0 LINE",
"503 0 LINE"
);
}
);
width = 596;
}
);
leftKerningGroup = n;
rightKerningGroup = j;
unicode = 014B;
},
{
glyphname = o;
lastChange = "2020-04-04 15:04:36 +0000";
layers = (
{
anchors = (
{
name = bottom;
position = "{319, -116}";
},
{
name = center;
position = "{319, 373}";
},
{
name = ogonek;
position = "{574, 10}";
},
{
name = top;
position = "{319, 513}";
},
{
name = topright;
position = "{467, 493}";
}
);
layerId = "C45C3DCC-6617-4D42-8E57-0A4EECAD9C2E";
paths = (
{
closed = 1;
nodes = (
"496 -15 OFFCURVE",
"618 95 OFFCURVE",
"618 255 CURVE SMOOTH",
"618 415 OFFCURVE",
"496 528 OFFCURVE",
"321 528 CURVE SMOOTH",
"146 528 OFFCURVE",
"20 415 OFFCURVE",
"20 255 CURVE SMOOTH",
"20 95 OFFCURVE",
"146 -15 OFFCURVE",
"321 -15 CURVE SMOOTH"
);
},
{
closed = 1;
nodes = (
"280 185 OFFCURVE",
"255 212 OFFCURVE",
"255 256 CURVE SMOOTH",
"255 300 OFFCURVE",
"280 328 OFFCURVE",
"321 328 CURVE SMOOTH",
"362 328 OFFCURVE",
"386 300 OFFCURVE",
"386 256 CURVE SMOOTH",
"386 212 OFFCURVE",
"362 185 OFFCURVE",
"321 185 CURVE SMOOTH"
);
}
);
width = 658;
},
{
anchors = (
{
name = bottom;
position = "{293, -64}";
},
{
name = center;
position = "{293, 321}";
},
{
name = ogonek;
position = "{514, 10}";
},
{
name = top;
position = "{293, 513}";
},
{
name = topright;
position = "{424, 488}";
}
);
layerId = "9D4C2422-5CE9-4C2E-AAC7-BF869A02F5C8";
paths = (
{
closed = 1;
nodes = (
"444 -15 OFFCURVE",
"550 105 OFFCURVE",
"550 255 CURVE SMOOTH",
"550 405 OFFCURVE",
"444 528 OFFCURVE",
"294 528 CURVE SMOOTH",
"144 528 OFFCURVE",
"36 405 OFFCURVE",
"36 255 CURVE SMOOTH",
"36 105 OFFCURVE",
"144 -15 OFFCURVE",
"294 -15 CURVE SMOOTH"
);
},
{
closed = 1;
nodes = (
"164 25 OFFCURVE",
"76 125 OFFCURVE",
"76 255 CURVE SMOOTH",
"76 385 OFFCURVE",
"164 488 OFFCURVE",
"294 488 CURVE SMOOTH",
"424 488 OFFCURVE",
"510 385 OFFCURVE",
"510 255 CURVE SMOOTH",
"510 125 OFFCURVE",
"424 25 OFFCURVE",
"294 25 CURVE SMOOTH"
);
}
);
width = 611;
}
);
leftKerningGroup = o;
rightKerningGroup = o;
unicode = 006F;
},
{
glyphname = oslash;
lastChange = "2019-07-11 14:53:48 +0000";
layers = (
{
components = (
{
name = o;
}
);
layerId = "C45C3DCC-6617-4D42-8E57-0A4EECAD9C2E";
paths = (
{
closed = 1;
nodes = (
"24 18 LINE",
"84 -33 LINE",
"606 499 LINE",
"546 550 LINE"
);
}
);
width = 641;
},
{
components = (
{
name = o;
}
);
layerId = "9D4C2422-5CE9-4C2E-AAC7-BF869A02F5C8";
paths = (
{
closed = 1;
nodes = (
"26 13 LINE",
"54 -13 LINE",
"564 504 LINE",
"536 530 LINE"
);
}
);
width = 611;
}
);
leftKerningGroup = o;
rightKerningGroup = o;
unicode = 00F8;
},
{
glyphname = p;
lastChange = "2020-04-05 00:53:40 +0000";
layers = (
{
anchors = (
{
name = bottom;
position = "{362, 0}";
},
{
name = top;
position = "{362, 513}";
}
);
layerId = "C45C3DCC-6617-4D42-8E57-0A4EECAD9C2E";
paths = (
{
closed = 1;
nodes = (
"283 72 LINE",
"296 49 OFFCURVE",
"346 -15 OFFCURVE",
"448 -15 CURVE SMOOTH",
"602 -15 OFFCURVE",
"694 115 OFFCURVE",
"694 256 CURVE SMOOTH",
"694 397 OFFCURVE",
"612 528 OFFCURVE",
"458 528 CURVE SMOOTH",
"370 528 OFFCURVE",
"307 485 OFFCURVE",
"285 453 CURVE",
"285 513 LINE",
"40 513 LINE",
"40 -260 LINE",
"283 -260 LINE"
);
},
{
closed = 1;
nodes = (
"453 213 OFFCURVE",
"419 175 OFFCURVE",
"369 175 CURVE SMOOTH",
"319 175 OFFCURVE",
"285 213 OFFCURVE",
"285 256 CURVE SMOOTH",
"285 299 OFFCURVE",
"319 338 OFFCURVE",
"369 338 CURVE SMOOTH",
"419 338 OFFCURVE",
"453 299 OFFCURVE",
"453 256 CURVE SMOOTH"
);
}
);
width = 734;
},
{
anchors = (
{
name = bottom;
position = "{307, 0}";
},
{
name = top;
position = "{307, 513}";
}
);
layerId = "9D4C2422-5CE9-4C2E-AAC7-BF869A02F5C8";
paths = (
{
closed = 1;
nodes = (
"122 114 LINE",
"126 76 OFFCURVE",
"211 -15 OFFCURVE",
"337 -15 CURVE SMOOTH",
"474 -15 OFFCURVE",
"587 81 OFFCURVE",
"587 256 CURVE SMOOTH",
"587 431 OFFCURVE",
"474 528 OFFCURVE",
"337 528 CURVE SMOOTH",
"212 528 OFFCURVE",
"128 441 OFFCURVE",
"124 399 CURVE",
"124 513 LINE",
"81 513 LINE",
"81 -260 LINE",
"122 -260 LINE"
);
},
{
closed = 1;
nodes = (
"546 111 OFFCURVE",
"448 25 OFFCURVE",
"341 25 CURVE SMOOTH",
"222 25 OFFCURVE",
"124 114 OFFCURVE",
"124 256 CURVE SMOOTH",
"124 398 OFFCURVE",
"222 488 OFFCURVE",
"341 488 CURVE SMOOTH",
"448 488 OFFCURVE",
"546 401 OFFCURVE",
"546 256 CURVE SMOOTH"
);
}
);
width = 638;
}
);
leftKerningGroup = p;
rightKerningGroup = o;
unicode = 0070;
},
{
glyphname = thorn;
lastChange = "2019-07-14 14:21:57 +0000";
layers = (
{
components = (
{
name = b;
}
);
layerId = "C45C3DCC-6617-4D42-8E57-0A4EECAD9C2E";
paths = (
{
closed = 1;
nodes = (
"40 -260 LINE",
"283 -260 LINE",
"283 0 LINE",
"40 0 LINE"
);
}
);
width = 728;
},
{
components = (
{
name = b;
}
);
layerId = "9D4C2422-5CE9-4C2E-AAC7-BF869A02F5C8";
paths = (
{
closed = 1;
nodes = (
"75 -260 LINE",
"115 -260 LINE",
"115 0 LINE",
"75 0 LINE"
);
}
);
width = 618;
}
);
leftKerningGroup = h;
rightKerningGroup = o;
unicode = 00FE;
},
{
glyphname = r;
lastChange = "2020-04-04 14:49:59 +0000";
layers = (
{
anchors = (
{
name = bottom;
position = "{254, 0}";
},
{
name = top;
position = "{254, 513}";
}
);
layerId = "C45C3DCC-6617-4D42-8E57-0A4EECAD9C2E";
paths = (
{
closed = 1;
nodes = (
"263 240 LINE SMOOTH",
"263 281 OFFCURVE",
"287 333 OFFCURVE",
"360 333 CURVE SMOOTH",
"405 333 OFFCURVE",
"436 311 OFFCURVE",
"447 295 CURVE",
"541 494 LINE",
"520 509 OFFCURVE",
"474 528 OFFCURVE",
"427 528 CURVE SMOOTH",
"322 528 OFFCURVE",
"273 467 OFFCURVE",
"260 440 CURVE",
"263 440 LINE",
"263 513 LINE",
"17 513 LINE",
"17 0 LINE",
"263 0 LINE"
);
}
);
width = 536;
},
{
anchors = (
{
name = bottom;
position = "{198, 0}";
},
{
name = top;
position = "{198, 513}";
}
);
layerId = "9D4C2422-5CE9-4C2E-AAC7-BF869A02F5C8";
paths = (
{
closed = 1;
nodes = (
"127 304 LINE SMOOTH",
"127 375 OFFCURVE",
"187 488 OFFCURVE",
"275 488 CURVE SMOOTH",
"317 488 OFFCURVE",
"347 475 OFFCURVE",
"359 466 CURVE",
"378 502 LINE",
"366 513 OFFCURVE",
"331 528 OFFCURVE",
"283 528 CURVE SMOOTH",
"190 528 OFFCURVE",
"127 450 OFFCURVE",
"124 417 CURVE",
"127 417 LINE",
"127 513 LINE",
"88 513 LINE",
"88 0 LINE",
"127 0 LINE"
);
}
);
width = 388;
}
);
leftKerningGroup = n;
rightKerningGroup = r;
unicode = 0072;
},
{
glyphname = s;
lastChange = "2020-04-04 14:49:56 +0000";
layers = (
{
anchors = (
{
name = bottom;
position = "{274, 0}";
},
{
name = top;
position = "{274, 513}";
}
);
layerId = "C45C3DCC-6617-4D42-8E57-0A4EECAD9C2E";
paths = (
{
closed = 1;
nodes = (
"172 528 OFFCURVE",
"49 478 OFFCURVE",
"49 367 CURVE SMOOTH",
"49 251 OFFCURVE",
"154 213 OFFCURVE",
"212 202 CURVE SMOOTH",
"260 193 OFFCURVE",
"280 185 OFFCURVE",
"280 172 CURVE SMOOTH",
"280 160 OFFCURVE",
"261 154 OFFCURVE",
"220 154 CURVE SMOOTH",
"170 154 OFFCURVE",
"115 183 OFFCURVE",
"93 200 CURVE",
"20 42 LINE",
"38 28 OFFCURVE",
"112 -15 OFFCURVE",
"245 -15 CURVE SMOOTH",
"359 -15 OFFCURVE",
"521 13 OFFCURVE",
"521 173 CURVE SMOOTH",
"521 283 OFFCURVE",
"420 319 OFFCURVE",
"351 331 CURVE SMOOTH",
"303 339 OFFCURVE",
"281 347 OFFCURVE",
"281 360 CURVE SMOOTH",
"281 373 OFFCURVE",
"302 377 OFFCURVE",
"330 377 CURVE SMOOTH",
"381 377 OFFCURVE",
"429 353 OFFCURVE",
"444 343 CURVE",
"519 485 LINE",
"505 495 OFFCURVE",
"413 528 OFFCURVE",
"300 528 CURVE SMOOTH"
);
}
);
width = 561;
},
{
anchors = (
{
name = bottom;
position = "{225, 0}";
},
{
name = top;
position = "{225, 513}";
}
);
layerId = "9D4C2422-5CE9-4C2E-AAC7-BF869A02F5C8";
paths = (
{
closed = 1;
nodes = (
"140 528 OFFCURVE",
"61 474 OFFCURVE",
"61 397 CURVE SMOOTH",
"61 313 OFFCURVE",
"132 274 OFFCURVE",
"221 251 CURVE SMOOTH",
"291 233 OFFCURVE",
"360 210 OFFCURVE",
"360 136 CURVE SMOOTH",
"360 70 OFFCURVE",
"297 25 OFFCURVE",
"213 25 CURVE SMOOTH",
"144 25 OFFCURVE",
"91 55 OFFCURVE",
"70 78 CURVE",
"41 41 LINE",
"68 17 OFFCURVE",
"133 -15 OFFCURVE",
"210 -15 CURVE SMOOTH",
"317 -15 OFFCURVE",
"403 36 OFFCURVE",
"403 136 CURVE SMOOTH",
"403 230 OFFCURVE",
"336 262 OFFCURVE",
"244 286 CURVE SMOOTH",
"161 308 OFFCURVE",
"104 339 OFFCURVE",
"104 396 CURVE SMOOTH",
"104 455 OFFCURVE",
"163 488 OFFCURVE",
"237 488 CURVE SMOOTH",
"292 488 OFFCURVE",
"338 464 OFFCURVE",
"357 446 CURVE",
"384 479 LINE",
"358 500 OFFCURVE",
"300 528 OFFCURVE",
"237 528 CURVE SMOOTH"
);
}
);
width = 474;
}
);
leftKerningGroup = s;
rightKerningGroup = s;
unicode = 0073;
},
{
glyphname = germandbls;
lastChange = "2020-04-04 23:49:13 +0000";
layers = (
{
anchors = (
{
name = bottom;
position = "{349, 0}";
},
{
name = top;
position = "{349, 513}";
}
);
layerId = "C45C3DCC-6617-4D42-8E57-0A4EECAD9C2E";
paths = (
{
closed = 1;
nodes = (
"375 -15 LINE",
"553 -15 OFFCURVE",
"701 106 OFFCURVE",
"701 264 CURVE SMOOTH",
"701 375 OFFCURVE",
"644 438 OFFCURVE",
"565 463 CURVE",
"625 494 OFFCURVE",
"662 555 OFFCURVE",
"662 629 CURVE SMOOTH",
"662 786 OFFCURVE",
"552 875 OFFCURVE",
"374 875 CURVE SMOOTH",
"197 875 OFFCURVE",
"73 765 OFFCURVE",
"73 560 CURVE SMOOTH",
"73 0 LINE",
"299 0 LINE",
"299 584 LINE SMOOTH",
"299 647 OFFCURVE",
"330 686 OFFCURVE",
"378 686 CURVE SMOOTH",
"429 686 OFFCURVE",
"451 659 OFFCURVE",
"451 615 CURVE SMOOTH",
"451 566 OFFCURVE",
"406 542 OFFCURVE",
"375 542 CURVE",
"375 375 LINE",
"424 375 OFFCURVE",
"461 347 OFFCURVE",
"461 283 CURVE SMOOTH",
"461 218 OFFCURVE",
"417 189 OFFCURVE",
"375 189 CURVE"
);
}
);
width = 751;
},
{
anchors = (
{
name = bottom;
position = "{251, 0}";
},
{
name = top;
position = "{251, 513}";
}
);
layerId = "9D4C2422-5CE9-4C2E-AAC7-BF869A02F5C8";
paths = (
{
closed = 1;
nodes = (
"226 -15 LINE",
"404 -15 OFFCURVE",
"508 72 OFFCURVE",
"508 230 CURVE SMOOTH",
"508 359 OFFCURVE",
"398 444 OFFCURVE",
"316 454 CURVE",
"379 465 OFFCURVE",
"479 548 OFFCURVE",
"479 668 CURVE SMOOTH",
"479 805 OFFCURVE",
"397 875 OFFCURVE",
"281 875 CURVE SMOOTH",
"154 875 OFFCURVE",
"60 772 OFFCURVE",
"60 622 CURVE",
"60 0 LINE",
"100 0 LINE",
"100 616 LINE SMOOTH",
"100 725 OFFCURVE",
"159 835 OFFCURVE",
"281 835 CURVE SMOOTH",
"363 835 OFFCURVE",
"437 796 OFFCURVE",
"437 673 CURVE SMOOTH",
"437 555 OFFCURVE",
"359 470 OFFCURVE",
"226 470 CURVE",
"226 430 LINE",
"377 430 OFFCURVE",
"467 357 OFFCURVE",
"467 228 CURVE SMOOTH",
"467 121 OFFCURVE",
"395 25 OFFCURVE",
"226 25 CURVE"
);
}
);
width = 579;
}
);
leftKerningGroup = h;
rightKerningGroup = germandbls;
unicode = 00DF;
},
{
glyphname = t;
lastChange = "2020-04-05 00:04:56 +0000";
layers = (
{
anchors = (
{
name = bottom;
position = "{260, -5}";
},
{
name = center;
position = "{190, 373}";
},
{
name = top;
position = "{212, 647}";
},
{
name = topright;
position = "{403, 513}";
}
);
layerId = "C45C3DCC-6617-4D42-8E57-0A4EECAD9C2E";
paths = (
{
closed = 1;
nodes = (
"0 313 LINE",
"78 313 LINE",
"78 180 LINE SMOOTH",
"78 48 OFFCURVE",
"161 -15 OFFCURVE",
"280 -15 CURVE SMOOTH",
"379 -15 OFFCURVE",
"461 20 OFFCURVE",
"472 29 CURVE",
"392 202 LINE",
"389 198 OFFCURVE",
"371 187 OFFCURVE",
"355 187 CURVE SMOOTH",
"324 187 OFFCURVE",
"321 217 OFFCURVE",
"321 247 CURVE SMOOTH",
"321 313 LINE",
"425 313 LINE",
"425 513 LINE",
"321 513 LINE",
"321 724 LINE",
"78 724 LINE",
"78 513 LINE",
"0 513 LINE"
);
}
);
width = 482;
},
{
anchors = (
{
name = bottom;
position = "{255, -5}";
},
{
name = center;
position = "{165, 321}";
},
{
name = top;
position = "{178, 678}";
},
{
name = topright;
position = "{317, 513}";
}
);
layerId = "9D4C2422-5CE9-4C2E-AAC7-BF869A02F5C8";
paths = (
{
closed = 1;
nodes = (
"33 473 LINE",
"145 473 LINE",
"145 116 LINE SMOOTH",
"145 24 OFFCURVE",
"194 -15 OFFCURVE",
"255 -15 CURVE SMOOTH",
"307 -15 OFFCURVE",
"335 8 OFFCURVE",
"341 15 CURVE",
"317 48 LINE",
"314 44 OFFCURVE",
"295 25 OFFCURVE",
"256 25 CURVE SMOOTH",
"218 25 OFFCURVE",
"185 50 OFFCURVE",
"185 126 CURVE SMOOTH",
"185 473 LINE",
"331 473 LINE",
"331 513 LINE",
"185 513 LINE",
"185 724 LINE",
"145 724 LINE",
"145 513 LINE",
"33 513 LINE"
);
}
);
width = 380;
}
);
leftKerningGroup = t;
rightKerningGroup = t;
unicode = 0074;
},
{
glyphname = tbar;
lastChange = "2020-04-04 23:49:43 +0000";
layers = (
{
components = (
{
name = t;
}
);
layerId = "C45C3DCC-6617-4D42-8E57-0A4EECAD9C2E";
paths = (
{
closed = 1;
nodes = (
"0 213 LINE",
"424 213 LINE",
"424 295 LINE",
"0 295 LINE"
);
}
);
width = 470;
},
{
components = (
{
name = t;
}
);
layerId = "9D4C2422-5CE9-4C2E-AAC7-BF869A02F5C8";
paths = (
{
closed = 1;
nodes = (
"34 303 LINE",
"332 303 LINE",
"332 343 LINE",
"34 343 LINE"
);
}
);
width = 380;
}
);
leftKerningGroup = t;
rightKerningGroup = t;
unicode = 0167;
},
{
glyphname = u;
lastChange = "2020-04-05 00:12:52 +0000";
layers = (
{
anchors = (
{
name = bottom;
position = "{350, 0}";
},
{
name = ogonek;
position = "{631, 10}";
},
{
name = top;
position = "{350, 513}";
},
{
name = topright;
position = "{666, 513}";
}
);
layerId = "C45C3DCC-6617-4D42-8E57-0A4EECAD9C2E";
paths = (
{
closed = 1;
nodes = (
"277 513 LINE",
"35 513 LINE",
"35 266 LINE SMOOTH",
"35 91 OFFCURVE",
"150 -15 OFFCURVE",
"350 -15 CURVE SMOOTH",
"551 -15 OFFCURVE",
"666 91 OFFCURVE",
"666 266 CURVE SMOOTH",
"666 513 LINE",
"424 513 LINE",
"424 290 LINE SMOOTH",
"424 226 OFFCURVE",
"408 185 OFFCURVE",
"350 185 CURVE SMOOTH",
"293 185 OFFCURVE",
"277 226 OFFCURVE",
"277 290 CURVE SMOOTH"
);
}
);
width = 716;
},
{
anchors = (
{
name = bottom;
position = "{288, 0}";
},
{
name = ogonek;
position = "{500, 10}";
},
{
name = top;
position = "{288, 513}";
},
{
name = topright;
position = "{503, 513}";
}
);
layerId = "9D4C2422-5CE9-4C2E-AAC7-BF869A02F5C8";
paths = (
{
closed = 1;
nodes = (
"113 513 LINE",
"73 513 LINE",
"73 226 LINE SMOOTH",
"73 89 OFFCURVE",
"150 -15 OFFCURVE",
"288 -15 CURVE SMOOTH",
"426 -15 OFFCURVE",
"503 89 OFFCURVE",
"503 226 CURVE SMOOTH",
"503 513 LINE",
"463 513 LINE",
"463 237 LINE SMOOTH",
"463 107 OFFCURVE",
"404 25 OFFCURVE",
"288 25 CURVE SMOOTH",
"172 25 OFFCURVE",
"113 107 OFFCURVE",
"113 237 CURVE SMOOTH"
);
}
);
width = 601;
}
);
leftKerningGroup = u;
rightKerningGroup = u;
unicode = 0075;
},
{
glyphname = v;
lastChange = "2019-07-15 14:41:54 +0000";
layers = (
{
anchors = (
{
name = bottom;
position = "{357, 0}";
},
{
name = top;
position = "{357, 513}";
}
);
layerId = "C45C3DCC-6617-4D42-8E57-0A4EECAD9C2E";
paths = (
{
closed = 1;
nodes = (
"213 0 LINE",
"501 0 LINE",
"713 513 LINE",
"451 513 LINE",
"357 222 LINE",
"263 513 LINE",
"0 513 LINE"
);
}
);
width = 728;
},
{
anchors = (
{
name = bottom;
position = "{270, 0}";
},
{
name = top;
position = "{270, 513}";
}
);
layerId = "9D4C2422-5CE9-4C2E-AAC7-BF869A02F5C8";
paths = (
{
closed = 1;
nodes = (
"246 0 LINE",
"294 0 LINE",
"517 513 LINE",
"474 513 LINE",
"270 40 LINE",
"65 513 LINE",
"22 513 LINE"
);
}
);
width = 565;
}
);
leftKerningGroup = v;
rightKerningGroup = v;
unicode = 0076;
},
{
glyphname = w;
lastChange = "2020-04-05 00:54:48 +0000";
layers = (
{
anchors = (
{
name = bottom;
position = "{478, 0}";
},
{
name = top;
position = "{478, 513}";
}
);
layerId = "C45C3DCC-6617-4D42-8E57-0A4EECAD9C2E";
paths = (
{
closed = 1;
nodes = (
"591 0 LINE",
"808 0 LINE",
"998 513 LINE",
"737 513 LINE",
"662 262 LINE",
"553 503 LINE",
"404 503 LINE",
"293 262 LINE",
"219 513 LINE",
"-42 513 LINE",
"149 0 LINE",
"366 0 LINE",
"478 237 LINE"
);
}
);
width = 971;
},
{
anchors = (
{
name = bottom;
position = "{366, 0}";
},
{
name = top;
position = "{366, 513}";
}
);
layerId = "9D4C2422-5CE9-4C2E-AAC7-BF869A02F5C8";
paths = (
{
closed = 1;
nodes = (
"506 0 LINE",
"566 0 LINE",
"680 513 LINE",
"637 513 LINE",
"534 47 LINE",
"396 503 LINE",
"336 503 LINE",
"198 47 LINE",
"96 513 LINE",
"53 513 LINE",
"167 0 LINE",
"227 0 LINE",
"366 458 LINE"
);
}
);
width = 757;
}
);
leftKerningGroup = w;
rightKerningGroup = w;
unicode = 0077;
},
{
glyphname = x;
lastChange = "2019-07-15 14:25:10 +0000";
layers = (
{
anchors = (
{
name = bottom;
position = "{352, 0}";
},
{
name = top;
position = "{352, 513}";
}
);
layerId = "C45C3DCC-6617-4D42-8E57-0A4EECAD9C2E";
paths = (
{
closed = 1;
nodes = (
"673 513 LINE",
"428 513 LINE",
"358 413 LINE",
"294 513 LINE",
"21 513 LINE",
"215 258 LINE",
"0 0 LINE",
"250 0 LINE",
"342 126 LINE",
"433 0 LINE",
"704 0 LINE",
"489 278 LINE"
);
}
);
width = 714;
},
{
anchors = (
{
name = bottom;
position = "{282, 0}";
},
{
name = top;
position = "{282, 513}";
}
);
layerId = "9D4C2422-5CE9-4C2E-AAC7-BF869A02F5C8";
paths = (
{
closed = 1;
nodes = (
"512 513 LINE",
"460 513 LINE",
"282 296 LINE",
"105 513 LINE",
"53 513 LINE",
"255 268 LINE",
"30 0 LINE",
"82 0 LINE",
"282 243 LINE",
"483 0 LINE",
"535 0 LINE",
"309 268 LINE"
);
}
);
width = 589;
}
);
leftKerningGroup = x;
rightKerningGroup = x;
unicode = 0078;
},
{
glyphname = y;
lastChange = "2019-07-15 14:42:06 +0000";
layers = (
{
anchors = (
{
name = bottom;
position = "{337, 0}";
},
{
name = top;
position = "{337, 513}";
}
);
layerId = "C45C3DCC-6617-4D42-8E57-0A4EECAD9C2E";
paths = (
{
closed = 1;
nodes = (
"234 513 LINE",
"-10 513 LINE",
"206 0 LINE",
"86 -260 LINE",
"331 -260 LINE",
"689 513 LINE",
"449 513 LINE",
"334 210 LINE"
);
}
);
width = 689;
},
{
anchors = (
{
name = bottom;
position = "{249, 0}";
},
{
name = top;
position = "{249, 513}";
}
);
layerId = "9D4C2422-5CE9-4C2E-AAC7-BF869A02F5C8";
paths = (
{
closed = 1;
nodes = (
"63 513 LINE",
"19 513 LINE",
"228 0 LINE",
"113 -260 LINE",
"156 -260 LINE",
"497 513 LINE",
"453 513 LINE",
"251 44 LINE"
);
}
);
width = 522;
}
);
leftKerningGroup = y;
rightKerningGroup = y;
unicode = 0079;
},
{
glyphname = z;
lastChange = "2019-07-11 13:25:14 +0000";
layers = (
{
anchors = (
{
name = bottom;
position = "{287, 0}";
},
{
name = top;
position = "{287, 513}";
}
);
layerId = "C45C3DCC-6617-4D42-8E57-0A4EECAD9C2E";
paths = (
{
closed = 1;
nodes = (
"34 347 LINE",
"209 347 LINE",
"-12 0 LINE",
"559 0 LINE",
"559 167 LINE",
"363 167 LINE",
"584 513 LINE",
"34 513 LINE"
);
}
);
width = 586;
},
{
anchors = (
{
name = bottom;
position = "{236, 0}";
},
{
name = top;
position = "{236, 513}";
}
);
layerId = "9D4C2422-5CE9-4C2E-AAC7-BF869A02F5C8";
paths = (
{
closed = 1;
nodes = (
"52 473 LINE",
"372 473 LINE",
"22 0 LINE",
"441 0 LINE",
"441 40 LINE",
"98 40 LINE",
"448 513 LINE",
"52 513 LINE"
);
}
);
width = 496;
}
);
leftKerningGroup = z;
rightKerningGroup = z;
unicode = 007A;
},
{
glyphname = ordfeminine;
lastChange = "2019-07-10 14:01:49 +0000";
layers = (
{
layerId = "C45C3DCC-6617-4D42-8E57-0A4EECAD9C2E";
paths = (
{
closed = 1;
nodes = (
"65 586 OFFCURVE",
"126 504 OFFCURVE",
"222 504 CURVE SMOOTH",
"261 504 OFFCURVE",
"295 517 OFFCURVE",
"325 545 CURVE",
"326 545 LINE",
"326 513 LINE",
"458 513 LINE",
"458 830 LINE",
"325 830 LINE",
"325 806 LINE",
"289 833 OFFCURVE",
"258 840 OFFCURVE",
"222 840 CURVE SMOOTH",
"126 840 OFFCURVE",
"65 757 OFFCURVE",
"65 671 CURVE SMOOTH"
);
},
{
closed = 1;
nodes = (
"210 702 OFFCURVE",
"235 728 OFFCURVE",
"270 728 CURVE SMOOTH",
"302 728 OFFCURVE",
"327 704 OFFCURVE",
"327 671 CURVE SMOOTH",
"327 638 OFFCURVE",
"304 615 OFFCURVE",
"270 615 CURVE SMOOTH",
"231 615 OFFCURVE",
"210 641 OFFCURVE",
"210 671 CURVE SMOOTH"
);
}
);
width = 537;
},
{
layerId = "9D4C2422-5CE9-4C2E-AAC7-BF869A02F5C8";
paths = (
{
closed = 1;
nodes = (
"86 562 OFFCURVE",
"162 503 OFFCURVE",
"247 503 CURVE SMOOTH",
"315 503 OFFCURVE",
"357 547 OFFCURVE",
"357 562 CURVE",
"358 562 LINE",
"358 513 LINE",
"401 513 LINE",
"401 830 LINE",
"357 831 LINE",
"357 783 LINE",
"356 801 OFFCURVE",
"314 840 OFFCURVE",
"247 840 CURVE SMOOTH",
"162 840 OFFCURVE",
"86 781 OFFCURVE",
"86 672 CURVE SMOOTH"
);
},
{
closed = 1;
nodes = (
"126 751 OFFCURVE",
"181 797 OFFCURVE",
"238 797 CURVE SMOOTH",
"303 797 OFFCURVE",
"359 745 OFFCURVE",
"359 672 CURVE SMOOTH",
"359 600 OFFCURVE",
"305 546 OFFCURVE",
"238 546 CURVE SMOOTH",
"182 546 OFFCURVE",
"126 592 OFFCURVE",
"126 672 CURVE SMOOTH"
);
}
);
width = 511;
}
);
leftKerningGroup = ordfeminine;
rightKerningGroup = ordfeminine;
unicode = 00AA;
},
{
glyphname = ordmasculine;
lastChange = "2019-07-10 14:01:49 +0000";
layers = (
{
layerId = "C45C3DCC-6617-4D42-8E57-0A4EECAD9C2E";
paths = (
{
closed = 1;
nodes = (
"66 574 OFFCURVE",
"143 504 OFFCURVE",
"267 504 CURVE SMOOTH",
"385 504 OFFCURVE",
"465 574 OFFCURVE",
"465 671 CURVE SMOOTH",
"465 770 OFFCURVE",
"381 840 OFFCURVE",
"267 840 CURVE SMOOTH",
"151 840 OFFCURVE",
"66 770 OFFCURVE",
"66 671 CURVE SMOOTH"
);
},
{
closed = 1;
nodes = (
"209 703 OFFCURVE",
"232 726 OFFCURVE",
"266 726 CURVE SMOOTH",
"300 726 OFFCURVE",
"323 703 OFFCURVE",
"323 671 CURVE SMOOTH",
"323 640 OFFCURVE",
"302 617 OFFCURVE",
"266 617 CURVE SMOOTH",
"229 617 OFFCURVE",
"209 640 OFFCURVE",
"209 671 CURVE SMOOTH"
);
}
);
width = 546;
},
{
layerId = "9D4C2422-5CE9-4C2E-AAC7-BF869A02F5C8";
paths = (
{
closed = 1;
nodes = (
"85 574 OFFCURVE",
"162 504 OFFCURVE",
"252 504 CURVE SMOOTH",
"336 504 OFFCURVE",
"416 574 OFFCURVE",
"416 671 CURVE SMOOTH",
"416 770 OFFCURVE",
"332 840 OFFCURVE",
"252 840 CURVE SMOOTH",
"170 840 OFFCURVE",
"85 770 OFFCURVE",
"85 671 CURVE SMOOTH"
);
},
{
closed = 1;
nodes = (
"130 748 OFFCURVE",
"191 802 OFFCURVE",
"251 802 CURVE SMOOTH",
"311 802 OFFCURVE",
"373 748 OFFCURVE",
"373 671 CURVE SMOOTH",
"373 596 OFFCURVE",
"314 541 OFFCURVE",
"251 541 CURVE SMOOTH",
"185 541 OFFCURVE",
"130 596 OFFCURVE",
"130 671 CURVE SMOOTH"
);
}
);
width = 526;
}
);
leftKerningGroup = ordmasculine;
rightKerningGroup = ordmasculine;
unicode = 00BA;
},
{
glyphname = zero;
lastChange = "2019-07-11 13:31:11 +0000";
layers = (
{
layerId = "C45C3DCC-6617-4D42-8E57-0A4EECAD9C2E";
paths = (
{
closed = 1;
nodes = (
"17 102 OFFCURVE",
"179 -15 OFFCURVE",
"369 -15 CURVE SMOOTH",
"560 -15 OFFCURVE",
"720 102 OFFCURVE",
"720 412 CURVE SMOOTH",
"720 693 OFFCURVE",
"560 840 OFFCURVE",
"369 840 CURVE SMOOTH",
"179 840 OFFCURVE",
"17 693 OFFCURVE",
"17 412 CURVE SMOOTH"
);
},
{
closed = 1;
nodes = (
"259 544 OFFCURVE",
"292 629 OFFCURVE",
"369 629 CURVE SMOOTH",
"446 629 OFFCURVE",
"478 544 OFFCURVE",
"478 412 CURVE SMOOTH",
"478 264 OFFCURVE",
"446 196 OFFCURVE",
"369 196 CURVE SMOOTH",
"292 196 OFFCURVE",
"259 263 OFFCURVE",
"259 412 CURVE SMOOTH"
);
}
);
width = 752;
},
{
layerId = "9D4C2422-5CE9-4C2E-AAC7-BF869A02F5C8";
paths = (
{
closed = 1;
nodes = (
"54 119 OFFCURVE",
"206 -15 OFFCURVE",
"345 -15 CURVE SMOOTH",
"485 -15 OFFCURVE",
"635 119 OFFCURVE",
"635 412 CURVE SMOOTH",
"635 711 OFFCURVE",
"485 840 OFFCURVE",
"345 840 CURVE SMOOTH",
"206 840 OFFCURVE",
"54 711 OFFCURVE",
"54 412 CURVE SMOOTH"
);
},
{
closed = 1;
nodes = (
"96 673 OFFCURVE",
"217 800 OFFCURVE",
"345 800 CURVE SMOOTH",
"473 800 OFFCURVE",
"593 674 OFFCURVE",
"593 412 CURVE SMOOTH",
"593 154 OFFCURVE",
"473 25 OFFCURVE",
"345 25 CURVE SMOOTH",
"217 25 OFFCURVE",
"96 154 OFFCURVE",
"96 412 CURVE SMOOTH"
);
}
);
width = 714;
}
);
leftKerningGroup = zero;
rightKerningGroup = zero;
unicode = 0030;
},
{
glyphname = one;
lastChange = "2019-07-11 13:57:02 +0000";
layers = (
{
layerId = "C45C3DCC-6617-4D42-8E57-0A4EECAD9C2E";
paths = (
{
closed = 1;
nodes = (
"128 0 LINE",
"370 0 LINE",
"370 825 LINE",
"263 825 LINE",
"5 684 LINE",
"5 456 LINE",
"128 516 LINE"
);
}
);
width = 429;
},
{
layerId = "9D4C2422-5CE9-4C2E-AAC7-BF869A02F5C8";
paths = (
{
closed = 1;
nodes = (
"195 0 LINE",
"235 0 LINE",
"235 825 LINE",
"197 825 LINE",
"42 731 LINE",
"42 688 LINE",
"195 780 LINE"
);
}
);
width = 359;
}
);
leftKerningGroup = one;
rightKerningGroup = one;
unicode = 0031;
},
{
glyphname = two;
lastChange = "2020-04-04 14:51:30 +0000";
layers = (
{
layerId = "C45C3DCC-6617-4D42-8E57-0A4EECAD9C2E";
paths = (
{
closed = 1;
nodes = (
"411 637 OFFCURVE",
"441 616 OFFCURVE",
"441 565 CURVE SMOOTH",
"441 432 OFFCURVE",
"57 195 OFFCURVE",
"48 190 CURVE",
"48 0 LINE",
"677 0 LINE",
"677 209 LINE",
"409 209 LINE",
"416 210 OFFCURVE",
"684 344 OFFCURVE",
"684 561 CURVE SMOOTH",
"684 657 OFFCURVE",
"628 840 OFFCURVE",
"359 840 CURVE SMOOTH",
"83 840 OFFCURVE",
"13 629 OFFCURVE",
"8 598 CURVE",
"213 503 LINE",
"216 514 OFFCURVE",
"267 637 OFFCURVE",
"359 637 CURVE SMOOTH"
);
}
);
width = 734;
},
{
layerId = "9D4C2422-5CE9-4C2E-AAC7-BF869A02F5C8";
paths = (
{
closed = 1;
nodes = (
"444 800 OFFCURVE",
"511 749 OFFCURVE",
"511 601 CURVE SMOOTH",
"511 411 OFFCURVE",
"163 126 OFFCURVE",
"53 37 CURVE",
"53 0 LINE",
"546 0 LINE",
"546 40 LINE",
"123 40 LINE",
"174 81 OFFCURVE",
"553 393 OFFCURVE",
"553 602 CURVE SMOOTH",
"553 772 OFFCURVE",
"460 840 OFFCURVE",
"324 840 CURVE SMOOTH",
"132 840 OFFCURVE",
"48 674 OFFCURVE",
"45 663 CURVE",
"84 648 LINE",
"86 655 OFFCURVE",
"163 800 OFFCURVE",
"324 800 CURVE SMOOTH"
);
}
);
width = 654;
}
);
leftKerningGroup = two;
rightKerningGroup = two;
unicode = 0032;
},
{
glyphname = three;
lastChange = "2020-04-04 14:49:52 +0000";
layers = (
{
layerId = "C45C3DCC-6617-4D42-8E57-0A4EECAD9C2E";
paths = (
{
closed = 1;
nodes = (
"224 545 LINE",
"234 590 OFFCURVE",
"271 649 OFFCURVE",
"335 649 CURVE SMOOTH",
"379 649 OFFCURVE",
"406 620 OFFCURVE",
"406 583 CURVE SMOOTH",
"406 543 OFFCURVE",
"379 517 OFFCURVE",
"338 517 CURVE SMOOTH",
"317 517 LINE",
"317 348 LINE",
"333 348 LINE",
"382 348 OFFCURVE",
"419 322 OFFCURVE",
"419 273 CURVE SMOOTH",
"419 223 OFFCURVE",
"385 192 OFFCURVE",
"333 192 CURVE SMOOTH",
"275 192 OFFCURVE",
"237 263 OFFCURVE",
"225 316 CURVE",
"3 208 LINE",
"28 112 OFFCURVE",
"134 -15 OFFCURVE",
"334 -15 CURVE SMOOTH",
"518 -15 OFFCURVE",
"657 100 OFFCURVE",
"657 265 CURVE SMOOTH",
"657 369 OFFCURVE",
"590 438 OFFCURVE",
"536 449 CURVE",
"578 464 OFFCURVE",
"621 526 OFFCURVE",
"621 601 CURVE SMOOTH",
"621 750 OFFCURVE",
"493 840 OFFCURVE",
"337 840 CURVE SMOOTH",
"152 840 OFFCURVE",
"53 724 OFFCURVE",
"31 637 CURVE"
);
}
);
width = 690;
},
{
layerId = "9D4C2422-5CE9-4C2E-AAC7-BF869A02F5C8";
paths = (
{
closed = 1;
nodes = (
"111 704 LINE",
"112 707 OFFCURVE",
"153 800 OFFCURVE",
"292 800 CURVE SMOOTH",
"423 800 OFFCURVE",
"486 723 OFFCURVE",
"486 626 CURVE SMOOTH",
"486 516 OFFCURVE",
"394 452 OFFCURVE",
"295 452 CURVE SMOOTH",
"274 452 LINE",
"274 413 LINE",
"290 413 LINE",
"401 413 OFFCURVE",
"505 358 OFFCURVE",
"505 231 CURVE SMOOTH",
"505 119 OFFCURVE",
"429 25 OFFCURVE",
"290 25 CURVE SMOOTH",
"170 25 OFFCURVE",
"99 99 OFFCURVE",
"78 155 CURVE",
"42 133 LINE",
"66 69 OFFCURVE",
"149 -15 OFFCURVE",
"291 -15 CURVE SMOOTH",
"447 -15 OFFCURVE",
"548 94 OFFCURVE",
"548 231 CURVE SMOOTH",
"548 357 OFFCURVE",
"452 429 OFFCURVE",
"374 434 CURVE",
"452 444 OFFCURVE",
"527 521 OFFCURVE",
"527 628 CURVE SMOOTH",
"527 741 OFFCURVE",
"452 840 OFFCURVE",
"294 840 CURVE SMOOTH",
"137 840 OFFCURVE",
"76 737 OFFCURVE",
"71 722 CURVE"
);
}
);
width = 625;
}
);
leftKerningGroup = three;
rightKerningGroup = three;
unicode = 0033;
},
{
glyphname = four;
lastChange = "2020-04-04 14:49:43 +0000";
layers = (
{
layerId = "C45C3DCC-6617-4D42-8E57-0A4EECAD9C2E";
paths = (
{
closed = 1;
nodes = (
"287 825 LINE",
"-6 363 LINE",
"-6 174 LINE",
"329 174 LINE",
"329 0 LINE",
"570 0 LINE",
"570 174 LINE",
"666 174 LINE",
"666 383 LINE",
"570 383 LINE",
"570 825 LINE"
);
},
{
closed = 1;
nodes = (
"233 383 LINE",
"327 532 LINE",
"329 532 LINE",
"329 383 LINE"
);
}
);
width = 686;
},
{
layerId = "9D4C2422-5CE9-4C2E-AAC7-BF869A02F5C8";
paths = (
{
closed = 1;
nodes = (
"394 825 LINE",
"33 212 LINE",
"33 174 LINE",
"386 174 LINE",
"386 0 LINE",
"426 0 LINE",
"426 174 LINE",
"520 174 LINE",
"520 214 LINE",
"426 214 LINE",
"426 825 LINE"
);
},
{
closed = 1;
nodes = (
"83 214 LINE",
"386 729 LINE",
"386 729 LINE",
"386 214 LINE"
);
}
);
width = 581;
}
);
leftKerningGroup = four;
rightKerningGroup = four;
unicode = 0034;
},
{
glyphname = five;
lastChange = "2020-04-04 14:49:56 +0000";
layers = (
{
layerId = "C45C3DCC-6617-4D42-8E57-0A4EECAD9C2E";
paths = (
{
closed = 1;
nodes = (
"10 179 LINE",
"48 75 OFFCURVE",
"143 -15 OFFCURVE",
"327 -15 CURVE SMOOTH",
"504 -15 OFFCURVE",
"645 101 OFFCURVE",
"645 292 CURVE SMOOTH",
"645 480 OFFCURVE",
"511 555 OFFCURVE",
"392 555 CURVE SMOOTH",
"341 555 OFFCURVE",
"295 539 OFFCURVE",
"288 531 CURVE",
"305 616 LINE",
"604 616 LINE",
"604 825 LINE",
"104 825 LINE",
"28 390 LINE",
"225 317 LINE",
"234 333 OFFCURVE",
"264 365 OFFCURVE",
"317 365 CURVE SMOOTH",
"371 365 OFFCURVE",
"401 330 OFFCURVE",
"401 277 CURVE SMOOTH",
"401 223 OFFCURVE",
"371 185 OFFCURVE",
"317 185 CURVE SMOOTH",
"264 185 OFFCURVE",
"234 210 OFFCURVE",
"216 267 CURVE"
);
}
);
width = 685;
},
{
layerId = "9D4C2422-5CE9-4C2E-AAC7-BF869A02F5C8";
paths = (
{
closed = 1;
nodes = (
"69 115 LINE",
"76 97 OFFCURVE",
"138 -15 OFFCURVE",
"303 -15 CURVE SMOOTH",
"478 -15 OFFCURVE",
"566 106 OFFCURVE",
"565 270 CURVE SMOOTH",
"564 435 OFFCURVE",
"464 521 OFFCURVE",
"337 521 CURVE SMOOTH",
"217 521 OFFCURVE",
"160 455 OFFCURVE",
"155 442 CURVE",
"205 785 LINE",
"533 785 LINE",
"533 825 LINE",
"166 825 LINE",
"99 371 LINE",
"141 360 LINE",
"161 412 OFFCURVE",
"227 481 OFFCURVE",
"333 481 CURVE SMOOTH",
"446 481 OFFCURVE",
"523 407 OFFCURVE",
"525 270 CURVE SMOOTH",
"527 121 OFFCURVE",
"441 25 OFFCURVE",
"303 25 CURVE SMOOTH",
"165 25 OFFCURVE",
"113 124 OFFCURVE",
"106 140 CURVE"
);
}
);
width = 648;
}
);
leftKerningGroup = five;
rightKerningGroup = five;
unicode = 0035;
},
{
glyphname = six;
lastChange = "2019-07-11 14:04:07 +0000";
layers = (
{
layerId = "C45C3DCC-6617-4D42-8E57-0A4EECAD9C2E";
paths = (
{
closed = 1;
nodes = (
"383 558 OFFCURVE",
"374 554 OFFCURVE",
"369 550 CURVE",
"611 825 LINE",
"330 825 LINE",
"138 594 LINE SMOOTH",
"82 527 OFFCURVE",
"27 433 OFFCURVE",
"27 287 CURVE SMOOTH",
"27 93 OFFCURVE",
"172 -15 OFFCURVE",
"349 -15 CURVE SMOOTH",
"525 -15 OFFCURVE",
"667 108 OFFCURVE",
"667 282 CURVE SMOOTH",
"667 458 OFFCURVE",
"530 558 OFFCURVE",
"408 558 CURVE"
);
},
{
closed = 1;
nodes = (
"295 180 OFFCURVE",
"253 222 OFFCURVE",
"253 274 CURVE SMOOTH",
"253 325 OFFCURVE",
"295 367 OFFCURVE",
"347 367 CURVE SMOOTH",
"398 367 OFFCURVE",
"440 325 OFFCURVE",
"440 274 CURVE SMOOTH",
"440 222 OFFCURVE",
"398 180 OFFCURVE",
"347 180 CURVE SMOOTH"
);
}
);
width = 714;
},
{
layerId = "9D4C2422-5CE9-4C2E-AAC7-BF869A02F5C8";
paths = (
{
closed = 1;
nodes = (
"249 527 OFFCURVE",
"185 496 OFFCURVE",
"160 468 CURVE",
"446 825 LINE",
"395 825 LINE",
"154 520 LINE SMOOTH",
"97 448 OFFCURVE",
"52 376 OFFCURVE",
"52 267 CURVE SMOOTH",
"52 103 OFFCURVE",
"168 -15 OFFCURVE",
"323 -15 CURVE SMOOTH",
"473 -15 OFFCURVE",
"599 100 OFFCURVE",
"599 255 CURVE SMOOTH",
"599 410 OFFCURVE",
"481 527 OFFCURVE",
"333 527 CURVE SMOOTH"
);
},
{
closed = 1;
nodes = (
"198 24 OFFCURVE",
"94 128 OFFCURVE",
"94 257 CURVE SMOOTH",
"94 385 OFFCURVE",
"198 489 OFFCURVE",
"327 489 CURVE SMOOTH",
"455 489 OFFCURVE",
"559 385 OFFCURVE",
"559 257 CURVE SMOOTH",
"559 128 OFFCURVE",
"455 24 OFFCURVE",
"327 24 CURVE SMOOTH"
);
}
);
width = 675;
}
);
leftKerningGroup = six;
rightKerningGroup = six;
unicode = 0036;
},
{
glyphname = seven;
lastChange = "2019-07-11 14:06:00 +0000";
layers = (
{
layerId = "C45C3DCC-6617-4D42-8E57-0A4EECAD9C2E";
paths = (
{
closed = 1;
nodes = (
"58 616 LINE",
"411 616 LINE",
"48 0 LINE",
"314 0 LINE",
"693 666 LINE",
"693 825 LINE",
"58 825 LINE"
);
}
);
width = 703;
},
{
layerId = "9D4C2422-5CE9-4C2E-AAC7-BF869A02F5C8";
paths = (
{
closed = 1;
nodes = (
"80 785 LINE",
"514 785 LINE",
"67 0 LINE",
"114 0 LINE",
"562 789 LINE",
"562 825 LINE",
"80 825 LINE"
);
}
);
width = 623;
}
);
leftKerningGroup = seven;
rightKerningGroup = seven;
unicode = 0037;
},
{
glyphname = eight;
lastChange = "2019-07-11 14:11:31 +0000";
layers = (
{
layerId = "C45C3DCC-6617-4D42-8E57-0A4EECAD9C2E";
paths = (
{
closed = 1;
nodes = (
"516 -15 OFFCURVE",
"671 84 OFFCURVE",
"671 232 CURVE SMOOTH",
"671 342 OFFCURVE",
"612 403 OFFCURVE",
"531 445 CURVE",
"592 485 OFFCURVE",
"632 529 OFFCURVE",
"632 620 CURVE SMOOTH",
"632 757 OFFCURVE",
"509 840 OFFCURVE",
"349 840 CURVE SMOOTH",
"193 840 OFFCURVE",
"62 757 OFFCURVE",
"62 620 CURVE SMOOTH",
"62 529 OFFCURVE",
"104 485 OFFCURVE",
"167 445 CURVE",
"85 403 OFFCURVE",
"27 342 OFFCURVE",
"27 232 CURVE SMOOTH",
"27 84 OFFCURVE",
"184 -15 OFFCURVE",
"350 -15 CURVE SMOOTH"
);
},
{
closed = 1;
nodes = (
"310 194 OFFCURVE",
"278 226 OFFCURVE",
"278 265 CURVE SMOOTH",
"278 304 OFFCURVE",
"310 336 OFFCURVE",
"349 336 CURVE SMOOTH",
"388 336 OFFCURVE",
"420 304 OFFCURVE",
"420 265 CURVE SMOOTH",
"420 226 OFFCURVE",
"388 194 OFFCURVE",
"349 194 CURVE SMOOTH"
);
},
{
closed = 1;
nodes = (
"312 519 OFFCURVE",
"281 550 OFFCURVE",
"281 588 CURVE SMOOTH",
"281 625 OFFCURVE",
"312 656 OFFCURVE",
"350 656 CURVE SMOOTH",
"387 656 OFFCURVE",
"418 625 OFFCURVE",
"418 588 CURVE SMOOTH",
"418 550 OFFCURVE",
"387 519 OFFCURVE",
"350 519 CURVE SMOOTH"
);
}
);
width = 712;
},
{
layerId = "9D4C2422-5CE9-4C2E-AAC7-BF869A02F5C8";
paths = (
{
closed = 1;
nodes = (
"474 -15 OFFCURVE",
"570 93 OFFCURVE",
"570 223 CURVE SMOOTH",
"570 351 OFFCURVE",
"491 419 OFFCURVE",
"407 445 CURVE",
"471 470 OFFCURVE",
"533 526 OFFCURVE",
"533 634 CURVE SMOOTH",
"533 754 OFFCURVE",
"443 840 OFFCURVE",
"323 840 CURVE SMOOTH",
"203 840 OFFCURVE",
"112 754 OFFCURVE",
"112 634 CURVE SMOOTH",
"112 526 OFFCURVE",
"179 467 OFFCURVE",
"239 445 CURVE",
"154 419 OFFCURVE",
"76 351 OFFCURVE",
"76 223 CURVE SMOOTH",
"76 93 OFFCURVE",
"174 -15 OFFCURVE",
"324 -15 CURVE SMOOTH"
);
},
{
closed = 1;
nodes = (
"209 25 OFFCURVE",
"119 111 OFFCURVE",
"119 224 CURVE SMOOTH",
"119 337 OFFCURVE",
"209 423 OFFCURVE",
"323 423 CURVE SMOOTH",
"436 423 OFFCURVE",
"527 337 OFFCURVE",
"527 224 CURVE SMOOTH",
"527 111 OFFCURVE",
"436 25 OFFCURVE",
"323 25 CURVE SMOOTH"
);
},
{
closed = 1;
nodes = (
"230 463 OFFCURVE",
"154 539 OFFCURVE",
"154 632 CURVE SMOOTH",
"154 724 OFFCURVE",
"230 800 OFFCURVE",
"323 800 CURVE SMOOTH",
"415 800 OFFCURVE",
"491 724 OFFCURVE",
"491 632 CURVE SMOOTH",
"491 539 OFFCURVE",
"415 463 OFFCURVE",
"323 463 CURVE SMOOTH"
);
}
);
width = 672;
}
);
leftKerningGroup = eight;
rightKerningGroup = eight;
unicode = 0038;
},
{
glyphname = fraction;
lastChange = "2019-07-11 14:12:37 +0000";
layers = (
{
layerId = "C45C3DCC-6617-4D42-8E57-0A4EECAD9C2E";
paths = (
{
closed = 1;
nodes = (
"-165 0 LINE",
"-20 0 LINE",
"460 825 LINE",
"315 825 LINE"
);
}
);
width = 289;
},
{
layerId = "9D4C2422-5CE9-4C2E-AAC7-BF869A02F5C8";
paths = (
{
closed = 1;
nodes = (
"-150 0 LINE",
"-121 0 LINE",
"359 825 LINE",
"330 825 LINE"
);
}
);
width = 249;
}
);
leftKerningGroup = fraction;
rightKerningGroup = fraction;
unicode = 2044;
},
{
glyphname = period;
lastChange = "2019-07-15 14:41:03 +0000";
layers = (
{
layerId = "C45C3DCC-6617-4D42-8E57-0A4EECAD9C2E";
paths = (
{
closed = 1;
nodes = (
"253 -15 OFFCURVE",
"313 45 OFFCURVE",
"313 119 CURVE SMOOTH",
"313 193 OFFCURVE",
"253 253 OFFCURVE",
"179 253 CURVE SMOOTH",
"105 253 OFFCURVE",
"45 193 OFFCURVE",
"45 119 CURVE SMOOTH",
"45 45 OFFCURVE",
"105 -15 OFFCURVE",
"179 -15 CURVE SMOOTH"
);
}
);
width = 374;
},
{
layerId = "9D4C2422-5CE9-4C2E-AAC7-BF869A02F5C8";
paths = (
{
closed = 1;
nodes = (
"217 -15 OFFCURVE",
"243 11 OFFCURVE",
"243 44 CURVE SMOOTH",
"243 78 OFFCURVE",
"217 104 OFFCURVE",
"184 104 CURVE SMOOTH",
"151 104 OFFCURVE",
"125 78 OFFCURVE",
"125 44 CURVE SMOOTH",
"125 11 OFFCURVE",
"151 -15 OFFCURVE",
"184 -15 CURVE SMOOTH"
);
}
);
width = 394;
}
);
leftKerningGroup = period;
rightKerningGroup = period;
unicode = 002E;
},
{
glyphname = comma;
lastChange = "2020-04-04 14:49:59 +0000";
layers = (
{
layerId = "C45C3DCC-6617-4D42-8E57-0A4EECAD9C2E";
paths = (
{
closed = 1;
nodes = (
"108 251 OFFCURVE",
"48 192 OFFCURVE",
"48 120 CURVE SMOOTH",
"48 39 OFFCURVE",
"103 -7 OFFCURVE",
"159 -7 CURVE SMOOTH",
"177 -7 OFFCURVE",
"187 -5 OFFCURVE",
"195 0 CURVE",
"175 -61 OFFCURVE",
"107 -117 OFFCURVE",
"61 -142 CURVE",
"118 -209 LINE",
"219 -153 OFFCURVE",
"309 -22 OFFCURVE",
"309 102 CURVE SMOOTH",
"309 202 OFFCURVE",
"250 251 OFFCURVE",
"179 251 CURVE SMOOTH"
);
}
);
width = 374;
},
{
layerId = "9D4C2422-5CE9-4C2E-AAC7-BF869A02F5C8";
paths = (
{
closed = 1;
nodes = (
"113 110 OFFCURVE",
"85 83 OFFCURVE",
"85 42 CURVE SMOOTH",
"85 13 OFFCURVE",
"111 -18 OFFCURVE",
"147 -19 CURVE SMOOTH",
"156 -19 OFFCURVE",
"166 -17 OFFCURVE",
"177 -12 CURVE",
"169 -53 OFFCURVE",
"122 -87 OFFCURVE",
"88 -102 CURVE",
"121 -131 LINE",
"177 -101 OFFCURVE",
"227 -42 OFFCURVE",
"227 35 CURVE SMOOTH",
"227 77 OFFCURVE",
"194 110 OFFCURVE",
"153 110 CURVE SMOOTH"
);
}
);
width = 332;
}
);
leftKerningGroup = period;
rightKerningGroup = period;
unicode = 002C;
},
{
glyphname = exclam;
lastChange = "2019-07-11 15:07:14 +0000";
layers = (
{
layerId = "C45C3DCC-6617-4D42-8E57-0A4EECAD9C2E";
paths = (
{
closed = 1;
nodes = (
"262 297 LINE",
"310 860 LINE",
"48 860 LINE",
"97 297 LINE"
);
},
{
closed = 1;
nodes = (
"254 -15 OFFCURVE",
"314 45 OFFCURVE",
"314 119 CURVE SMOOTH",
"314 193 OFFCURVE",
"254 254 OFFCURVE",
"179 254 CURVE SMOOTH",
"105 254 OFFCURVE",
"45 193 OFFCURVE",
"45 119 CURVE SMOOTH",
"45 45 OFFCURVE",
"106 -15 OFFCURVE",
"179 -15 CURVE SMOOTH"
);
}
);
width = 374;
},
{
layerId = "9D4C2422-5CE9-4C2E-AAC7-BF869A02F5C8";
paths = (
{
closed = 1;
nodes = (
"199 195 LINE",
"211 860 LINE",
"159 860 LINE",
"170 195 LINE"
);
},
{
closed = 1;
nodes = (
"217 -15 OFFCURVE",
"243 11 OFFCURVE",
"243 44 CURVE SMOOTH",
"243 78 OFFCURVE",
"217 104 OFFCURVE",
"184 104 CURVE SMOOTH",
"151 104 OFFCURVE",
"125 78 OFFCURVE",
"125 44 CURVE SMOOTH",
"125 11 OFFCURVE",
"151 -15 OFFCURVE",
"184 -15 CURVE SMOOTH"
);
}
);
width = 394;
}
);
leftKerningGroup = exclam;
rightKerningGroup = exclam;
unicode = 0021;
},
{
glyphname = question;
lastChange = "2019-07-11 15:13:14 +0000";
layers = (
{
layerId = "C45C3DCC-6617-4D42-8E57-0A4EECAD9C2E";
paths = (
{
closed = 1;
nodes = (
"388 297 LINE",
"388 326 LINE SMOOTH",
"388 377 OFFCURVE",
"403 411 OFFCURVE",
"448 436 CURVE SMOOTH",
"492 461 OFFCURVE",
"592 522 OFFCURVE",
"592 633 CURVE SMOOTH",
"592 763 OFFCURVE",
"466 840 OFFCURVE",
"306 840 CURVE SMOOTH",
"71 840 OFFCURVE",
"-3 663 OFFCURVE",
"-6 638 CURVE",
"193 560 LINE",
"205 593 OFFCURVE",
"226 639 OFFCURVE",
"274 639 CURVE SMOOTH",
"312 639 OFFCURVE",
"329 626 OFFCURVE",
"329 594 CURVE SMOOTH",
"329 558 OFFCURVE",
"295 533 OFFCURVE",
"256 513 CURVE SMOOTH",
"209 489 OFFCURVE",
"178 447 OFFCURVE",
"178 389 CURVE SMOOTH",
"178 297 LINE"
);
},
{
closed = 1;
nodes = (
"362 -15 OFFCURVE",
"423 45 OFFCURVE",
"423 119 CURVE SMOOTH",
"423 194 OFFCURVE",
"362 254 OFFCURVE",
"287 254 CURVE SMOOTH",
"214 254 OFFCURVE",
"153 194 OFFCURVE",
"153 119 CURVE SMOOTH",
"153 45 OFFCURVE",
"214 -15 OFFCURVE",
"287 -15 CURVE SMOOTH"
);
}
);
width = 621;
},
{
layerId = "9D4C2422-5CE9-4C2E-AAC7-BF869A02F5C8";
paths = (
{
closed = 1;
nodes = (
"284 195 LINE",
"284 352 LINE SMOOTH",
"284 398 OFFCURVE",
"289 412 OFFCURVE",
"321 433 CURVE SMOOTH",
"414 495 OFFCURVE",
"488 560 OFFCURVE",
"488 661 CURVE SMOOTH",
"488 767 OFFCURVE",
"406 840 OFFCURVE",
"267 840 CURVE SMOOTH",
"126 840 OFFCURVE",
"48 736 OFFCURVE",
"41 699 CURVE",
"78 680 LINE",
"90 725 OFFCURVE",
"157 800 OFFCURVE",
"266 800 CURVE SMOOTH",
"374 800 OFFCURVE",
"448 754 OFFCURVE",
"448 661 CURVE SMOOTH",
"448 566 OFFCURVE",
"364 501 OFFCURVE",
"301 462 CURVE SMOOTH",
"264 439 OFFCURVE",
"244 423 OFFCURVE",
"244 377 CURVE SMOOTH",
"244 195 LINE"
);
},
{
closed = 1;
nodes = (
"296 -15 OFFCURVE",
"322 11 OFFCURVE",
"322 44 CURVE SMOOTH",
"322 78 OFFCURVE",
"296 104 OFFCURVE",
"264 104 CURVE SMOOTH",
"231 104 OFFCURVE",
"205 78 OFFCURVE",
"205 44 CURVE SMOOTH",
"205 11 OFFCURVE",
"231 -15 OFFCURVE",
"264 -15 CURVE SMOOTH"
);
}
);
width = 557;
}
);
leftKerningGroup = question;
rightKerningGroup = question;
unicode = 003F;
},
{
glyphname = bullet;
lastChange = "2019-07-10 14:01:49 +0000";
layers = (
{
layerId = "C45C3DCC-6617-4D42-8E57-0A4EECAD9C2E";
paths = (
{
closed = 1;
nodes = (
"233 591 OFFCURVE",
"129 485 OFFCURVE",
"129 356 CURVE SMOOTH",
"129 228 OFFCURVE",
"233 123 OFFCURVE",
"362 123 CURVE SMOOTH",
"491 123 OFFCURVE",
"597 227 OFFCURVE",
"597 356 CURVE SMOOTH",
"597 486 OFFCURVE",
"491 591 OFFCURVE",
"362 591 CURVE SMOOTH"
);
}
);
width = 741;
},
{
layerId = "9D4C2422-5CE9-4C2E-AAC7-BF869A02F5C8";
paths = (
{
closed = 1;
nodes = (
"233 448 OFFCURVE",
"193 408 OFFCURVE",
"193 356 CURVE SMOOTH",
"193 306 OFFCURVE",
"233 266 OFFCURVE",
"283 266 CURVE SMOOTH",
"335 266 OFFCURVE",
"375 306 OFFCURVE",
"375 356 CURVE SMOOTH",
"375 408 OFFCURVE",
"335 448 OFFCURVE",
"283 448 CURVE SMOOTH"
);
}
);
width = 593;
}
);
leftKerningGroup = bullet;
rightKerningGroup = bullet;
unicode = 2022;
},
{
glyphname = asterisk;
lastChange = "2019-07-11 15:14:27 +0000";
layers = (
{
layerId = "C45C3DCC-6617-4D42-8E57-0A4EECAD9C2E";
paths = (
{
closed = 1;
nodes = (
"301 865 LINE",
"196 865 LINE",
"196 754 LINE",
"87 786 LINE",
"56 691 LINE",
"173 654 LINE",
"94 566 LINE",
"183 502 LINE",
"249 588 LINE",
"317 503 LINE",
"405 566 LINE",
"325 654 LINE",
"441 691 LINE",
"410 786 LINE",
"301 754 LINE"
);
}
);
width = 513;
},
{
layerId = "9D4C2422-5CE9-4C2E-AAC7-BF869A02F5C8";
paths = (
{
closed = 1;
nodes = (
"274 848 LINE",
"235 848 LINE",
"234 713 LINE",
"106 757 LINE",
"94 720 LINE",
"224 675 LINE",
"142 564 LINE",
"173 543 LINE",
"254 651 LINE",
"329 542 LINE",
"360 563 LINE",
"285 675 LINE",
"415 720 LINE",
"402 757 LINE",
"275 713 LINE"
);
}
);
width = 533;
}
);
leftKerningGroup = asterisk;
rightKerningGroup = asterisk;
unicode = 002A;
},
{
glyphname = numbersign;
lastChange = "2020-04-05 00:16:07 +0000";
layers = (
{
layerId = "C45C3DCC-6617-4D42-8E57-0A4EECAD9C2E";
paths = (
{
closed = 1;
nodes = (
"85 0 LINE",
"247 0 LINE",
"465 825 LINE",
"303 825 LINE"
);
},
{
closed = 1;
nodes = (
"365 0 LINE",
"527 0 LINE",
"745 825 LINE",
"583 825 LINE"
);
},
{
closed = 1;
nodes = (
"115 468 LINE",
"735 468 LINE",
"781 623 LINE",
"161 623 LINE"
);
},
{
closed = 1;
nodes = (
"50 203 LINE",
"670 203 LINE",
"716 358 LINE",
"96 358 LINE"
);
}
);
width = 858;
},
{
layerId = "9D4C2422-5CE9-4C2E-AAC7-BF869A02F5C8";
paths = (
{
closed = 1;
nodes = (
"146 0 LINE",
"180 0 LINE",
"398 825 LINE",
"364 825 LINE"
);
},
{
closed = 1;
nodes = (
"360 0 LINE",
"394 0 LINE",
"612 825 LINE",
"578 825 LINE"
);
},
{
closed = 1;
nodes = (
"150 536 LINE",
"662 536 LINE",
"674 572 LINE",
"162 572 LINE"
);
},
{
closed = 1;
nodes = (
"85 255 LINE",
"597 255 LINE",
"609 290 LINE",
"97 290 LINE"
);
}
);
width = 759;
}
);
leftKerningGroup = numbersign;
rightKerningGroup = numbersign;
unicode = 0023;
},
{
glyphname = slash;
lastChange = "2019-07-14 14:19:14 +0000";
layers = (
{
layerId = "C45C3DCC-6617-4D42-8E57-0A4EECAD9C2E";
paths = (
{
closed = 1;
nodes = (
"10 -120 LINE",
"199 -120 LINE",
"611 860 LINE",
"422 860 LINE"
);
}
);
width = 636;
},
{
layerId = "9D4C2422-5CE9-4C2E-AAC7-BF869A02F5C8";
paths = (
{
closed = 1;
nodes = (
"43 -120 LINE",
"88 -120 LINE",
"500 860 LINE",
"455 860 LINE"
);
}
);
width = 576;
}
);
leftKerningGroup = slash;
rightKerningGroup = slash;
unicode = 002F;
},
{
glyphname = backslash;
lastChange = "2019-07-11 15:15:11 +0000";
layers = (
{
layerId = "C45C3DCC-6617-4D42-8E57-0A4EECAD9C2E";
paths = (
{
closed = 1;
nodes = (
"199 860 LINE",
"10 860 LINE",
"422 0 LINE",
"611 0 LINE"
);
}
);
width = 636;
},
{
layerId = "9D4C2422-5CE9-4C2E-AAC7-BF869A02F5C8";
paths = (
{
closed = 1;
nodes = (
"96 860 LINE",
"50 860 LINE",
"462 0 LINE",
"508 0 LINE"
);
}
);
width = 576;
}
);
leftKerningGroup = backslash;
rightKerningGroup = backslash;
unicode = 005C;
},
{
glyphname = parenleft;
lastChange = "2020-04-04 14:49:59 +0000";
layers = (
{
layerId = "C45C3DCC-6617-4D42-8E57-0A4EECAD9C2E";
paths = (
{
closed = 1;
nodes = (
"366 -207 LINE",
"315 -136 OFFCURVE",
"248 50 OFFCURVE",
"248 297 CURVE SMOOTH",
"248 558 OFFCURVE",
"326 748 OFFCURVE",
"384 819 CURVE",
"244 877 LINE",
"156 781 OFFCURVE",
"40 557 OFFCURVE",
"40 297 CURVE SMOOTH",
"40 44 OFFCURVE",
"145 -172 OFFCURVE",
"224 -265 CURVE"
);
}
);
width = 428;
},
{
layerId = "9D4C2422-5CE9-4C2E-AAC7-BF869A02F5C8";
paths = (
{
closed = 1;
nodes = (
"268 -219 LINE",
"204 -138 OFFCURVE",
"118 58 OFFCURVE",
"118 297 CURVE SMOOTH",
"118 551 OFFCURVE",
"205 758 OFFCURVE",
"270 843 CURVE",
"235 870 LINE",
"167 777 OFFCURVE",
"76 557 OFFCURVE",
"76 297 CURVE SMOOTH",
"76 44 OFFCURVE",
"168 -162 OFFCURVE",
"238 -248 CURVE"
);
}
);
width = 358;
}
);
leftKerningGroup = parenleft;
rightKerningGroup = parenleft;
unicode = 0028;
},
{
glyphname = braceleft;
lastChange = "2019-07-11 15:18:13 +0000";
layers = (
{
layerId = "C45C3DCC-6617-4D42-8E57-0A4EECAD9C2E";
paths = (
{
closed = 1;
nodes = (
"49 228 LINE",
"83 228 OFFCURVE",
"115 214 OFFCURVE",
"115 168 CURVE SMOOTH",
"115 -79 LINE SMOOTH",
"115 -162 OFFCURVE",
"164 -260 OFFCURVE",
"292 -260 CURVE SMOOTH",
"406 -260 LINE",
"406 -85 LINE",
"358 -85 LINE SMOOTH",
"321 -85 OFFCURVE",
"303 -67 OFFCURVE",
"303 -27 CURVE SMOOTH",
"303 193 LINE SMOOTH",
"303 245 OFFCURVE",
"289 276 OFFCURVE",
"227 300 CURVE",
"286 323 OFFCURVE",
"303 350 OFFCURVE",
"303 407 CURVE SMOOTH",
"303 627 LINE SMOOTH",
"303 667 OFFCURVE",
"321 685 OFFCURVE",
"358 685 CURVE SMOOTH",
"406 685 LINE",
"406 860 LINE",
"292 860 LINE SMOOTH",
"164 860 OFFCURVE",
"115 762 OFFCURVE",
"115 679 CURVE SMOOTH",
"115 432 LINE SMOOTH",
"115 386 OFFCURVE",
"83 372 OFFCURVE",
"49 372 CURVE"
);
}
);
width = 471;
},
{
layerId = "9D4C2422-5CE9-4C2E-AAC7-BF869A02F5C8";
paths = (
{
closed = 1;
nodes = (
"79 280 LINE",
"147 280 OFFCURVE",
"162 234 OFFCURVE",
"162 188 CURVE SMOOTH",
"162 -129 LINE SMOOTH",
"162 -214 OFFCURVE",
"183 -260 OFFCURVE",
"271 -260 CURVE SMOOTH",
"318 -260 LINE",
"318 -220 LINE",
"271 -220 LINE SMOOTH",
"213 -220 OFFCURVE",
"203 -189 OFFCURVE",
"203 -152 CURVE SMOOTH",
"203 193 LINE SMOOTH",
"203 248 OFFCURVE",
"177 293 OFFCURVE",
"130 299 CURVE",
"177 304 OFFCURVE",
"203 351 OFFCURVE",
"203 407 CURVE SMOOTH",
"203 752 LINE SMOOTH",
"203 800 OFFCURVE",
"224 820 OFFCURVE",
"271 820 CURVE SMOOTH",
"318 820 LINE",
"318 860 LINE",
"271 860 LINE SMOOTH",
"183 860 OFFCURVE",
"162 814 OFFCURVE",
"162 729 CURVE SMOOTH",
"162 412 LINE SMOOTH",
"162 366 OFFCURVE",
"147 321 OFFCURVE",
"79 321 CURVE"
);
}
);
width = 421;
}
);
leftKerningGroup = braceleft;
rightKerningGroup = braceleft;
unicode = 007B;
},
{
glyphname = bracketleft;
lastChange = "2019-07-11 15:18:36 +0000";
layers = (
{
layerId = "C45C3DCC-6617-4D42-8E57-0A4EECAD9C2E";
paths = (
{
closed = 1;
nodes = (
"405 -260 LINE",
"405 -90 LINE",
"236 -90 LINE",
"236 690 LINE",
"405 690 LINE",
"405 860 LINE",
"47 860 LINE",
"47 -260 LINE"
);
}
);
width = 467;
},
{
layerId = "9D4C2422-5CE9-4C2E-AAC7-BF869A02F5C8";
paths = (
{
closed = 1;
nodes = (
"302 -260 LINE",
"302 -220 LINE",
"120 -220 LINE",
"120 820 LINE",
"302 820 LINE",
"302 860 LINE",
"80 860 LINE",
"80 -260 LINE"
);
}
);
width = 407;
}
);
leftKerningGroup = bracketleft;
rightKerningGroup = bracketleft;
unicode = 005B;
},
{
glyphname = hyphen;
lastChange = "2019-07-15 14:41:35 +0000";
layers = (
{
layerId = "C45C3DCC-6617-4D42-8E57-0A4EECAD9C2E";
paths = (
{
closed = 1;
nodes = (
"387 180 LINE",
"387 388 LINE",
"65 388 LINE",
"65 180 LINE"
);
}
);
width = 467;
},
{
layerId = "9D4C2422-5CE9-4C2E-AAC7-BF869A02F5C8";
paths = (
{
closed = 1;
nodes = (
"392 266 LINE",
"392 304 LINE",
"70 304 LINE",
"70 266 LINE"
);
}
);
width = 487;
}
);
leftKerningGroup = hyphen;
rightKerningGroup = hyphen;
unicode = 002D;
},
{
glyphname = endash;
lastChange = "2019-07-11 15:18:53 +0000";
layers = (
{
layerId = "C45C3DCC-6617-4D42-8E57-0A4EECAD9C2E";
paths = (
{
closed = 1;
nodes = (
"557 180 LINE",
"557 388 LINE",
"-6 388 LINE",
"-6 180 LINE"
);
}
);
width = 565;
},
{
layerId = "9D4C2422-5CE9-4C2E-AAC7-BF869A02F5C8";
paths = (
{
closed = 1;
nodes = (
"494 266 LINE",
"494 304 LINE",
"16 304 LINE",
"16 266 LINE"
);
}
);
width = 535;
}
);
leftKerningGroup = hyphen;
rightKerningGroup = hyphen;
unicode = 2013;
},
{
glyphname = emdash;
lastChange = "2019-07-11 15:18:58 +0000";
layers = (
{
layerId = "C45C3DCC-6617-4D42-8E57-0A4EECAD9C2E";
paths = (
{
closed = 1;
nodes = (
"1117 180 LINE",
"1117 388 LINE",
"-26 388 LINE",
"-26 180 LINE"
);
}
);
width = 1105;
},
{
layerId = "9D4C2422-5CE9-4C2E-AAC7-BF869A02F5C8";
paths = (
{
closed = 1;
nodes = (
"932 266 LINE",
"932 304 LINE",
"27 304 LINE",
"27 266 LINE"
);
}
);
width = 985;
}
);
leftKerningGroup = hyphen;
rightKerningGroup = hyphen;
unicode = 2014;
},
{
glyphname = underscore;
lastChange = "2020-04-04 23:51:05 +0000";
layers = (
{
layerId = "C45C3DCC-6617-4D42-8E57-0A4EECAD9C2E";
paths = (
{
closed = 1;
nodes = (
"532 -139 LINE",
"532 -6 LINE",
"2 -6 LINE",
"2 -139 LINE"
);
}
);
width = 538;
},
{
layerId = "9D4C2422-5CE9-4C2E-AAC7-BF869A02F5C8";
paths = (
{
closed = 1;
nodes = (
"477 -79 LINE",
"477 -40 LINE",
"17 -40 LINE",
"17 -79 LINE"
);
}
);
width = 498;
}
);
leftKerningGroup = underscore;
rightKerningGroup = underscore;
unicode = 005F;
},
{
glyphname = quotesinglbase;
lastChange = "2020-04-04 14:49:59 +0000";
layers = (
{
layerId = "C45C3DCC-6617-4D42-8E57-0A4EECAD9C2E";
paths = (
{
closed = 1;
nodes = (
"98 251 OFFCURVE",
"38 192 OFFCURVE",
"38 120 CURVE SMOOTH",
"38 39 OFFCURVE",
"93 -7 OFFCURVE",
"149 -7 CURVE SMOOTH",
"167 -7 OFFCURVE",
"177 -5 OFFCURVE",
"185 0 CURVE",
"165 -61 OFFCURVE",
"97 -117 OFFCURVE",
"51 -142 CURVE",
"108 -209 LINE",
"209 -153 OFFCURVE",
"299 -22 OFFCURVE",
"299 102 CURVE SMOOTH",
"299 202 OFFCURVE",
"240 251 OFFCURVE",
"169 251 CURVE SMOOTH"
);
}
);
width = 316;
},
{
layerId = "9D4C2422-5CE9-4C2E-AAC7-BF869A02F5C8";
paths = (
{
closed = 1;
nodes = (
"103 110 OFFCURVE",
"75 83 OFFCURVE",
"75 42 CURVE SMOOTH",
"75 13 OFFCURVE",
"101 -19 OFFCURVE",
"137 -19 CURVE SMOOTH",
"146 -19 OFFCURVE",
"156 -17 OFFCURVE",
"167 -12 CURVE",
"159 -53 OFFCURVE",
"112 -87 OFFCURVE",
"78 -102 CURVE",
"111 -131 LINE",
"167 -101 OFFCURVE",
"217 -42 OFFCURVE",
"217 35 CURVE SMOOTH",
"217 77 OFFCURVE",
"184 110 OFFCURVE",
"143 110 CURVE SMOOTH"
);
}
);
width = 287;
}
);
leftKerningGroup = period;
rightKerningGroup = period;
unicode = 201A;
},
{
glyphname = quoteleft;
lastChange = "2019-07-11 13:20:40 +0000";
layers = (
{
layerId = "C45C3DCC-6617-4D42-8E57-0A4EECAD9C2E";
paths = (
{
closed = 1;
nodes = (
"242 440 OFFCURVE",
"298 491 OFFCURVE",
"298 574 CURVE SMOOTH",
"298 654 OFFCURVE",
"248 687 OFFCURVE",
"204 687 CURVE SMOOTH",
"185 687 OFFCURVE",
"162 684 OFFCURVE",
"153 675 CURVE",
"153 740 OFFCURVE",
"242 795 OFFCURVE",
"270 809 CURVE",
"217 849 LINE",
"124 809 OFFCURVE",
"42 720 OFFCURVE",
"42 594 CURVE SMOOTH",
"42 492 OFFCURVE",
"97 440 OFFCURVE",
"170 440 CURVE SMOOTH"
);
}
);
width = 316;
},
{
layerId = "9D4C2422-5CE9-4C2E-AAC7-BF869A02F5C8";
paths = (
{
closed = 1;
nodes = (
"177 577 OFFCURVE",
"210 607 OFFCURVE",
"210 653 CURVE SMOOTH",
"210 687 OFFCURVE",
"183 713 OFFCURVE",
"149 713 CURVE SMOOTH",
"128 713 OFFCURVE",
"108 703 OFFCURVE",
"102 693 CURVE",
"104 726 OFFCURVE",
"139 775 OFFCURVE",
"171 787 CURVE",
"148 823 LINE",
"109 800 OFFCURVE",
"52 749 OFFCURVE",
"52 665 CURVE SMOOTH",
"52 610 OFFCURVE",
"86 577 OFFCURVE",
"131 577 CURVE SMOOTH"
);
}
);
width = 265;
}
);
leftKerningGroup = quotedblleft;
rightKerningGroup = quotedblleft;
unicode = 2018;
},
{
glyphname = guillemetleft;
lastChange = "2019-07-10 14:01:49 +0000";
layers = (
{
layerId = "C45C3DCC-6617-4D42-8E57-0A4EECAD9C2E";
paths = (
{
closed = 1;
nodes = (
"209 278 LINE",
"338 446 LINE",
"221 539 LINE",
"18 278 LINE",
"221 18 LINE",
"338 110 LINE"
);
},
{
closed = 1;
nodes = (
"467 278 LINE",
"596 446 LINE",
"479 539 LINE",
"276 278 LINE",
"479 18 LINE",
"596 110 LINE"
);
}
);
width = 650;
},
{
layerId = "9D4C2422-5CE9-4C2E-AAC7-BF869A02F5C8";
paths = (
{
closed = 1;
nodes = (
"90 278 LINE",
"252 480 LINE",
"228 498 LINE",
"54 278 LINE",
"228 57 LINE",
"252 77 LINE"
);
},
{
closed = 1;
nodes = (
"318 278 LINE",
"480 480 LINE",
"455 498 LINE",
"282 278 LINE",
"455 57 LINE",
"480 77 LINE"
);
}
);
width = 580;
}
);
leftKerningGroup = guillemetleft;
rightKerningGroup = guillemetleft;
unicode = 00AB;
},
{
glyphname = guilsinglleft;
lastChange = "2019-07-10 14:01:49 +0000";
layers = (
{
layerId = "C45C3DCC-6617-4D42-8E57-0A4EECAD9C2E";
paths = (
{
closed = 1;
nodes = (
"213 278 LINE",
"342 446 LINE",
"225 539 LINE",
"22 278 LINE",
"225 18 LINE",
"342 110 LINE"
);
}
);
width = 400;
},
{
layerId = "9D4C2422-5CE9-4C2E-AAC7-BF869A02F5C8";
paths = (
{
closed = 1;
nodes = (
"88 278 LINE",
"250 480 LINE",
"226 498 LINE",
"52 278 LINE",
"226 57 LINE",
"250 77 LINE"
);
}
);
width = 348;
}
);
leftKerningGroup = guillemotleft;
rightKerningGroup = guillemotleft;
unicode = 2039;
},
{
glyphname = quotedbl;
lastChange = "2020-04-04 14:49:59 +0000";
layers = (
{
layerId = "C45C3DCC-6617-4D42-8E57-0A4EECAD9C2E";
paths = (
{
closed = 1;
nodes = (
"89 854 OFFCURVE",
"39 812 OFFCURVE",
"39 769 CURVE SMOOTH",
"39 764 LINE SMOOTH",
"39 726 OFFCURVE",
"74 557 OFFCURVE",
"100 440 CURVE",
"159 440 LINE",
"195 557 OFFCURVE",
"242 726 OFFCURVE",
"242 764 CURVE SMOOTH",
"242 769 LINE SMOOTH",
"242 812 OFFCURVE",
"192 854 OFFCURVE",
"140 854 CURVE SMOOTH"
);
},
{
closed = 1;
nodes = (
"331 854 OFFCURVE",
"281 812 OFFCURVE",
"281 769 CURVE SMOOTH",
"281 764 LINE SMOOTH",
"281 726 OFFCURVE",
"316 557 OFFCURVE",
"342 440 CURVE",
"401 440 LINE",
"437 557 OFFCURVE",
"484 726 OFFCURVE",
"484 764 CURVE SMOOTH",
"484 769 LINE SMOOTH",
"484 812 OFFCURVE",
"434 854 OFFCURVE",
"382 854 CURVE SMOOTH"
);
}
);
width = 538;
},
{
layerId = "9D4C2422-5CE9-4C2E-AAC7-BF869A02F5C8";
paths = (
{
closed = 1;
nodes = (
"97 803 OFFCURVE",
"84 780 OFFCURVE",
"84 755 CURVE SMOOTH",
"84 752 LINE SMOOTH",
"84 732 OFFCURVE",
"94 637 OFFCURVE",
"102 571 CURVE",
"136 571 LINE",
"149 637 OFFCURVE",
"166 732 OFFCURVE",
"166 752 CURVE SMOOTH",
"166 755 LINE SMOOTH",
"166 779 OFFCURVE",
"154 803 OFFCURVE",
"125 803 CURVE SMOOTH"
);
},
{
closed = 1;
nodes = (
"262 803 OFFCURVE",
"250 780 OFFCURVE",
"250 755 CURVE SMOOTH",
"250 752 LINE SMOOTH",
"250 732 OFFCURVE",
"260 637 OFFCURVE",
"268 571 CURVE",
"301 571 LINE",
"314 637 OFFCURVE",
"332 732 OFFCURVE",
"332 752 CURVE SMOOTH",
"332 755 LINE SMOOTH",
"332 780 OFFCURVE",
"320 803 OFFCURVE",
"291 803 CURVE SMOOTH"
);
}
);
width = 442;
}
);
leftKerningGroup = quotedbl;
rightKerningGroup = quotedbl;
unicode = 0022;
},
{
glyphname = quotesingle;
lastChange = "2020-04-05 00:51:26 +0000";
layers = (
{
layerId = "C45C3DCC-6617-4D42-8E57-0A4EECAD9C2E";
paths = (
{
closed = 1;
nodes = (
"99 854 OFFCURVE",
"49 817 OFFCURVE",
"49 739 CURVE SMOOTH",
"49 637 OFFCURVE",
"83 524 OFFCURVE",
"110 440 CURVE",
"169 440 LINE",
"205 524 OFFCURVE",
"252 635 OFFCURVE",
"252 739 CURVE SMOOTH",
"252 817 OFFCURVE",
"202 854 OFFCURVE",
"150 854 CURVE SMOOTH"
);
}
);
width = 316;
},
{
layerId = "9D4C2422-5CE9-4C2E-AAC7-BF869A02F5C8";
paths = (
{
closed = 1;
nodes = (
"92 803 OFFCURVE",
"79 780 OFFCURVE",
"79 755 CURVE SMOOTH",
"79 736 OFFCURVE",
"87 652 OFFCURVE",
"97 571 CURVE",
"131 571 LINE",
"148 655 OFFCURVE",
"161 734 OFFCURVE",
"161 755 CURVE SMOOTH",
"161 779 OFFCURVE",
"149 803 OFFCURVE",
"120 803 CURVE SMOOTH"
);
}
);
width = 265;
}
);
leftKerningGroup = quotedbl;
rightKerningGroup = quotesingle;
unicode = 0027;
},
{
glyphname = cent;
lastChange = "2020-04-05 00:25:52 +0000";
layers = (
{
components = (
{
name = c;
}
);
layerId = "C45C3DCC-6617-4D42-8E57-0A4EECAD9C2E";
paths = (
{
closed = 1;
nodes = (
"250 494 LINE",
"384 494 LINE",
"384 636 LINE",
"250 636 LINE"
);
},
{
closed = 1;
nodes = (
"250 -129 LINE",
"384 -129 LINE",
"384 13 LINE",
"250 13 LINE"
);
}
);
width = 542;
},
{
components = (
{
name = c;
}
);
layerId = "9D4C2422-5CE9-4C2E-AAC7-BF869A02F5C8";
paths = (
{
closed = 1;
nodes = (
"267 494 LINE",
"304 494 LINE",
"304 636 LINE",
"267 636 LINE"
);
},
{
closed = 1;
nodes = (
"267 -129 LINE",
"304 -129 LINE",
"304 13 LINE",
"267 13 LINE"
);
}
);
width = 507;
}
);
leftKerningGroup = o;
rightKerningGroup = c;
unicode = 00A2;
},
{
glyphname = currency;
lastChange = "2020-04-05 00:26:20 +0000";
layers = (
{
components = (
{
alignment = -1;
name = o;
transform = "{1, 0, 0, 1, 0, 100}";
}
);
layerId = "9D4C2422-5CE9-4C2E-AAC7-BF869A02F5C8";
paths = (
{
closed = 1;
nodes = (
"448 540 LINE",
"475 513 LINE",
"575 614 LINE",
"549 640 LINE"
);
},
{
closed = 1;
nodes = (
"8 99 LINE",
"34 73 LINE",
"135 173 LINE",
"108 200 LINE"
);
},
{
closed = 1;
nodes = (
"8 614 LINE",
"108 513 LINE",
"135 540 LINE",
"34 640 LINE"
);
},
{
closed = 1;
nodes = (
"448 173 LINE",
"549 73 LINE",
"575 99 LINE",
"475 200 LINE"
);
}
);
width = 586;
},
{
components = (
{
alignment = -1;
name = o;
transform = "{1, 0, 0, 1, 20, 100}";
}
);
layerId = "C45C3DCC-6617-4D42-8E57-0A4EECAD9C2E";
paths = (
{
closed = 1;
nodes = (
"465 570 LINE",
"559 475 LINE",
"660 576 LINE",
"565 670 LINE"
);
},
{
closed = 1;
nodes = (
"24 129 LINE",
"119 35 LINE",
"219 135 LINE",
"125 230 LINE"
);
},
{
closed = 1;
nodes = (
"24 576 LINE",
"125 475 LINE",
"219 570 LINE",
"119 670 LINE"
);
},
{
closed = 1;
nodes = (
"465 135 LINE",
"565 35 LINE",
"660 129 LINE",
"559 230 LINE"
);
}
);
width = 678;
}
);
unicode = 00A4;
},
{
glyphname = dollar;
lastChange = "2019-07-11 16:13:44 +0000";
layers = (
{
components = (
{
name = S;
}
);
layerId = "C45C3DCC-6617-4D42-8E57-0A4EECAD9C2E";
paths = (
{
closed = 1;
nodes = (
"286 817 LINE",
"420 817 LINE",
"420 959 LINE",
"286 959 LINE"
);
},
{
closed = 1;
nodes = (
"286 -129 LINE",
"420 -129 LINE",
"420 13 LINE",
"286 13 LINE"
);
}
);
width = 727;
},
{
components = (
{
name = S;
}
);
layerId = "9D4C2422-5CE9-4C2E-AAC7-BF869A02F5C8";
paths = (
{
closed = 1;
nodes = (
"302 817 LINE",
"339 817 LINE",
"339 959 LINE",
"302 959 LINE"
);
},
{
closed = 1;
nodes = (
"302 -129 LINE",
"339 -129 LINE",
"339 13 LINE",
"302 13 LINE"
);
}
);
width = 627;
}
);
leftKerningGroup = dollar;
rightKerningGroup = dollar;
unicode = 0024;
},
{
glyphname = euro;
lastChange = "2019-07-11 16:14:01 +0000";
layers = (
{
components = (
{
alignment = -1;
name = C.ss01;
transform = "{1, 0, 0, 1, 36, 0}";
}
);
layerId = "C45C3DCC-6617-4D42-8E57-0A4EECAD9C2E";
paths = (
{
closed = 1;
nodes = (
"5 432 LINE",
"627 432 LINE",
"627 558 LINE",
"5 558 LINE"
);
},
{
closed = 1;
nodes = (
"5 265 LINE",
"627 265 LINE",
"627 391 LINE",
"5 391 LINE"
);
}
);
width = 822;
},
{
components = (
{
alignment = -1;
name = C.ss01;
transform = "{1, 0, 0, 1, 47, 0}";
}
);
layerId = "9D4C2422-5CE9-4C2E-AAC7-BF869A02F5C8";
paths = (
{
closed = 1;
nodes = (
"21 476 LINE",
"643 476 LINE",
"643 514 LINE",
"21 514 LINE"
);
},
{
closed = 1;
nodes = (
"21 309 LINE",
"643 309 LINE",
"643 347 LINE",
"21 347 LINE"
);
}
);
width = 812;
}
);
leftKerningGroup = euro;
rightKerningGroup = euro;
unicode = 20AC;
},
{
glyphname = florin;
lastChange = "2020-04-05 00:24:07 +0000";
layers = (
{
layerId = "9D4C2422-5CE9-4C2E-AAC7-BF869A02F5C8";
paths = (
{
closed = 1;
nodes = (
"2 -267 OFFCURVE",
"89 -221 OFFCURVE",
"111 -59 CURVE",
"187 474 LINE",
"349 474 LINE",
"355 513 LINE",
"193 513 LINE",
"213 659 LINE SMOOTH",
"234 811 OFFCURVE",
"295 837 OFFCURVE",
"347 837 CURVE SMOOTH",
"395 837 OFFCURVE",
"417 818 OFFCURVE",
"422 813 CURVE",
"446 848 LINE",
"442 852 OFFCURVE",
"413 875 OFFCURVE",
"356 875 CURVE SMOOTH",
"284 875 OFFCURVE",
"197 829 OFFCURVE",
"175 667 CURVE SMOOTH",
"154 513 LINE",
"32 513 LINE",
"26 474 LINE",
"148 474 LINE",
"73 -51 LINE",
"52 -203 OFFCURVE",
"-9 -229 OFFCURVE",
"-61 -229 CURVE SMOOTH",
"-109 -229 OFFCURVE",
"-131 -210 OFFCURVE",
"-136 -205 CURVE",
"-160 -240 LINE",
"-156 -244 OFFCURVE",
"-127 -267 OFFCURVE",
"-70 -267 CURVE SMOOTH"
);
}
);
width = 381;
},
{
layerId = "C45C3DCC-6617-4D42-8E57-0A4EECAD9C2E";
paths = (
{
closed = 1;
nodes = (
"118 -272 OFFCURVE",
"251 -184 OFFCURVE",
"271 -39 CURVE",
"320 313 LINE",
"414 313 LINE",
"442 513 LINE",
"348 513 LINE",
"363 622 LINE SMOOTH",
"368 656 OFFCURVE",
"391 668 OFFCURVE",
"409 668 CURVE SMOOTH",
"428 668 OFFCURVE",
"440 657 OFFCURVE",
"442 655 CURVE",
"551 843 LINE",
"547 848 OFFCURVE",
"489 875 OFFCURVE",
"397 875 CURVE SMOOTH",
"273 875 OFFCURVE",
"140 787 OFFCURVE",
"120 642 CURVE SMOOTH",
"102 513 LINE",
"31 513 LINE",
"3 313 LINE",
"74 313 LINE",
"28 -19 LINE",
"23 -53 OFFCURVE",
"0 -65 OFFCURVE",
"-18 -65 CURVE SMOOTH",
"-37 -65 OFFCURVE",
"-49 -54 OFFCURVE",
"-51 -52 CURVE",
"-160 -240 LINE",
"-156 -245 OFFCURVE",
"-98 -272 OFFCURVE",
"-6 -272 CURVE SMOOTH"
);
}
);
width = 464;
}
);
unicode = 0192;
},
{
glyphname = franc;
lastChange = "2020-04-05 00:48:40 +0000";
layers = (
{
components = (
{
name = F;
}
);
layerId = "9D4C2422-5CE9-4C2E-AAC7-BF869A02F5C8";
paths = (
{
closed = 1;
nodes = (
"-12 207 LINE",
"318 207 LINE",
"318 247 LINE",
"-12 247 LINE"
);
}
);
width = 542;
},
{
components = (
{
name = F;
}
);
layerId = "C45C3DCC-6617-4D42-8E57-0A4EECAD9C2E";
paths = (
{
closed = 1;
nodes = (
"-12 103 LINE",
"442 103 LINE",
"442 247 LINE",
"-12 247 LINE"
);
}
);
width = 622;
}
);
unicode = 20A3;
},
{
glyphname = lira;
lastChange = "2020-04-05 00:48:01 +0000";
layers = (
{
layerId = "9D4C2422-5CE9-4C2E-AAC7-BF869A02F5C8";
paths = (
{
closed = 1;
nodes = (
"221 307 OFFCURVE",
"233 268 OFFCURVE",
"233 219 CURVE SMOOTH",
"233 177 OFFCURVE",
"221 141 OFFCURVE",
"218 132 CURVE",
"150 132 OFFCURVE",
"77 56 OFFCURVE",
"71 0 CURVE",
"113 0 LINE",
"115 27 OFFCURVE",
"160 97 OFFCURVE",
"230 97 CURVE SMOOTH",
"333 97 OFFCURVE",
"383 -15 OFFCURVE",
"507 -15 CURVE SMOOTH",
"595 -15 OFFCURVE",
"649 55 OFFCURVE",
"665 108 CURVE",
"628 124 LINE",
"621 81 OFFCURVE",
"584 25 OFFCURVE",
"508 25 CURVE SMOOTH",
"414 25 OFFCURVE",
"344 119 OFFCURVE",
"256 128 CURVE",
"259 137 OFFCURVE",
"272 176 OFFCURVE",
"272 219 CURVE SMOOTH",
"272 264 OFFCURVE",
"263 295 OFFCURVE",
"238 362 CURVE SMOOTH",
"226 387 OFFCURVE",
"171 526 OFFCURVE",
"171 607 CURVE SMOOTH",
"171 733 OFFCURVE",
"250 801 OFFCURVE",
"377 801 CURVE SMOOTH",
"494 801 OFFCURVE",
"568 725 OFFCURVE",
"591 668 CURVE",
"626 689 LINE",
"598 754 OFFCURVE",
"511 841 OFFCURVE",
"377 841 CURVE SMOOTH",
"202 841 OFFCURVE",
"131 732 OFFCURVE",
"131 608 CURVE SMOOTH",
"131 512 OFFCURVE",
"190 374 OFFCURVE",
"196 362 CURVE SMOOTH"
);
},
{
closed = 1;
nodes = (
"71 401 LINE",
"510 401 LINE",
"510 440 LINE",
"71 440 LINE"
);
},
{
closed = 1;
nodes = (
"71 273 LINE",
"510 273 LINE",
"510 312 LINE",
"71 312 LINE"
);
}
);
width = 744;
},
{
layerId = "C45C3DCC-6617-4D42-8E57-0A4EECAD9C2E";
paths = (
{
closed = 1;
nodes = (
"186 344 OFFCURVE",
"215 277 OFFCURVE",
"215 243 CURVE SMOOTH",
"215 219 OFFCURVE",
"211 208 OFFCURVE",
"200 191 CURVE",
"105 191 OFFCURVE",
"29 115 OFFCURVE",
"29 0 CURVE",
"197 0 LINE",
"204 10 OFFCURVE",
"220 24 OFFCURVE",
"240 24 CURVE SMOOTH",
"335 24 OFFCURVE",
"390 -15 OFFCURVE",
"515 -15 CURVE SMOOTH",
"641 -15 OFFCURVE",
"711 74 OFFCURVE",
"728 142 CURVE",
"535 211 LINE",
"534 208 OFFCURVE",
"519 165 OFFCURVE",
"482 165 CURVE SMOOTH",
"438 165 OFFCURVE",
"408 179 OFFCURVE",
"397 179 CURVE",
"401 185 OFFCURVE",
"414 220 OFFCURVE",
"414 251 CURVE SMOOTH",
"414 294 OFFCURVE",
"406 342 OFFCURVE",
"378 406 CURVE SMOOTH",
"364 438 OFFCURVE",
"335 514 OFFCURVE",
"335 568 CURVE SMOOTH",
"335 616 OFFCURVE",
"354 651 OFFCURVE",
"399 651 CURVE SMOOTH",
"453 651 OFFCURVE",
"474 588 OFFCURVE",
"474 540 CURVE",
"672 638 LINE",
"659 725 OFFCURVE",
"573 841 OFFCURVE",
"389 841 CURVE SMOOTH",
"204 841 OFFCURVE",
"99 728 OFFCURVE",
"99 578 CURVE SMOOTH",
"99 502 OFFCURVE",
"125 446 OFFCURVE",
"149 406 CURVE SMOOTH"
);
},
{
closed = 1;
nodes = (
"45 392 LINE",
"525 392 LINE",
"525 484 LINE",
"45 484 LINE"
);
},
{
closed = 1;
nodes = (
"45 262 LINE",
"525 262 LINE",
"525 354 LINE",
"45 354 LINE"
);
}
);
width = 774;
}
);
unicode = 20A4;
},
{
glyphname = liraTurkish;
lastChange = "2020-04-05 00:36:25 +0000";
layers = (
{
layerId = "9D4C2422-5CE9-4C2E-AAC7-BF869A02F5C8";
paths = (
{
closed = 1;
nodes = (
"79 0 LINE",
"160 0 LINE",
"416 0 OFFCURVE",
"494 140 OFFCURVE",
"494 267 CURVE",
"454 267 LINE",
"454 141 OFFCURVE",
"388 40 OFFCURVE",
"118 40 CURVE",
"118 825 LINE",
"79 825 LINE"
);
},
{
closed = 1;
nodes = (
"393 540 LINE",
"393 578 LINE",
"-13 444 LINE",
"-13 406 LINE"
);
},
{
closed = 1;
nodes = (
"393 408 LINE",
"393 446 LINE",
"-13 312 LINE",
"-13 274 LINE"
);
}
);
width = 540;
},
{
layerId = "C45C3DCC-6617-4D42-8E57-0A4EECAD9C2E";
paths = (
{
closed = 1;
nodes = (
"49 0 LINE",
"294 0 LINE",
"520 0 OFFCURVE",
"658 97 OFFCURVE",
"658 371 CURVE",
"457 371 LINE",
"457 244 OFFCURVE",
"385 210 OFFCURVE",
"291 210 CURVE",
"291 825 LINE",
"49 825 LINE"
);
},
{
closed = 1;
nodes = (
"488 623 LINE",
"488 770 LINE",
"-18 605 LINE",
"-18 458 LINE"
);
},
{
closed = 1;
nodes = (
"488 411 LINE",
"488 558 LINE",
"-18 393 LINE",
"-18 246 LINE"
);
}
);
width = 640;
}
);
unicode = 20BA;
},
{
glyphname = manat;
lastChange = "2020-04-05 00:38:59 +0000";
layers = (
{
layerId = "9D4C2422-5CE9-4C2E-AAC7-BF869A02F5C8";
paths = (
{
closed = 1;
nodes = (
"113 0 LINE",
"113 525 LINE SMOOTH",
"113 655 OFFCURVE",
"172 737 OFFCURVE",
"288 737 CURVE SMOOTH",
"404 737 OFFCURVE",
"463 655 OFFCURVE",
"463 525 CURVE SMOOTH",
"463 0 LINE",
"503 0 LINE",
"503 536 LINE SMOOTH",
"503 673 OFFCURVE",
"426 777 OFFCURVE",
"288 777 CURVE SMOOTH",
"150 777 OFFCURVE",
"73 673 OFFCURVE",
"73 536 CURVE SMOOTH",
"73 0 LINE"
);
},
{
closed = 1;
nodes = (
"305 0 LINE",
"305 860 LINE",
"267 860 LINE",
"267 0 LINE"
);
}
);
width = 601;
},
{
layerId = "C45C3DCC-6617-4D42-8E57-0A4EECAD9C2E";
paths = (
{
closed = 1;
nodes = (
"277 0 LINE",
"277 462 LINE SMOOTH",
"277 526 OFFCURVE",
"313 567 OFFCURVE",
"391 567 CURVE SMOOTH",
"468 567 OFFCURVE",
"504 526 OFFCURVE",
"504 462 CURVE SMOOTH",
"504 0 LINE",
"746 0 LINE",
"746 486 LINE SMOOTH",
"746 661 OFFCURVE",
"631 767 OFFCURVE",
"391 767 CURVE SMOOTH",
"150 767 OFFCURVE",
"35 661 OFFCURVE",
"35 486 CURVE SMOOTH",
"35 0 LINE"
);
},
{
closed = 1;
nodes = (
"465 0 LINE",
"465 860 LINE",
"320 860 LINE",
"320 0 LINE"
);
}
);
width = 796;
}
);
unicode = 20BC;
},
{
glyphname = peso;
lastChange = "2020-04-05 00:32:35 +0000";
layers = (
{
anchors = (
{
name = bottom;
position = "{293, 0}";
},
{
name = top;
position = "{293, 825}";
}
);
layerId = "9D4C2422-5CE9-4C2E-AAC7-BF869A02F5C8";
paths = (
{
closed = 1;
nodes = (
"94 0 LINE",
"133 0 LINE",
"133 244 LINE",
"271 244 LINE SMOOTH",
"422 244 OFFCURVE",
"541 336 OFFCURVE",
"541 539 CURVE SMOOTH",
"541 742 OFFCURVE",
"422 825 OFFCURVE",
"271 825 CURVE SMOOTH",
"94 825 LINE"
);
},
{
closed = 1;
nodes = (
"133 785 LINE",
"261 785 LINE SMOOTH",
"392 785 OFFCURVE",
"501 722 OFFCURVE",
"501 539 CURVE SMOOTH",
"501 356 OFFCURVE",
"392 284 OFFCURVE",
"261 284 CURVE SMOOTH",
"133 284 LINE"
);
},
{
closed = 1;
nodes = (
"587 456 LINE",
"587 496 LINE",
"16 496 LINE",
"16 456 LINE"
);
},
{
closed = 1;
nodes = (
"587 572 LINE",
"587 612 LINE",
"16 612 LINE",
"16 572 LINE"
);
}
);
width = 611;
},
{
anchors = (
{
name = bottom;
position = "{338, 0}";
},
{
name = top;
position = "{338, 825}";
}
);
layerId = "C45C3DCC-6617-4D42-8E57-0A4EECAD9C2E";
paths = (
{
closed = 1;
nodes = (
"38 0 LINE",
"280 0 LINE",
"280 173 LINE",
"384 173 LINE SMOOTH",
"545 173 OFFCURVE",
"681 306 OFFCURVE",
"681 505 CURVE SMOOTH",
"681 704 OFFCURVE",
"545 825 OFFCURVE",
"384 825 CURVE SMOOTH",
"38 825 LINE"
);
},
{
closed = 1;
nodes = (
"280 637 LINE",
"316 637 LINE SMOOTH",
"371 637 OFFCURVE",
"422 594 OFFCURVE",
"422 499 CURVE SMOOTH",
"422 404 OFFCURVE",
"371 361 OFFCURVE",
"316 361 CURVE SMOOTH",
"280 361 LINE"
);
},
{
closed = 1;
nodes = (
"732 392 LINE",
"732 486 LINE",
"-9 486 LINE",
"-9 392 LINE"
);
},
{
closed = 1;
nodes = (
"732 513 LINE",
"732 607 LINE",
"-9 607 LINE",
"-9 513 LINE"
);
}
);
width = 721;
}
);
unicode = 20B1;
},
{
glyphname = rupeeIndian;
lastChange = "2020-04-05 00:45:31 +0000";
layers = (
{
layerId = "9D4C2422-5CE9-4C2E-AAC7-BF869A02F5C8";
paths = (
{
closed = 1;
nodes = (
"65 785 LINE",
"261 785 LINE SMOOTH",
"386 785 OFFCURVE",
"469 726 OFFCURVE",
"469 596 CURVE SMOOTH",
"469 466 OFFCURVE",
"386 404 OFFCURVE",
"261 404 CURVE SMOOTH",
"65 404 LINE",
"65 366 LINE",
"273 366 LINE SMOOTH",
"420 366 OFFCURVE",
"509 460 OFFCURVE",
"509 596 CURVE SMOOTH",
"509 746 OFFCURVE",
"399 825 OFFCURVE",
"274 825 CURVE SMOOTH",
"65 825 LINE"
);
},
{
closed = 1;
nodes = (
"575 787 LINE",
"575 825 LINE",
"65 825 LINE",
"65 787 LINE"
);
},
{
closed = 1;
nodes = (
"576 573 LINE",
"576 611 LINE",
"65 611 LINE",
"65 573 LINE"
);
},
{
closed = 1;
nodes = (
"442 0 LINE",
"500 0 LINE",
"96 393 LINE",
"65 366 LINE"
);
}
);
width = 654;
},
{
layerId = "C45C3DCC-6617-4D42-8E57-0A4EECAD9C2E";
paths = (
{
closed = 1;
nodes = (
"96 667 LINE",
"252 667 LINE SMOOTH",
"336 667 OFFCURVE",
"388 622 OFFCURVE",
"388 527 CURVE SMOOTH",
"388 432 OFFCURVE",
"334 387 OFFCURVE",
"250 387 CURVE SMOOTH",
"95 387 LINE",
"95 253 LINE",
"204 253 LINE",
"433 253 OFFCURVE",
"603 320 OFFCURVE",
"603 535 CURVE SMOOTH",
"603 695 OFFCURVE",
"498 825 OFFCURVE",
"348 825 CURVE SMOOTH",
"96 825 LINE"
);
},
{
closed = 1;
nodes = (
"692 683 LINE",
"692 825 LINE",
"96 825 LINE",
"96 683 LINE"
);
},
{
closed = 1;
nodes = (
"692 455 LINE",
"692 598 LINE",
"96 598 LINE",
"96 455 LINE"
);
},
{
closed = 1;
nodes = (
"347 0 LINE",
"620 0 LINE",
"280 341 LINE",
"95 253 LINE"
);
}
);
width = 771;
}
);
unicode = 20B9;
},
{
glyphname = sterling;
lastChange = "2020-04-05 00:47:20 +0000";
layers = (
{
layerId = "C45C3DCC-6617-4D42-8E57-0A4EECAD9C2E";
paths = (
{
closed = 1;
nodes = (
"186 344 OFFCURVE",
"215 277 OFFCURVE",
"215 243 CURVE SMOOTH",
"215 219 OFFCURVE",
"211 208 OFFCURVE",
"200 191 CURVE",
"105 191 OFFCURVE",
"29 115 OFFCURVE",
"29 0 CURVE",
"197 0 LINE",
"204 10 OFFCURVE",
"220 24 OFFCURVE",
"240 24 CURVE SMOOTH",
"335 24 OFFCURVE",
"390 -15 OFFCURVE",
"515 -15 CURVE SMOOTH",
"641 -15 OFFCURVE",
"711 74 OFFCURVE",
"728 142 CURVE",
"535 211 LINE",
"534 208 OFFCURVE",
"519 165 OFFCURVE",
"482 165 CURVE SMOOTH",
"438 165 OFFCURVE",
"408 179 OFFCURVE",
"397 179 CURVE",
"401 185 OFFCURVE",
"414 220 OFFCURVE",
"414 251 CURVE SMOOTH",
"414 294 OFFCURVE",
"406 342 OFFCURVE",
"378 406 CURVE SMOOTH",
"364 438 OFFCURVE",
"335 514 OFFCURVE",
"335 568 CURVE SMOOTH",
"335 616 OFFCURVE",
"354 651 OFFCURVE",
"399 651 CURVE SMOOTH",
"453 651 OFFCURVE",
"474 588 OFFCURVE",
"474 540 CURVE",
"672 638 LINE",
"659 725 OFFCURVE",
"573 841 OFFCURVE",
"389 841 CURVE SMOOTH",
"204 841 OFFCURVE",
"99 728 OFFCURVE",
"99 578 CURVE SMOOTH",
"99 502 OFFCURVE",
"125 446 OFFCURVE",
"149 406 CURVE SMOOTH"
);
},
{
closed = 1;
nodes = (
"45 281 LINE",
"525 281 LINE",
"525 414 LINE",
"45 414 LINE"
);
}
);
width = 774;
},
{
layerId = "9D4C2422-5CE9-4C2E-AAC7-BF869A02F5C8";
paths = (
{
closed = 1;
nodes = (
"221 307 OFFCURVE",
"233 268 OFFCURVE",
"233 219 CURVE SMOOTH",
"233 177 OFFCURVE",
"221 141 OFFCURVE",
"218 132 CURVE",
"150 132 OFFCURVE",
"77 56 OFFCURVE",
"71 0 CURVE",
"113 0 LINE",
"115 27 OFFCURVE",
"160 97 OFFCURVE",
"230 97 CURVE SMOOTH",
"333 97 OFFCURVE",
"383 -15 OFFCURVE",
"507 -15 CURVE SMOOTH",
"595 -15 OFFCURVE",
"649 55 OFFCURVE",
"665 108 CURVE",
"628 124 LINE",
"621 81 OFFCURVE",
"584 25 OFFCURVE",
"508 25 CURVE SMOOTH",
"414 25 OFFCURVE",
"344 119 OFFCURVE",
"256 128 CURVE",
"259 137 OFFCURVE",
"272 176 OFFCURVE",
"272 219 CURVE SMOOTH",
"272 264 OFFCURVE",
"263 295 OFFCURVE",
"238 362 CURVE SMOOTH",
"226 387 OFFCURVE",
"171 526 OFFCURVE",
"171 607 CURVE SMOOTH",
"171 733 OFFCURVE",
"250 801 OFFCURVE",
"377 801 CURVE SMOOTH",
"494 801 OFFCURVE",
"568 725 OFFCURVE",
"591 668 CURVE",
"626 689 LINE",
"598 754 OFFCURVE",
"511 841 OFFCURVE",
"377 841 CURVE SMOOTH",
"202 841 OFFCURVE",
"131 732 OFFCURVE",
"131 608 CURVE SMOOTH",
"131 512 OFFCURVE",
"190 374 OFFCURVE",
"196 362 CURVE SMOOTH"
);
},
{
closed = 1;
nodes = (
"71 341 LINE",
"510 341 LINE",
"510 380 LINE",
"71 380 LINE"
);
}
);
width = 744;
}
);
leftKerningGroup = sterling;
rightKerningGroup = sterling;
unicode = 00A3;
},
{
glyphname = yen;
lastChange = "2019-07-11 16:41:23 +0000";
layers = (
{
components = (
{
name = Y;
}
);
layerId = "C45C3DCC-6617-4D42-8E57-0A4EECAD9C2E";
paths = (
{
closed = 1;
nodes = (
"52 318 LINE",
"697 318 LINE",
"697 462 LINE",
"52 462 LINE"
);
},
{
closed = 1;
nodes = (
"52 103 LINE",
"697 103 LINE",
"697 247 LINE",
"52 247 LINE"
);
}
);
width = 791;
},
{
components = (
{
name = Y;
}
);
layerId = "9D4C2422-5CE9-4C2E-AAC7-BF869A02F5C8";
paths = (
{
closed = 1;
nodes = (
"46 321 LINE",
"570 321 LINE",
"570 360 LINE",
"46 360 LINE"
);
},
{
closed = 1;
nodes = (
"46 192 LINE",
"570 192 LINE",
"570 231 LINE",
"46 231 LINE"
);
}
);
width = 641;
}
);
leftKerningGroup = yen;
rightKerningGroup = yen;
unicode = 00A5;
},
{
glyphname = plus;
lastChange = "2019-07-11 16:41:56 +0000";
layers = (
{
layerId = "C45C3DCC-6617-4D42-8E57-0A4EECAD9C2E";
paths = (
{
closed = 1;
nodes = (
"578 316 LINE",
"578 513 LINE",
"421 513 LINE",
"421 671 LINE",
"223 671 LINE",
"223 513 LINE",
"65 513 LINE",
"65 316 LINE",
"223 316 LINE",
"223 158 LINE",
"421 158 LINE",
"421 316 LINE"
);
}
);
width = 658;
},
{
layerId = "9D4C2422-5CE9-4C2E-AAC7-BF869A02F5C8";
paths = (
{
closed = 1;
nodes = (
"583 396 LINE",
"583 434 LINE",
"346 434 LINE",
"346 671 LINE",
"308 671 LINE",
"308 434 LINE",
"70 434 LINE",
"70 396 LINE",
"308 396 LINE",
"308 158 LINE",
"346 158 LINE",
"346 396 LINE"
);
}
);
width = 678;
}
);
leftKerningGroup = plus;
rightKerningGroup = plus;
unicode = 002B;
},
{
glyphname = minus;
lastChange = "2019-07-11 16:42:04 +0000";
layers = (
{
layerId = "C45C3DCC-6617-4D42-8E57-0A4EECAD9C2E";
paths = (
{
closed = 1;
nodes = (
"590 316 LINE",
"590 514 LINE",
"54 514 LINE",
"54 316 LINE"
);
}
);
width = 658;
},
{
layerId = "9D4C2422-5CE9-4C2E-AAC7-BF869A02F5C8";
paths = (
{
closed = 1;
nodes = (
"608 393 LINE",
"608 431 LINE",
"-5 431 LINE",
"-5 393 LINE"
);
}
);
width = 628;
}
);
leftKerningGroup = minus;
rightKerningGroup = minus;
unicode = 2212;
},
{
glyphname = multiply;
lastChange = "2019-07-11 16:44:15 +0000";
layers = (
{
layerId = "C45C3DCC-6617-4D42-8E57-0A4EECAD9C2E";
paths = (
{
closed = 1;
nodes = (
"597 550 LINE",
"457 689 LINE",
"321 555 LINE",
"186 689 LINE",
"47 551 LINE",
"181 415 LINE",
"47 281 LINE",
"186 140 LINE",
"322 276 LINE",
"459 140 LINE",
"597 279 LINE",
"461 414 LINE"
);
}
);
width = 658;
},
{
layerId = "9D4C2422-5CE9-4C2E-AAC7-BF869A02F5C8";
paths = (
{
closed = 1;
nodes = (
"511 604 LINE",
"484 631 LINE",
"296 442 LINE",
"107 631 LINE",
"80 604 LINE",
"269 415 LINE",
"79 226 LINE",
"106 199 LINE",
"296 388 LINE",
"485 199 LINE",
"512 226 LINE",
"322 415 LINE"
);
}
);
width = 614;
}
);
leftKerningGroup = multiply;
rightKerningGroup = multiply;
unicode = 00D7;
},
{
glyphname = divide;
lastChange = "2019-07-11 16:44:22 +0000";
layers = (
{
layerId = "C45C3DCC-6617-4D42-8E57-0A4EECAD9C2E";
paths = (
{
closed = 1;
nodes = (
"269 746 OFFCURVE",
"227 704 OFFCURVE",
"227 651 CURVE SMOOTH",
"227 600 OFFCURVE",
"269 558 OFFCURVE",
"320 558 CURVE SMOOTH",
"373 558 OFFCURVE",
"415 600 OFFCURVE",
"415 651 CURVE SMOOTH",
"415 704 OFFCURVE",
"373 746 OFFCURVE",
"320 746 CURVE SMOOTH"
);
},
{
closed = 1;
nodes = (
"590 316 LINE",
"590 514 LINE",
"54 514 LINE",
"54 316 LINE"
);
},
{
closed = 1;
nodes = (
"269 271 OFFCURVE",
"227 229 OFFCURVE",
"227 176 CURVE SMOOTH",
"227 125 OFFCURVE",
"269 83 OFFCURVE",
"320 83 CURVE SMOOTH",
"373 83 OFFCURVE",
"415 125 OFFCURVE",
"415 176 CURVE SMOOTH",
"415 229 OFFCURVE",
"373 271 OFFCURVE",
"320 271 CURVE SMOOTH"
);
}
);
width = 658;
},
{
layerId = "9D4C2422-5CE9-4C2E-AAC7-BF869A02F5C8";
paths = (
{
closed = 1;
nodes = (
"276 648 OFFCURVE",
"256 628 OFFCURVE",
"256 602 CURVE SMOOTH",
"256 578 OFFCURVE",
"276 558 OFFCURVE",
"300 558 CURVE SMOOTH",
"326 558 OFFCURVE",
"346 578 OFFCURVE",
"346 602 CURVE SMOOTH",
"346 627 OFFCURVE",
"326 648 OFFCURVE",
"300 648 CURVE SMOOTH"
);
},
{
closed = 1;
nodes = (
"527 393 LINE",
"527 431 LINE",
"76 431 LINE",
"76 393 LINE"
);
},
{
closed = 1;
nodes = (
"276 271 OFFCURVE",
"256 251 OFFCURVE",
"256 225 CURVE SMOOTH",
"256 201 OFFCURVE",
"277 182 OFFCURVE",
"300 182 CURVE SMOOTH",
"325 182 OFFCURVE",
"346 201 OFFCURVE",
"346 225 CURVE SMOOTH",
"346 251 OFFCURVE",
"326 271 OFFCURVE",
"300 271 CURVE SMOOTH"
);
}
);
width = 628;
}
);
leftKerningGroup = divide;
rightKerningGroup = divide;
unicode = 00F7;
},
{
glyphname = equal;
lastChange = "2019-07-11 16:45:31 +0000";
layers = (
{
layerId = "C45C3DCC-6617-4D42-8E57-0A4EECAD9C2E";
paths = (
{
closed = 1;
nodes = (
"590 444 LINE",
"590 642 LINE",
"54 642 LINE",
"54 444 LINE"
);
},
{
closed = 1;
nodes = (
"590 186 LINE",
"590 384 LINE",
"54 384 LINE",
"54 186 LINE"
);
}
);
width = 658;
},
{
layerId = "9D4C2422-5CE9-4C2E-AAC7-BF869A02F5C8";
paths = (
{
closed = 1;
nodes = (
"527 493 LINE",
"527 531 LINE",
"76 531 LINE",
"76 493 LINE"
);
},
{
closed = 1;
nodes = (
"527 301 LINE",
"527 339 LINE",
"76 339 LINE",
"76 301 LINE"
);
}
);
width = 628;
}
);
leftKerningGroup = equal;
rightKerningGroup = equal;
unicode = 003D;
},
{
glyphname = notequal;
lastChange = "2019-07-10 14:01:49 +0000";
layers = (
{
components = (
{
name = equal;
transform = "{1, 0, 0, 1, 10, 0}";
}
);
layerId = "C45C3DCC-6617-4D42-8E57-0A4EECAD9C2E";
paths = (
{
closed = 1;
nodes = (
"574 769 LINE",
"429 769 LINE",
"22 57 LINE",
"167 57 LINE"
);
}
);
width = 658;
},
{
components = (
{
name = equal;
transform = "{1, 0, 0, 1, 10, 0}";
}
);
layerId = "9D4C2422-5CE9-4C2E-AAC7-BF869A02F5C8";
paths = (
{
closed = 1;
nodes = (
"511 718 LINE",
"468 718 LINE",
"95 108 LINE",
"138 108 LINE"
);
}
);
width = 678;
}
);
leftKerningGroup = notequal;
rightKerningGroup = notequal;
unicode = 2260;
},
{
glyphname = greater;
lastChange = "2019-07-11 16:46:13 +0000";
layers = (
{
layerId = "C45C3DCC-6617-4D42-8E57-0A4EECAD9C2E";
paths = (
{
closed = 1;
nodes = (
"616 328 LINE",
"616 504 LINE",
"51 732 LINE",
"51 521 LINE",
"360 415 LINE",
"51 311 LINE",
"51 101 LINE"
);
}
);
width = 687;
},
{
layerId = "9D4C2422-5CE9-4C2E-AAC7-BF869A02F5C8";
paths = (
{
closed = 1;
nodes = (
"567 392 LINE",
"567 440 LINE",
"70 685 LINE",
"70 642 LINE",
"536 416 LINE",
"70 190 LINE",
"70 148 LINE"
);
}
);
width = 667;
}
);
leftKerningGroup = greater;
rightKerningGroup = greater;
unicode = 003E;
},
{
glyphname = asciitilde;
lastChange = "2020-04-04 14:49:59 +0000";
layers = (
{
layerId = "C45C3DCC-6617-4D42-8E57-0A4EECAD9C2E";
paths = (
{
closed = 1;
nodes = (
"528 527 LINE",
"510 502 OFFCURVE",
"473 470 OFFCURVE",
"438 470 CURVE SMOOTH",
"393 470 OFFCURVE",
"345 537 OFFCURVE",
"245 537 CURVE SMOOTH",
"164 537 OFFCURVE",
"83 454 OFFCURVE",
"45 391 CURVE",
"175 305 LINE",
"193 329 OFFCURVE",
"230 361 OFFCURVE",
"265 361 CURVE SMOOTH",
"310 361 OFFCURVE",
"362 294 OFFCURVE",
"459 294 CURVE SMOOTH",
"540 294 OFFCURVE",
"621 377 OFFCURVE",
"659 440 CURVE"
);
}
);
width = 719;
},
{
layerId = "9D4C2422-5CE9-4C2E-AAC7-BF869A02F5C8";
paths = (
{
closed = 1;
nodes = (
"602 477 LINE",
"584 434 OFFCURVE",
"539 378 OFFCURVE",
"478 378 CURVE SMOOTH",
"390 378 OFFCURVE",
"348 493 OFFCURVE",
"238 493 CURVE SMOOTH",
"157 493 OFFCURVE",
"95 423 OFFCURVE",
"70 371 CURVE",
"116 353 LINE",
"133 396 OFFCURVE",
"178 453 OFFCURVE",
"238 453 CURVE SMOOTH",
"327 453 OFFCURVE",
"369 338 OFFCURVE",
"476 338 CURVE SMOOTH",
"557 338 OFFCURVE",
"619 408 OFFCURVE",
"644 460 CURVE"
);
}
);
width = 739;
}
);
leftKerningGroup = asciitilde;
rightKerningGroup = asciitilde;
unicode = 007E;
},
{
glyphname = logicalnot;
lastChange = "2020-04-05 00:27:23 +0000";
layers = (
{
layerId = "9D4C2422-5CE9-4C2E-AAC7-BF869A02F5C8";
paths = (
{
closed = 1;
nodes = (
"70 304 LINE",
"70 266 LINE",
"354 266 LINE",
"354 124 LINE",
"392 124 LINE",
"392 304 LINE"
);
}
);
width = 487;
},
{
layerId = "C45C3DCC-6617-4D42-8E57-0A4EECAD9C2E";
paths = (
{
closed = 1;
nodes = (
"65 388 LINE",
"65 180 LINE",
"398 180 LINE",
"398 55 LINE",
"606 55 LINE",
"606 388 LINE"
);
}
);
width = 700;
}
);
unicode = 00AC;
},
{
glyphname = asciicircum;
lastChange = "2019-07-10 14:01:49 +0000";
layers = (
{
layerId = "C45C3DCC-6617-4D42-8E57-0A4EECAD9C2E";
paths = (
{
closed = 1;
nodes = (
"309 840 LINE",
"198 840 LINE",
"-13 605 LINE",
"189 605 LINE",
"253 678 LINE",
"319 605 LINE",
"520 605 LINE"
);
}
);
width = 521;
},
{
layerId = "9D4C2422-5CE9-4C2E-AAC7-BF869A02F5C8";
paths = (
{
closed = 1;
nodes = (
"280 840 LINE",
"238 840 LINE",
"43 605 LINE",
"92 605 LINE",
"259 814 LINE",
"426 605 LINE",
"474 605 LINE"
);
}
);
width = 541;
}
);
leftKerningGroup = asciicircum;
rightKerningGroup = asciicircum;
unicode = 005E;
},
{
glyphname = micro;
lastChange = "2020-04-05 00:13:22 +0000";
layers = (
{
components = (
{
name = u;
}
);
layerId = "9D4C2422-5CE9-4C2E-AAC7-BF869A02F5C8";
paths = (
{
closed = 1;
nodes = (
"73 -245 LINE",
"113 -245 LINE",
"113 513 LINE",
"73 513 LINE"
);
}
);
width = 601;
},
{
components = (
{
name = u;
}
);
layerId = "C45C3DCC-6617-4D42-8E57-0A4EECAD9C2E";
paths = (
{
closed = 1;
nodes = (
"35 -245 LINE",
"277 -245 LINE",
"277 513 LINE",
"35 513 LINE"
);
}
);
width = 716;
}
);
unicode = 00B5;
},
{
glyphname = percent;
lastChange = "2019-07-12 11:14:09 +0000";
layers = (
{
layerId = "C45C3DCC-6617-4D42-8E57-0A4EECAD9C2E";
paths = (
{
closed = 1;
nodes = (
"184 0 LINE",
"339 0 LINE",
"869 825 LINE",
"714 825 LINE"
);
},
{
closed = 1;
nodes = (
"20 527 OFFCURVE",
"117 425 OFFCURVE",
"265 425 CURVE SMOOTH",
"413 425 OFFCURVE",
"510 527 OFFCURVE",
"510 643 CURVE SMOOTH",
"510 761 OFFCURVE",
"413 861 OFFCURVE",
"265 861 CURVE SMOOTH",
"117 861 OFFCURVE",
"20 761 OFFCURVE",
"20 643 CURVE SMOOTH"
);
},
{
closed = 1;
nodes = (
"184 692 OFFCURVE",
"217 730 OFFCURVE",
"265 730 CURVE SMOOTH",
"313 730 OFFCURVE",
"344 692 OFFCURVE",
"344 643 CURVE SMOOTH",
"344 594 OFFCURVE",
"313 558 OFFCURVE",
"265 558 CURVE SMOOTH",
"217 558 OFFCURVE",
"184 594 OFFCURVE",
"184 643 CURVE SMOOTH"
);
},
{
closed = 1;
nodes = (
"540 66 OFFCURVE",
"637 -36 OFFCURVE",
"785 -36 CURVE SMOOTH",
"933 -36 OFFCURVE",
"1030 66 OFFCURVE",
"1030 182 CURVE SMOOTH",
"1030 300 OFFCURVE",
"933 400 OFFCURVE",
"785 400 CURVE SMOOTH",
"637 400 OFFCURVE",
"540 300 OFFCURVE",
"540 182 CURVE SMOOTH"
);
},
{
closed = 1;
nodes = (
"704 231 OFFCURVE",
"737 269 OFFCURVE",
"785 269 CURVE SMOOTH",
"833 269 OFFCURVE",
"864 231 OFFCURVE",
"864 182 CURVE SMOOTH",
"864 133 OFFCURVE",
"833 97 OFFCURVE",
"785 97 CURVE SMOOTH",
"737 97 OFFCURVE",
"704 133 OFFCURVE",
"704 182 CURVE SMOOTH"
);
}
);
width = 1050;
},
{
layerId = "9D4C2422-5CE9-4C2E-AAC7-BF869A02F5C8";
paths = (
{
closed = 1;
nodes = (
"158 0 LINE",
"199 0 LINE",
"679 825 LINE",
"638 825 LINE"
);
},
{
closed = 1;
nodes = (
"65 563 OFFCURVE",
"125 504 OFFCURVE",
"211 504 CURVE SMOOTH",
"292 504 OFFCURVE",
"355 563 OFFCURVE",
"355 643 CURVE SMOOTH",
"355 725 OFFCURVE",
"287 783 OFFCURVE",
"211 783 CURVE SMOOTH",
"131 783 OFFCURVE",
"65 725 OFFCURVE",
"65 643 CURVE SMOOTH"
);
},
{
closed = 1;
nodes = (
"102 708 OFFCURVE",
"148 749 OFFCURVE",
"210 749 CURVE SMOOTH",
"269 749 OFFCURVE",
"318 708 OFFCURVE",
"318 643 CURVE SMOOTH",
"318 575 OFFCURVE",
"270 538 OFFCURVE",
"210 538 CURVE SMOOTH",
"145 538 OFFCURVE",
"102 576 OFFCURVE",
"102 643 CURVE SMOOTH"
);
},
{
closed = 1;
nodes = (
"483 101 OFFCURVE",
"543 42 OFFCURVE",
"629 42 CURVE SMOOTH",
"710 42 OFFCURVE",
"773 101 OFFCURVE",
"773 181 CURVE SMOOTH",
"773 263 OFFCURVE",
"705 321 OFFCURVE",
"629 321 CURVE SMOOTH",
"549 321 OFFCURVE",
"483 263 OFFCURVE",
"483 181 CURVE SMOOTH"
);
},
{
closed = 1;
nodes = (
"520 246 OFFCURVE",
"566 287 OFFCURVE",
"628 287 CURVE SMOOTH",
"687 287 OFFCURVE",
"736 246 OFFCURVE",
"736 181 CURVE SMOOTH",
"736 113 OFFCURVE",
"688 76 OFFCURVE",
"628 76 CURVE SMOOTH",
"563 76 OFFCURVE",
"520 114 OFFCURVE",
"520 181 CURVE SMOOTH"
);
}
);
width = 862;
}
);
leftKerningGroup = percent;
rightKerningGroup = percent;
unicode = 0025;
},
{
glyphname = perthousand;
lastChange = "2020-04-04 23:56:36 +0000";
layers = (
{
layerId = "C45C3DCC-6617-4D42-8E57-0A4EECAD9C2E";
paths = (
{
closed = 1;
nodes = (
"-4 162 LINE",
"68 62 LINE",
"1085 686 LINE",
"1013 786 LINE"
);
},
{
closed = 1;
nodes = (
"20 527 OFFCURVE",
"117 425 OFFCURVE",
"265 425 CURVE SMOOTH",
"413 425 OFFCURVE",
"510 527 OFFCURVE",
"510 643 CURVE SMOOTH",
"510 761 OFFCURVE",
"413 861 OFFCURVE",
"265 861 CURVE SMOOTH",
"117 861 OFFCURVE",
"20 761 OFFCURVE",
"20 643 CURVE SMOOTH"
);
},
{
closed = 1;
nodes = (
"184 692 OFFCURVE",
"217 730 OFFCURVE",
"265 730 CURVE SMOOTH",
"313 730 OFFCURVE",
"344 692 OFFCURVE",
"344 643 CURVE SMOOTH",
"344 594 OFFCURVE",
"313 558 OFFCURVE",
"265 558 CURVE SMOOTH",
"217 558 OFFCURVE",
"184 594 OFFCURVE",
"184 643 CURVE SMOOTH"
);
},
{
closed = 1;
nodes = (
"510 66 OFFCURVE",
"607 -36 OFFCURVE",
"755 -36 CURVE SMOOTH",
"903 -36 OFFCURVE",
"1000 66 OFFCURVE",
"1000 182 CURVE SMOOTH",
"1000 300 OFFCURVE",
"903 400 OFFCURVE",
"755 400 CURVE SMOOTH",
"607 400 OFFCURVE",
"510 300 OFFCURVE",
"510 182 CURVE SMOOTH"
);
},
{
closed = 1;
nodes = (
"674 231 OFFCURVE",
"707 269 OFFCURVE",
"755 269 CURVE SMOOTH",
"803 269 OFFCURVE",
"834 231 OFFCURVE",
"834 182 CURVE SMOOTH",
"834 133 OFFCURVE",
"803 97 OFFCURVE",
"755 97 CURVE SMOOTH",
"707 97 OFFCURVE",
"674 133 OFFCURVE",
"674 182 CURVE SMOOTH"
);
},
{
closed = 1;
nodes = (
"1030 66 OFFCURVE",
"1127 -36 OFFCURVE",
"1275 -36 CURVE SMOOTH",
"1423 -36 OFFCURVE",
"1520 66 OFFCURVE",
"1520 182 CURVE SMOOTH",
"1520 300 OFFCURVE",
"1423 400 OFFCURVE",
"1275 400 CURVE SMOOTH",
"1127 400 OFFCURVE",
"1030 300 OFFCURVE",
"1030 182 CURVE SMOOTH"
);
},
{
closed = 1;
nodes = (
"1194 231 OFFCURVE",
"1227 269 OFFCURVE",
"1275 269 CURVE SMOOTH",
"1323 269 OFFCURVE",
"1354 231 OFFCURVE",
"1354 182 CURVE SMOOTH",
"1354 133 OFFCURVE",
"1323 97 OFFCURVE",
"1275 97 CURVE SMOOTH",
"1227 97 OFFCURVE",
"1194 133 OFFCURVE",
"1194 182 CURVE SMOOTH"
);
}
);
width = 1540;
},
{
layerId = "9D4C2422-5CE9-4C2E-AAC7-BF869A02F5C8";
paths = (
{
closed = 1;
nodes = (
"10 185 LINE",
"29 160 LINE",
"931 755 LINE",
"912 780 LINE"
);
},
{
closed = 1;
nodes = (
"135 563 OFFCURVE",
"195 504 OFFCURVE",
"281 504 CURVE SMOOTH",
"362 504 OFFCURVE",
"425 563 OFFCURVE",
"425 643 CURVE SMOOTH",
"425 725 OFFCURVE",
"357 783 OFFCURVE",
"281 783 CURVE SMOOTH",
"201 783 OFFCURVE",
"135 725 OFFCURVE",
"135 643 CURVE SMOOTH"
);
},
{
closed = 1;
nodes = (
"172 708 OFFCURVE",
"218 749 OFFCURVE",
"280 749 CURVE SMOOTH",
"339 749 OFFCURVE",
"388 708 OFFCURVE",
"388 643 CURVE SMOOTH",
"388 575 OFFCURVE",
"340 538 OFFCURVE",
"280 538 CURVE SMOOTH",
"215 538 OFFCURVE",
"172 576 OFFCURVE",
"172 643 CURVE SMOOTH"
);
},
{
closed = 1;
nodes = (
"284 101 OFFCURVE",
"344 42 OFFCURVE",
"430 42 CURVE SMOOTH",
"511 42 OFFCURVE",
"574 101 OFFCURVE",
"574 181 CURVE SMOOTH",
"574 263 OFFCURVE",
"506 321 OFFCURVE",
"430 321 CURVE SMOOTH",
"350 321 OFFCURVE",
"284 263 OFFCURVE",
"284 181 CURVE SMOOTH"
);
},
{
closed = 1;
nodes = (
"321 246 OFFCURVE",
"367 287 OFFCURVE",
"429 287 CURVE SMOOTH",
"488 287 OFFCURVE",
"537 246 OFFCURVE",
"537 181 CURVE SMOOTH",
"537 113 OFFCURVE",
"489 76 OFFCURVE",
"429 76 CURVE SMOOTH",
"364 76 OFFCURVE",
"321 114 OFFCURVE",
"321 181 CURVE SMOOTH"
);
},
{
closed = 1;
nodes = (
"650 101 OFFCURVE",
"710 42 OFFCURVE",
"796 42 CURVE SMOOTH",
"877 42 OFFCURVE",
"940 101 OFFCURVE",
"940 181 CURVE SMOOTH",
"940 263 OFFCURVE",
"872 321 OFFCURVE",
"796 321 CURVE SMOOTH",
"716 321 OFFCURVE",
"650 263 OFFCURVE",
"650 181 CURVE SMOOTH"
);
},
{
closed = 1;
nodes = (
"687 246 OFFCURVE",
"733 287 OFFCURVE",
"795 287 CURVE SMOOTH",
"854 287 OFFCURVE",
"903 246 OFFCURVE",
"903 181 CURVE SMOOTH",
"903 113 OFFCURVE",
"855 76 OFFCURVE",
"795 76 CURVE SMOOTH",
"730 76 OFFCURVE",
"687 114 OFFCURVE",
"687 181 CURVE SMOOTH"
);
}
);
width = 991;
}
);
leftKerningGroup = percent;
rightKerningGroup = percent;
unicode = 2030;
},
{
glyphname = at;
lastChange = "2020-04-04 14:49:59 +0000";
layers = (
{
layerId = "C45C3DCC-6617-4D42-8E57-0A4EECAD9C2E";
paths = (
{
closed = 1;
nodes = (
"627 -15 OFFCURVE",
"726 36 OFFCURVE",
"756 75 CURVE",
"607 204 LINE",
"591 186 OFFCURVE",
"542 163 OFFCURVE",
"468 163 CURVE SMOOTH",
"316 163 OFFCURVE",
"210 273 OFFCURVE",
"210 413 CURVE SMOOTH",
"210 554 OFFCURVE",
"323 677 OFFCURVE",
"478 677 CURVE SMOOTH",
"637 677 OFFCURVE",
"751 583 OFFCURVE",
"751 452 CURVE SMOOTH",
"751 401 OFFCURVE",
"748 378 OFFCURVE",
"715 378 CURVE SMOOTH",
"682 378 OFFCURVE",
"677 403 OFFCURVE",
"677 428 CURVE",
"677 595 LINE",
"531 595 LINE",
"531 567 LINE",
"490 602 OFFCURVE",
"451 606 OFFCURVE",
"418 606 CURVE SMOOTH",
"317 606 OFFCURVE",
"238 526 OFFCURVE",
"238 413 CURVE SMOOTH",
"238 298 OFFCURVE",
"328 202 OFFCURVE",
"438 202 CURVE SMOOTH",
"544 202 OFFCURVE",
"576 242 OFFCURVE",
"599 275 CURVE",
"622 250 OFFCURVE",
"666 225 OFFCURVE",
"713 225 CURVE SMOOTH",
"815 225 OFFCURVE",
"934 282 OFFCURVE",
"934 442 CURVE SMOOTH",
"934 678 OFFCURVE",
"712 840 OFFCURVE",
"478 840 CURVE SMOOTH",
"234 840 OFFCURVE",
"28 667 OFFCURVE",
"28 413 CURVE SMOOTH",
"28 159 OFFCURVE",
"224 -15 OFFCURVE",
"468 -15 CURVE SMOOTH"
);
},
{
closed = 1;
nodes = (
"454 358 OFFCURVE",
"432 380 OFFCURVE",
"432 408 CURVE SMOOTH",
"432 435 OFFCURVE",
"454 457 OFFCURVE",
"482 457 CURVE SMOOTH",
"509 457 OFFCURVE",
"531 435 OFFCURVE",
"531 408 CURVE SMOOTH",
"531 380 OFFCURVE",
"509 358 OFFCURVE",
"482 358 CURVE SMOOTH"
);
}
);
width = 946;
},
{
layerId = "9D4C2422-5CE9-4C2E-AAC7-BF869A02F5C8";
paths = (
{
closed = 1;
nodes = (
"627 -15 OFFCURVE",
"742 61 OFFCURVE",
"786 118 CURVE",
"752 145 LINE",
"714 93 OFFCURVE",
"612 23 OFFCURVE",
"473 23 CURVE SMOOTH",
"265 23 OFFCURVE",
"73 188 OFFCURVE",
"73 413 CURVE SMOOTH",
"73 640 OFFCURVE",
"276 802 OFFCURVE",
"488 802 CURVE SMOOTH",
"705 802 OFFCURVE",
"869 643 OFFCURVE",
"869 442 CURVE SMOOTH",
"869 306 OFFCURVE",
"780 250 OFFCURVE",
"727 250 CURVE SMOOTH",
"670 250 OFFCURVE",
"661 305 OFFCURVE",
"661 324 CURVE",
"661 595 LINE",
"621 595 LINE",
"621 523 LINE",
"617 539 OFFCURVE",
"556 610 OFFCURVE",
"454 610 CURVE SMOOTH",
"320 610 OFFCURVE",
"241 518 OFFCURVE",
"241 406 CURVE SMOOTH",
"241 294 OFFCURVE",
"320 200 OFFCURVE",
"454 200 CURVE SMOOTH",
"550 200 OFFCURVE",
"621 260 OFFCURVE",
"627 310 CURVE",
"627 257 OFFCURVE",
"652 217 OFFCURVE",
"728 217 CURVE SMOOTH",
"813 217 OFFCURVE",
"909 299 OFFCURVE",
"909 442 CURVE SMOOTH",
"909 678 OFFCURVE",
"722 840 OFFCURVE",
"488 840 CURVE SMOOTH",
"244 840 OFFCURVE",
"33 667 OFFCURVE",
"33 413 CURVE SMOOTH",
"33 159 OFFCURVE",
"229 -15 OFFCURVE",
"473 -15 CURVE SMOOTH"
);
},
{
closed = 1;
nodes = (
"348 237 OFFCURVE",
"281 312 OFFCURVE",
"281 406 CURVE SMOOTH",
"281 502 OFFCURVE",
"354 573 OFFCURVE",
"454 573 CURVE SMOOTH",
"547 573 OFFCURVE",
"622 507 OFFCURVE",
"622 411 CURVE SMOOTH",
"622 317 OFFCURVE",
"561 237 OFFCURVE",
"454 237 CURVE SMOOTH"
);
}
);
width = 966;
}
);
leftKerningGroup = at;
rightKerningGroup = at;
unicode = 0040;
},
{
glyphname = ampersand;
lastChange = "2020-04-04 14:49:59 +0000";
layers = (
{
layerId = "C45C3DCC-6617-4D42-8E57-0A4EECAD9C2E";
paths = (
{
closed = 1;
nodes = (
"10 65 OFFCURVE",
"156 -15 OFFCURVE",
"303 -15 CURVE SMOOTH",
"429 -15 OFFCURVE",
"503 23 OFFCURVE",
"567 67 CURVE",
"631 0 LINE",
"933 0 LINE",
"751 190 LINE",
"798 225 OFFCURVE",
"847 279 OFFCURVE",
"871 310 CURVE",
"712 457 LINE",
"661 393 OFFCURVE",
"615 352 OFFCURVE",
"594 339 CURVE",
"516 417 LINE",
"584 453 OFFCURVE",
"673 532 OFFCURVE",
"673 618 CURVE SMOOTH",
"673 744 OFFCURVE",
"590 840 OFFCURVE",
"407 840 CURVE SMOOTH",
"213 840 OFFCURVE",
"120 734 OFFCURVE",
"120 622 CURVE SMOOTH",
"120 533 OFFCURVE",
"168 477 OFFCURVE",
"211 458 CURVE",
"161 445 OFFCURVE",
"10 380 OFFCURVE",
"10 233 CURVE SMOOTH"
);
},
{
closed = 1;
nodes = (
"411 229 LINE",
"398 221 OFFCURVE",
"373 211 OFFCURVE",
"351 211 CURVE SMOOTH",
"312 211 OFFCURVE",
"288 223 OFFCURVE",
"288 257 CURVE SMOOTH",
"288 281 OFFCURVE",
"310 305 OFFCURVE",
"327 316 CURVE"
);
},
{
closed = 1;
nodes = (
"439 660 OFFCURVE",
"454 641 OFFCURVE",
"454 619 CURVE SMOOTH",
"454 587 OFFCURVE",
"404 551 OFFCURVE",
"395 546 CURVE",
"390 551 OFFCURVE",
"357 587 OFFCURVE",
"357 619 CURVE SMOOTH",
"357 641 OFFCURVE",
"373 660 OFFCURVE",
"406 660 CURVE SMOOTH"
);
}
);
width = 895;
},
{
layerId = "9D4C2422-5CE9-4C2E-AAC7-BF869A02F5C8";
paths = (
{
closed = 1;
nodes = (
"52 74 OFFCURVE",
"140 -15 OFFCURVE",
"280 -15 CURVE SMOOTH",
"421 -15 OFFCURVE",
"530 67 OFFCURVE",
"597 138 CURVE",
"724 0 LINE",
"778 0 LINE",
"622 167 LINE",
"647 194 OFFCURVE",
"694 266 OFFCURVE",
"705 295 CURVE",
"676 315 LINE",
"651 262 OFFCURVE",
"617 213 OFFCURVE",
"598 190 CURVE",
"372 440 LINE",
"403 451 OFFCURVE",
"574 512 OFFCURVE",
"574 671 CURVE SMOOTH",
"574 768 OFFCURVE",
"499 840 OFFCURVE",
"387 840 CURVE SMOOTH",
"281 840 OFFCURVE",
"193 769 OFFCURVE",
"193 671 CURVE SMOOTH",
"193 579 OFFCURVE",
"284 478 OFFCURVE",
"307 455 CURVE",
"257 439 OFFCURVE",
"52 371 OFFCURVE",
"52 193 CURVE SMOOTH"
);
},
{
closed = 1;
nodes = (
"575 163 LINE",
"521 102 OFFCURVE",
"404 21 OFFCURVE",
"279 21 CURVE SMOOTH",
"180 21 OFFCURVE",
"89 80 OFFCURVE",
"89 193 CURVE SMOOTH",
"89 352 OFFCURVE",
"288 415 OFFCURVE",
"332 426 CURVE"
);
},
{
closed = 1;
nodes = (
"473 801 OFFCURVE",
"537 745 OFFCURVE",
"537 671 CURVE SMOOTH",
"537 535 OFFCURVE",
"397 480 OFFCURVE",
"348 467 CURVE",
"341 474 OFFCURVE",
"231 585 OFFCURVE",
"231 671 CURVE SMOOTH",
"231 734 OFFCURVE",
"287 801 OFFCURVE",
"385 801 CURVE SMOOTH"
);
}
);
width = 809;
}
);
leftKerningGroup = ampersand;
rightKerningGroup = ampersand;
unicode = 0026;
},
{
glyphname = paragraph;
lastChange = "2019-07-10 14:01:49 +0000";
layers = (
{
layerId = "C45C3DCC-6617-4D42-8E57-0A4EECAD9C2E";
paths = (
{
closed = 1;
nodes = (
"690 825 LINE",
"262 825 LINE SMOOTH",
"105 825 OFFCURVE",
"-9 712 OFFCURVE",
"-9 553 CURVE SMOOTH",
"-9 395 OFFCURVE",
"105 270 OFFCURVE",
"262 270 CURVE SMOOTH",
"380 270 LINE",
"380 0 LINE",
"508 0 LINE",
"508 699 LINE",
"563 699 LINE",
"563 0 LINE",
"690 0 LINE"
);
}
);
width = 733;
},
{
layerId = "9D4C2422-5CE9-4C2E-AAC7-BF869A02F5C8";
paths = (
{
closed = 1;
nodes = (
"473 825 LINE",
"291 825 LINE SMOOTH",
"118 825 OFFCURVE",
"54 712 OFFCURVE",
"54 621 CURVE SMOOTH",
"54 531 OFFCURVE",
"118 406 OFFCURVE",
"291 406 CURVE SMOOTH",
"325 406 LINE",
"325 0 LINE",
"359 0 LINE",
"359 784 LINE",
"439 784 LINE",
"439 0 LINE",
"473 0 LINE"
);
}
);
width = 588;
}
);
leftKerningGroup = paragraph;
rightKerningGroup = paragraph;
unicode = 00B6;
},
{
glyphname = section;
lastChange = "2020-04-04 14:49:59 +0000";
layers = (
{
layerId = "C45C3DCC-6617-4D42-8E57-0A4EECAD9C2E";
paths = (
{
closed = 1;
nodes = (
"470 -275 OFFCURVE",
"586 -188 OFFCURVE",
"586 -56 CURVE SMOOTH",
"586 25 OFFCURVE",
"555 84 OFFCURVE",
"490 122 CURVE",
"583 163 OFFCURVE",
"640 225 OFFCURVE",
"640 317 CURVE SMOOTH",
"640 431 OFFCURVE",
"556 506 OFFCURVE",
"430 550 CURVE SMOOTH",
"310 592 OFFCURVE",
"307 611 OFFCURVE",
"307 625 CURVE SMOOTH",
"307 637 OFFCURVE",
"317 647 OFFCURVE",
"339 647 CURVE SMOOTH",
"364 647 OFFCURVE",
"381 622 OFFCURVE",
"387 604 CURVE",
"596 648 LINE",
"582 731 OFFCURVE",
"502 840 OFFCURVE",
"337 840 CURVE SMOOTH",
"162 840 OFFCURVE",
"60 740 OFFCURVE",
"60 622 CURVE SMOOTH",
"60 547 OFFCURVE",
"99 483 OFFCURVE",
"159 440 CURVE",
"96 419 OFFCURVE",
"6 335 OFFCURVE",
"6 244 CURVE SMOOTH",
"6 137 OFFCURVE",
"63 63 OFFCURVE",
"190 20 CURVE SMOOTH",
"301 -18 OFFCURVE",
"332 -41 OFFCURVE",
"332 -58 CURVE SMOOTH",
"332 -77 OFFCURVE",
"318 -82 OFFCURVE",
"294 -82 CURVE SMOOTH",
"255 -82 OFFCURVE",
"234 -49 OFFCURVE",
"228 -24 CURVE",
"14 -78 LINE",
"28 -163 OFFCURVE",
"114 -275 OFFCURVE",
"294 -275 CURVE SMOOTH"
);
},
{
closed = 1;
nodes = (
"281 362 OFFCURVE",
"318 345 OFFCURVE",
"318 345 CURVE SMOOTH",
"367 322 OFFCURVE",
"420 292 OFFCURVE",
"420 264 CURVE SMOOTH",
"420 229 OFFCURVE",
"396 210 OFFCURVE",
"350 199 CURVE",
"344 203 OFFCURVE",
"328 211 OFFCURVE",
"325 212 CURVE SMOOTH",
"275 234 OFFCURVE",
"226 256 OFFCURVE",
"226 294 CURVE SMOOTH",
"226 324 OFFCURVE",
"246 352 OFFCURVE",
"281 362 CURVE"
);
}
);
width = 665;
},
{
layerId = "9D4C2422-5CE9-4C2E-AAC7-BF869A02F5C8";
paths = (
{
closed = 1;
nodes = (
"492 -275 OFFCURVE",
"540 -152 OFFCURVE",
"540 -66 CURVE SMOOTH",
"540 4 OFFCURVE",
"504 65 OFFCURVE",
"441 101 CURVE",
"495 126 OFFCURVE",
"564 179 OFFCURVE",
"564 267 CURVE SMOOTH",
"564 378 OFFCURVE",
"468 424 OFFCURVE",
"345 474 CURVE SMOOTH",
"258 509 OFFCURVE",
"155 560 OFFCURVE",
"155 672 CURVE SMOOTH",
"155 749 OFFCURVE",
"230 803 OFFCURVE",
"338 803 CURVE SMOOTH",
"439 803 OFFCURVE",
"497 734 OFFCURVE",
"513 682 CURVE",
"543 704 LINE",
"525 762 OFFCURVE",
"456 840 OFFCURVE",
"336 840 CURVE SMOOTH",
"191 840 OFFCURVE",
"116 757 OFFCURVE",
"116 666 CURVE SMOOTH",
"116 570 OFFCURVE",
"175 525 OFFCURVE",
"236 482 CURVE",
"190 470 OFFCURVE",
"93 415 OFFCURVE",
"93 321 CURVE SMOOTH",
"93 230 OFFCURVE",
"161 181 OFFCURVE",
"290 131 CURVE SMOOTH",
"405 86 OFFCURVE",
"499 38 OFFCURVE",
"499 -71 CURVE SMOOTH",
"499 -160 OFFCURVE",
"452 -237 OFFCURVE",
"298 -237 CURVE SMOOTH",
"187 -237 OFFCURVE",
"124 -165 OFFCURVE",
"108 -111 CURVE",
"71 -129 LINE",
"94 -192 OFFCURVE",
"171 -275 OFFCURVE",
"298 -275 CURVE SMOOTH"
);
},
{
closed = 1;
nodes = (
"279 460 OFFCURVE",
"312 447 OFFCURVE",
"336 438 CURVE SMOOTH",
"437 398 OFFCURVE",
"525 346 OFFCURVE",
"525 270 CURVE SMOOTH",
"525 184 OFFCURVE",
"443 133 OFFCURVE",
"409 122 CURVE",
"386 131 OFFCURVE",
"344 149 OFFCURVE",
"280 175 CURVE SMOOTH",
"201 207 OFFCURVE",
"133 251 OFFCURVE",
"133 319 CURVE SMOOTH",
"133 401 OFFCURVE",
"212 444 OFFCURVE",
"275 462 CURVE"
);
}
);
width = 685;
}
);
leftKerningGroup = section;
rightKerningGroup = section;
unicode = 00A7;
},
{
glyphname = copyright;
lastChange = "2020-04-04 14:49:57 +0000";
layers = (
{
layerId = "C45C3DCC-6617-4D42-8E57-0A4EECAD9C2E";
paths = (
{
closed = 1;
nodes = (
"28 177 OFFCURVE",
"220 -15 OFFCURVE",
"455 -15 CURVE SMOOTH",
"691 -15 OFFCURVE",
"883 177 OFFCURVE",
"883 412 CURVE SMOOTH",
"883 648 OFFCURVE",
"691 840 OFFCURVE",
"455 840 CURVE SMOOTH",
"220 840 OFFCURVE",
"28 648 OFFCURVE",
"28 412 CURVE SMOOTH"
);
},
{
closed = 1;
nodes = (
"166 572 OFFCURVE",
"296 702 OFFCURVE",
"455 702 CURVE SMOOTH",
"615 702 OFFCURVE",
"745 572 OFFCURVE",
"745 412 CURVE SMOOTH",
"745 253 OFFCURVE",
"615 123 OFFCURVE",
"455 123 CURVE SMOOTH",
"296 123 OFFCURVE",
"166 253 OFFCURVE",
"166 412 CURVE SMOOTH"
);
},
{
closed = 1;
nodes = (
"450 492 OFFCURVE",
"421 452 OFFCURVE",
"421 414 CURVE SMOOTH",
"421 374 OFFCURVE",
"450 334 OFFCURVE",
"492 334 CURVE SMOOTH",
"517 334 OFFCURVE",
"536 343 OFFCURVE",
"540 346 CURVE",
"593 238 LINE",
"593 238 OFFCURVE",
"538 205 OFFCURVE",
"462 205 CURVE SMOOTH",
"349 205 OFFCURVE",
"244 297 OFFCURVE",
"244 412 CURVE SMOOTH",
"244 529 OFFCURVE",
"349 623 OFFCURVE",
"462 623 CURVE SMOOTH",
"547 623 OFFCURVE",
"590 591 OFFCURVE",
"593 588 CURVE",
"542 482 LINE",
"542 482 OFFCURVE",
"510 492 OFFCURVE",
"492 492 CURVE SMOOTH"
);
}
);
width = 926;
},
{
layerId = "9D4C2422-5CE9-4C2E-AAC7-BF869A02F5C8";
paths = (
{
closed = 1;
nodes = (
"33 177 OFFCURVE",
"225 -15 OFFCURVE",
"460 -15 CURVE SMOOTH",
"696 -15 OFFCURVE",
"888 177 OFFCURVE",
"888 412 CURVE SMOOTH",
"888 648 OFFCURVE",
"696 840 OFFCURVE",
"460 840 CURVE SMOOTH",
"225 840 OFFCURVE",
"33 648 OFFCURVE",
"33 412 CURVE SMOOTH"
);
},
{
closed = 1;
nodes = (
"66 629 OFFCURVE",
"244 807 OFFCURVE",
"460 807 CURVE SMOOTH",
"677 807 OFFCURVE",
"855 629 OFFCURVE",
"855 412 CURVE SMOOTH",
"855 196 OFFCURVE",
"677 18 OFFCURVE",
"460 18 CURVE SMOOTH",
"244 18 OFFCURVE",
"66 196 OFFCURVE",
"66 412 CURVE SMOOTH"
);
},
{
closed = 1;
nodes = (
"381 545 OFFCURVE",
"321 493 OFFCURVE",
"321 405 CURVE SMOOTH",
"321 315 OFFCURVE",
"383 266 OFFCURVE",
"464 266 CURVE SMOOTH",
"509 266 OFFCURVE",
"545 281 OFFCURVE",
"559 292 CURVE",
"574 262 LINE",
"553 249 OFFCURVE",
"509 232 OFFCURVE",
"463 232 CURVE SMOOTH",
"359 232 OFFCURVE",
"285 308 OFFCURVE",
"285 403 CURVE SMOOTH",
"285 503 OFFCURVE",
"359 578 OFFCURVE",
"463 578 CURVE SMOOTH",
"533 578 OFFCURVE",
"572 549 OFFCURVE",
"574 546 CURVE",
"558 514 LINE",
"544 527 OFFCURVE",
"508 545 OFFCURVE",
"462 545 CURVE SMOOTH"
);
}
);
width = 946;
}
);
leftKerningGroup = copyright;
rightKerningGroup = copyright;
unicode = 00A9;
},
{
glyphname = registered;
lastChange = "2019-07-14 14:14:59 +0000";
layers = (
{
layerId = "C45C3DCC-6617-4D42-8E57-0A4EECAD9C2E";
paths = (
{
closed = 1;
nodes = (
"28 492 OFFCURVE",
"129 392 OFFCURVE",
"251 392 CURVE SMOOTH",
"376 392 OFFCURVE",
"476 492 OFFCURVE",
"476 615 CURVE SMOOTH",
"476 739 OFFCURVE",
"376 840 OFFCURVE",
"251 840 CURVE SMOOTH",
"129 840 OFFCURVE",
"28 739 OFFCURVE",
"28 615 CURVE SMOOTH"
);
},
{
closed = 1;
nodes = (
"101 699 OFFCURVE",
"169 767 OFFCURVE",
"251 767 CURVE SMOOTH",
"336 767 OFFCURVE",
"403 699 OFFCURVE",
"403 615 CURVE SMOOTH",
"403 532 OFFCURVE",
"336 465 OFFCURVE",
"251 465 CURVE SMOOTH",
"169 465 OFFCURVE",
"101 532 OFFCURVE",
"101 615 CURVE SMOOTH"
);
},
{
closed = 1;
nodes = (
"179 513 LINE",
"232 513 LINE",
"232 595 LINE",
"222 595 LINE",
"291 513 LINE",
"362 513 LINE",
"280 599 LINE",
"305 608 OFFCURVE",
"324 627 OFFCURVE",
"324 659 CURVE SMOOTH",
"324 699 OFFCURVE",
"295 720 OFFCURVE",
"256 720 CURVE SMOOTH",
"179 720 LINE"
);
},
{
closed = 1;
nodes = (
"232 679 LINE",
"229 679 LINE SMOOTH",
"241 679 OFFCURVE",
"266 680 OFFCURVE",
"266 654 CURVE SMOOTH",
"266 629 OFFCURVE",
"242 632 OFFCURVE",
"228 632 CURVE SMOOTH",
"232 632 LINE"
);
}
);
width = 519;
},
{
layerId = "9D4C2422-5CE9-4C2E-AAC7-BF869A02F5C8";
paths = (
{
closed = 1;
nodes = (
"33 492 OFFCURVE",
"134 392 OFFCURVE",
"256 392 CURVE SMOOTH",
"381 392 OFFCURVE",
"481 492 OFFCURVE",
"481 615 CURVE SMOOTH",
"481 739 OFFCURVE",
"381 840 OFFCURVE",
"256 840 CURVE SMOOTH",
"134 840 OFFCURVE",
"33 739 OFFCURVE",
"33 615 CURVE SMOOTH"
);
},
{
closed = 1;
nodes = (
"66 721 OFFCURVE",
"152 807 OFFCURVE",
"256 807 CURVE SMOOTH",
"364 807 OFFCURVE",
"448 721 OFFCURVE",
"448 615 CURVE SMOOTH",
"448 509 OFFCURVE",
"364 425 OFFCURVE",
"256 425 CURVE SMOOTH",
"152 425 OFFCURVE",
"66 509 OFFCURVE",
"66 615 CURVE SMOOTH"
);
},
{
closed = 1;
nodes = (
"199 513 LINE",
"230 513 LINE",
"230 595 LINE",
"260 595 LINE",
"303 513 LINE",
"337 513 LINE",
"289 599 LINE",
"314 608 OFFCURVE",
"329 627 OFFCURVE",
"329 659 CURVE SMOOTH",
"329 699 OFFCURVE",
"300 720 OFFCURVE",
"261 720 CURVE SMOOTH",
"199 720 LINE"
);
},
{
closed = 1;
nodes = (
"230 691 LINE",
"252 691 LINE SMOOTH",
"277 691 OFFCURVE",
"298 688 OFFCURVE",
"298 659 CURVE SMOOTH",
"298 630 OFFCURVE",
"282 620 OFFCURVE",
"256 620 CURVE SMOOTH",
"230 620 LINE"
);
}
);
width = 539;
}
);
leftKerningGroup = registered;
rightKerningGroup = registered;
unicode = 00AE;
},
{
glyphname = trademark;
lastChange = "2019-07-10 14:01:49 +0000";
layers = (
{
layerId = "C45C3DCC-6617-4D42-8E57-0A4EECAD9C2E";
paths = (
{
closed = 1;
nodes = (
"7 764 LINE",
"62 764 LINE",
"62 567 LINE",
"135 567 LINE",
"135 764 LINE",
"190 764 LINE",
"190 825 LINE",
"7 825 LINE"
);
},
{
closed = 1;
nodes = (
"492 825 LINE",
"420 825 LINE",
"356 695 LINE",
"291 825 LINE",
"219 825 LINE",
"196 567 LINE",
"267 567 LINE",
"279 698 LINE",
"280 698 LINE",
"340 569 LINE",
"372 569 LINE",
"433 698 LINE",
"434 698 LINE",
"444 567 LINE",
"516 567 LINE"
);
}
);
width = 539;
},
{
layerId = "9D4C2422-5CE9-4C2E-AAC7-BF869A02F5C8";
paths = (
{
closed = 1;
nodes = (
"35 798 LINE",
"114 798 LINE",
"114 567 LINE",
"140 567 LINE",
"140 798 LINE",
"218 798 LINE",
"218 825 LINE",
"35 825 LINE"
);
},
{
closed = 1;
nodes = (
"406 825 LINE",
"368 825 LINE",
"333 627 LINE",
"296 825 LINE",
"258 825 LINE",
"235 567 LINE",
"261 567 LINE",
"278 783 LINE",
"279 783 LINE",
"312 569 LINE",
"354 569 LINE",
"386 783 LINE",
"387 783 LINE",
"404 567 LINE",
"430 567 LINE"
);
}
);
width = 492;
}
);
leftKerningGroup = trademark;
rightKerningGroup = trademark;
unicode = 2122;
},
{
glyphname = degree;
lastChange = "2019-07-10 14:01:49 +0000";
layers = (
{
layerId = "C45C3DCC-6617-4D42-8E57-0A4EECAD9C2E";
paths = (
{
closed = 1;
nodes = (
"62 707 OFFCURVE",
"115 660 OFFCURVE",
"191 660 CURVE SMOOTH",
"266 660 OFFCURVE",
"319 707 OFFCURVE",
"319 772 CURVE SMOOTH",
"319 838 OFFCURVE",
"262 884 OFFCURVE",
"191 884 CURVE SMOOTH",
"119 884 OFFCURVE",
"62 838 OFFCURVE",
"62 772 CURVE SMOOTH"
);
},
{
closed = 1;
nodes = (
"151 797 OFFCURVE",
"169 815 OFFCURVE",
"191 815 CURVE SMOOTH",
"213 815 OFFCURVE",
"231 797 OFFCURVE",
"231 772 CURVE SMOOTH",
"231 749 OFFCURVE",
"214 728 OFFCURVE",
"191 728 CURVE SMOOTH",
"167 728 OFFCURVE",
"151 748 OFFCURVE",
"151 772 CURVE SMOOTH"
);
}
);
width = 397;
},
{
layerId = "9D4C2422-5CE9-4C2E-AAC7-BF869A02F5C8";
paths = (
{
closed = 1;
nodes = (
"87 726 OFFCURVE",
"120 694 OFFCURVE",
"168 694 CURVE SMOOTH",
"215 694 OFFCURVE",
"249 726 OFFCURVE",
"249 772 CURVE SMOOTH",
"249 819 OFFCURVE",
"213 850 OFFCURVE",
"168 850 CURVE SMOOTH",
"123 850 OFFCURVE",
"87 819 OFFCURVE",
"87 772 CURVE SMOOTH"
);
},
{
closed = 1;
nodes = (
"115 801 OFFCURVE",
"139 823 OFFCURVE",
"168 823 CURVE SMOOTH",
"198 823 OFFCURVE",
"222 801 OFFCURVE",
"222 772 CURVE SMOOTH",
"222 743 OFFCURVE",
"198 720 OFFCURVE",
"168 720 CURVE SMOOTH",
"137 720 OFFCURVE",
"115 743 OFFCURVE",
"115 772 CURVE SMOOTH"
);
}
);
width = 361;
}
);
leftKerningGroup = degree;
rightKerningGroup = degree;
unicode = 00B0;
},
{
glyphname = bar;
lastChange = "2020-04-05 00:33:14 +0000";
layers = (
{
layerId = "C45C3DCC-6617-4D42-8E57-0A4EECAD9C2E";
paths = (
{
closed = 1;
nodes = (
"256 890 LINE",
"38 890 LINE",
"38 -161 LINE",
"256 -161 LINE"
);
}
);
width = 298;
},
{
layerId = "9D4C2422-5CE9-4C2E-AAC7-BF869A02F5C8";
paths = (
{
closed = 1;
nodes = (
"115 880 LINE",
"77 880 LINE",
"77 -151 LINE",
"115 -151 LINE"
);
}
);
width = 218;
}
);
leftKerningGroup = bar;
rightKerningGroup = bar;
unicode = 007C;
},
{
glyphname = brokenbar;
lastChange = "2019-07-10 14:01:49 +0000";
layers = (
{
layerId = "C45C3DCC-6617-4D42-8E57-0A4EECAD9C2E";
paths = (
{
closed = 1;
nodes = (
"241 860 LINE",
"43 860 LINE",
"43 528 LINE",
"241 528 LINE"
);
},
{
closed = 1;
nodes = (
"241 332 LINE",
"43 332 LINE",
"43 0 LINE",
"241 0 LINE"
);
}
);
width = 298;
},
{
layerId = "9D4C2422-5CE9-4C2E-AAC7-BF869A02F5C8";
paths = (
{
closed = 1;
nodes = (
"110 860 LINE",
"82 860 LINE",
"82 528 LINE",
"110 528 LINE"
);
},
{
closed = 1;
nodes = (
"110 332 LINE",
"82 332 LINE",
"82 0 LINE",
"110 0 LINE"
);
}
);
width = 218;
}
);
leftKerningGroup = brokenbar;
rightKerningGroup = brokenbar;
unicode = 00A6;
},
{
glyphname = numero;
lastChange = "2020-04-05 00:09:20 +0000";
layers = (
{
components = (
{
name = N;
},
{
alignment = -1;
name = o;
transform = "{1, 0, 0, 1, 800, 302}";
}
);
layerId = "9D4C2422-5CE9-4C2E-AAC7-BF869A02F5C8";
paths = (
{
closed = 1;
nodes = (
"831 0 LINE",
"1353 0 LINE",
"1353 41 LINE",
"831 41 LINE"
);
}
);
width = 1411;
},
{
components = (
{
name = N;
},
{
alignment = -1;
name = o;
transform = "{1, 0, 0, 1, 943, 304}";
}
);
layerId = "C45C3DCC-6617-4D42-8E57-0A4EECAD9C2E";
paths = (
{
closed = 1;
nodes = (
"978 0 LINE",
"1548 0 LINE",
"1548 184 LINE",
"978 184 LINE"
);
}
);
width = 1601;
}
);
unicode = 2116;
},
{
glyphname = hookabovecomb;
lastChange = "2020-04-05 00:21:54 +0000";
layers = (
{
anchors = (
{
name = _top;
position = "{338, 513}";
},
{
name = top;
position = "{338, 836}";
}
);
layerId = "9D4C2422-5CE9-4C2E-AAC7-BF869A02F5C8";
paths = (
{
closed = 1;
nodes = (
"340 590 OFFCURVE",
"420 627 OFFCURVE",
"420 700 CURVE SMOOTH",
"420 773 OFFCURVE",
"365 777 OFFCURVE",
"327 777 CURVE SMOOTH",
"291 777 OFFCURVE",
"239 759 OFFCURVE",
"214 746 CURVE",
"214 786 LINE",
"229 796 OFFCURVE",
"272 816 OFFCURVE",
"339 816 CURVE SMOOTH",
"402 816 OFFCURVE",
"462 792 OFFCURVE",
"462 705 CURVE SMOOTH",
"462 613 OFFCURVE",
"383 572 OFFCURVE",
"329 549 CURVE",
"305 581 LINE"
);
}
);
width = 700;
},
{
anchors = (
{
name = _top;
position = "{363, 513}";
},
{
name = top;
position = "{363, 876}";
}
);
layerId = "C45C3DCC-6617-4D42-8E57-0A4EECAD9C2E";
paths = (
{
closed = 1;
nodes = (
"310 629 OFFCURVE",
"370 660 OFFCURVE",
"370 696 CURVE SMOOTH",
"370 732 OFFCURVE",
"348 737 OFFCURVE",
"310 737 CURVE SMOOTH",
"274 737 OFFCURVE",
"239 722 OFFCURVE",
"214 709 CURVE",
"214 826 LINE",
"229 836 OFFCURVE",
"262 856 OFFCURVE",
"339 856 CURVE SMOOTH",
"425 856 OFFCURVE",
"512 819 OFFCURVE",
"512 715 CURVE SMOOTH",
"512 605 OFFCURVE",
"387 551 OFFCURVE",
"339 537 CURVE",
"285 622 LINE"
);
}
);
width = 700;
}
);
leftKerningGroup = hookabovecomb;
rightKerningGroup = hookabovecomb;
unicode = 0309;
},
{
glyphname = horncomb;
lastChange = "2020-04-05 00:16:35 +0000";
layers = (
{
anchors = (
{
name = _topright;
position = "{246, 665}";
},
{
name = topright;
position = "{413, 803}";
}
);
layerId = "9D4C2422-5CE9-4C2E-AAC7-BF869A02F5C8";
paths = (
{
closed = 1;
nodes = (
"379 610 OFFCURVE",
"429 670 OFFCURVE",
"429 727 CURVE SMOOTH",
"429 770 OFFCURVE",
"420 791 OFFCURVE",
"413 803 CURVE",
"374 803 LINE",
"384 780 OFFCURVE",
"389 766 OFFCURVE",
"389 730 CURVE SMOOTH",
"389 686 OFFCURVE",
"362 644 OFFCURVE",
"308 644 CURVE SMOOTH",
"283 644 OFFCURVE",
"259 654 OFFCURVE",
"246 665 CURVE",
"246 630 LINE",
"265 619 OFFCURVE",
"289 610 OFFCURVE",
"313 610 CURVE SMOOTH"
);
}
);
width = 700;
},
{
anchors = (
{
name = _topright;
position = "{246, 665}";
},
{
name = topright;
position = "{491, 803}";
}
);
layerId = "C45C3DCC-6617-4D42-8E57-0A4EECAD9C2E";
paths = (
{
closed = 1;
nodes = (
"417 535 OFFCURVE",
"514 601 OFFCURVE",
"514 707 CURVE SMOOTH",
"514 760 OFFCURVE",
"498 792 OFFCURVE",
"491 803 CURVE",
"341 803 LINE",
"351 780 OFFCURVE",
"356 759 OFFCURVE",
"356 723 CURVE SMOOTH",
"356 685 OFFCURVE",
"333 648 OFFCURVE",
"297 648 CURVE SMOOTH",
"272 648 OFFCURVE",
"259 654 OFFCURVE",
"246 665 CURVE",
"246 552 LINE",
"265 541 OFFCURVE",
"283 535 OFFCURVE",
"313 535 CURVE SMOOTH"
);
}
);
width = 700;
}
);
leftKerningGroup = horncomb;
rightKerningGroup = horncomb;
unicode = 031B;
},
{
glyphname = dieresis;
lastChange = "2019-07-14 14:18:37 +0000";
layers = (
{
layerId = "C45C3DCC-6617-4D42-8E57-0A4EECAD9C2E";
paths = (
{
closed = 1;
nodes = (
"96 808 OFFCURVE",
"48 759 OFFCURVE",
"48 699 CURVE SMOOTH",
"48 639 OFFCURVE",
"96 590 OFFCURVE",
"157 590 CURVE SMOOTH",
"217 590 OFFCURVE",
"265 639 OFFCURVE",
"265 699 CURVE SMOOTH",
"265 759 OFFCURVE",
"217 808 OFFCURVE",
"157 808 CURVE SMOOTH"
);
},
{
closed = 1;
nodes = (
"353 808 OFFCURVE",
"305 759 OFFCURVE",
"305 699 CURVE SMOOTH",
"305 639 OFFCURVE",
"353 590 OFFCURVE",
"414 590 CURVE SMOOTH",
"474 590 OFFCURVE",
"522 639 OFFCURVE",
"522 699 CURVE SMOOTH",
"522 759 OFFCURVE",
"474 808 OFFCURVE",
"414 808 CURVE SMOOTH"
);
}
);
width = 586;
},
{
layerId = "9D4C2422-5CE9-4C2E-AAC7-BF869A02F5C8";
paths = (
{
closed = 1;
nodes = (
"147 745 OFFCURVE",
"126 723 OFFCURVE",
"126 699 CURVE SMOOTH",
"126 675 OFFCURVE",
"147 653 OFFCURVE",
"172 653 CURVE SMOOTH",
"196 653 OFFCURVE",
"218 674 OFFCURVE",
"218 699 CURVE SMOOTH",
"218 724 OFFCURVE",
"196 745 OFFCURVE",
"172 745 CURVE SMOOTH"
);
},
{
closed = 1;
nodes = (
"384 745 OFFCURVE",
"363 723 OFFCURVE",
"363 699 CURVE SMOOTH",
"363 675 OFFCURVE",
"384 653 OFFCURVE",
"409 653 CURVE SMOOTH",
"433 653 OFFCURVE",
"455 674 OFFCURVE",
"455 699 CURVE SMOOTH",
"455 724 OFFCURVE",
"433 745 OFFCURVE",
"409 745 CURVE SMOOTH"
);
}
);
width = 606;
}
);
leftKerningGroup = dieresis;
rightKerningGroup = dieresis;
unicode = 00A8;
},
{
glyphname = dotaccent;
lastChange = "2019-07-10 14:01:49 +0000";
layers = (
{
layerId = "C45C3DCC-6617-4D42-8E57-0A4EECAD9C2E";
paths = (
{
closed = 1;
nodes = (
"106 808 OFFCURVE",
"58 759 OFFCURVE",
"58 699 CURVE SMOOTH",
"58 639 OFFCURVE",
"106 590 OFFCURVE",
"167 590 CURVE SMOOTH",
"227 590 OFFCURVE",
"275 639 OFFCURVE",
"275 699 CURVE SMOOTH",
"275 759 OFFCURVE",
"227 808 OFFCURVE",
"167 808 CURVE SMOOTH"
);
}
);
width = 349;
},
{
layerId = "9D4C2422-5CE9-4C2E-AAC7-BF869A02F5C8";
paths = (
{
closed = 1;
nodes = (
"147 745 OFFCURVE",
"126 723 OFFCURVE",
"126 699 CURVE SMOOTH",
"126 675 OFFCURVE",
"147 653 OFFCURVE",
"172 653 CURVE SMOOTH",
"196 653 OFFCURVE",
"218 674 OFFCURVE",
"218 699 CURVE SMOOTH",
"218 724 OFFCURVE",
"196 745 OFFCURVE",
"172 745 CURVE SMOOTH"
);
}
);
width = 369;
}
);
leftKerningGroup = dotaccent;
rightKerningGroup = dotaccent;
unicode = 02D9;
},
{
glyphname = grave;
lastChange = "2019-07-10 14:01:49 +0000";
layers = (
{
layerId = "C45C3DCC-6617-4D42-8E57-0A4EECAD9C2E";
paths = (
{
closed = 1;
nodes = (
"356 667 LINE",
"144 855 LINE",
"34 716 LINE",
"288 573 LINE"
);
}
);
width = 413;
},
{
layerId = "9D4C2422-5CE9-4C2E-AAC7-BF869A02F5C8";
paths = (
{
closed = 1;
nodes = (
"323 657 LINE",
"143 798 LINE",
"106 751 LINE",
"299 626 LINE"
);
}
);
width = 433;
}
);
leftKerningGroup = grave;
rightKerningGroup = grave;
unicode = 0060;
},
{
glyphname = acute;
lastChange = "2019-07-10 14:01:49 +0000";
layers = (
{
layerId = "C45C3DCC-6617-4D42-8E57-0A4EECAD9C2E";
paths = (
{
closed = 1;
nodes = (
"453 716 LINE",
"343 855 LINE",
"131 667 LINE",
"199 573 LINE"
);
}
);
width = 591;
},
{
layerId = "9D4C2422-5CE9-4C2E-AAC7-BF869A02F5C8";
paths = (
{
closed = 1;
nodes = (
"392 751 LINE",
"354 798 LINE",
"175 657 LINE",
"199 626 LINE"
);
}
);
width = 611;
}
);
leftKerningGroup = acute;
rightKerningGroup = acute;
unicode = 00B4;
},
{
glyphname = hungarumlaut;
lastChange = "2019-07-10 14:01:49 +0000";
layers = (
{
layerId = "C45C3DCC-6617-4D42-8E57-0A4EECAD9C2E";
paths = (
{
closed = 1;
nodes = (
"368 752 LINE",
"270 875 LINE",
"94 671 LINE",
"161 575 LINE"
);
},
{
closed = 1;
nodes = (
"577 752 LINE",
"479 875 LINE",
"303 671 LINE",
"370 575 LINE"
);
}
);
width = 631;
},
{
layerId = "9D4C2422-5CE9-4C2E-AAC7-BF869A02F5C8";
paths = (
{
closed = 1;
nodes = (
"329 769 LINE",
"290 818 LINE",
"126 645 LINE",
"151 621 LINE"
);
},
{
closed = 1;
nodes = (
"545 769 LINE",
"506 818 LINE",
"342 645 LINE",
"367 621 LINE"
);
}
);
width = 651;
}
);
leftKerningGroup = hungarumlaut;
rightKerningGroup = hungarumlaut;
unicode = 02DD;
},
{
glyphname = circumflex;
lastChange = "2019-07-10 14:01:49 +0000";
layers = (
{
layerId = "C45C3DCC-6617-4D42-8E57-0A4EECAD9C2E";
paths = (
{
closed = 1;
nodes = (
"297 678 LINE",
"458 560 LINE",
"540 669 LINE",
"297 847 LINE",
"53 669 LINE",
"135 560 LINE"
);
}
);
width = 607;
},
{
layerId = "9D4C2422-5CE9-4C2E-AAC7-BF869A02F5C8";
paths = (
{
closed = 1;
nodes = (
"302 757 LINE",
"431 662 LINE",
"461 703 LINE",
"302 820 LINE",
"143 704 LINE",
"174 663 LINE"
);
}
);
width = 627;
}
);
leftKerningGroup = circumflex;
rightKerningGroup = circumflex;
unicode = 02C6;
},
{
glyphname = caron;
lastChange = "2019-07-10 14:01:49 +0000";
layers = (
{
layerId = "C45C3DCC-6617-4D42-8E57-0A4EECAD9C2E";
paths = (
{
closed = 1;
nodes = (
"297 578 LINE",
"540 756 LINE",
"458 865 LINE",
"297 747 LINE",
"135 866 LINE",
"53 757 LINE"
);
}
);
width = 607;
},
{
layerId = "9D4C2422-5CE9-4C2E-AAC7-BF869A02F5C8";
paths = (
{
closed = 1;
nodes = (
"302 612 LINE",
"461 729 LINE",
"431 770 LINE",
"302 676 LINE",
"174 769 LINE",
"143 728 LINE"
);
}
);
width = 627;
}
);
leftKerningGroup = caron;
rightKerningGroup = caron;
unicode = 02C7;
},
{
glyphname = breve;
lastChange = "2020-04-04 14:50:29 +0000";
layers = (
{
layerId = "C45C3DCC-6617-4D42-8E57-0A4EECAD9C2E";
paths = (
{
closed = 1;
nodes = (
"416 863 LINE",
"412 815 OFFCURVE",
"379 751 OFFCURVE",
"306 751 CURVE SMOOTH",
"233 751 OFFCURVE",
"201 815 OFFCURVE",
"197 863 CURVE",
"44 825 LINE",
"59 695 OFFCURVE",
"163 619 OFFCURVE",
"306 619 CURVE SMOOTH",
"453 619 OFFCURVE",
"554 699 OFFCURVE",
"568 825 CURVE"
);
}
);
width = 627;
},
{
layerId = "9D4C2422-5CE9-4C2E-AAC7-BF869A02F5C8";
paths = (
{
closed = 1;
nodes = (
"403 778 LINE",
"396 744 OFFCURVE",
"366 698 OFFCURVE",
"311 698 CURVE SMOOTH",
"256 698 OFFCURVE",
"225 744 OFFCURVE",
"218 778 CURVE",
"166 765 LINE",
"171 719 OFFCURVE",
"222 653 OFFCURVE",
"311 653 CURVE SMOOTH",
"401 653 OFFCURVE",
"451 721 OFFCURVE",
"456 765 CURVE"
);
}
);
width = 647;
}
);
leftKerningGroup = breve;
rightKerningGroup = breve;
unicode = 02D8;
},
{
glyphname = ring;
lastChange = "2020-04-04 23:48:47 +0000";
layers = (
{
layerId = "C45C3DCC-6617-4D42-8E57-0A4EECAD9C2E";
paths = (
{
closed = 1;
nodes = (
"53 638 OFFCURVE",
"127 571 OFFCURVE",
"236 571 CURVE SMOOTH",
"342 571 OFFCURVE",
"418 638 OFFCURVE",
"418 733 CURVE SMOOTH",
"418 827 OFFCURVE",
"339 894 OFFCURVE",
"236 894 CURVE SMOOTH",
"134 894 OFFCURVE",
"53 827 OFFCURVE",
"53 733 CURVE SMOOTH"
);
},
{
closed = 1;
nodes = (
"186 764 OFFCURVE",
"208 784 OFFCURVE",
"236 784 CURVE SMOOTH",
"262 784 OFFCURVE",
"285 764 OFFCURVE",
"285 733 CURVE SMOOTH",
"285 701 OFFCURVE",
"263 680 OFFCURVE",
"236 680 CURVE SMOOTH",
"207 680 OFFCURVE",
"186 700 OFFCURVE",
"186 733 CURVE SMOOTH"
);
}
);
width = 487;
},
{
layerId = "9D4C2422-5CE9-4C2E-AAC7-BF869A02F5C8";
paths = (
{
closed = 1;
nodes = (
"140 679 OFFCURVE",
"180 641 OFFCURVE",
"241 641 CURVE SMOOTH",
"300 641 OFFCURVE",
"342 679 OFFCURVE",
"342 732 CURVE SMOOTH",
"342 784 OFFCURVE",
"298 823 OFFCURVE",
"241 823 CURVE SMOOTH",
"185 823 OFFCURVE",
"140 784 OFFCURVE",
"140 732 CURVE SMOOTH"
);
},
{
closed = 1;
nodes = (
"185 768 OFFCURVE",
"212 789 OFFCURVE",
"241 789 CURVE SMOOTH",
"273 789 OFFCURVE",
"297 768 OFFCURVE",
"297 732 CURVE SMOOTH",
"297 696 OFFCURVE",
"273 675 OFFCURVE",
"241 675 CURVE SMOOTH",
"212 675 OFFCURVE",
"185 696 OFFCURVE",
"185 732 CURVE SMOOTH"
);
}
);
width = 507;
}
);
leftKerningGroup = ring;
rightKerningGroup = ring;
unicode = 02DA;
},
{
glyphname = tilde;
lastChange = "2020-04-04 14:50:29 +0000";
layers = (
{
layerId = "C45C3DCC-6617-4D42-8E57-0A4EECAD9C2E";
paths = (
{
closed = 1;
nodes = (
"274 647 OFFCURVE",
"326 602 OFFCURVE",
"406 602 CURVE SMOOTH",
"495 602 OFFCURVE",
"542 715 OFFCURVE",
"553 800 CURVE SMOOTH",
"437 800 LINE SMOOTH",
"431 781 OFFCURVE",
"416 755 OFFCURVE",
"396 755 CURVE SMOOTH",
"341 755 OFFCURVE",
"287 800 OFFCURVE",
"207 800 CURVE SMOOTH",
"118 800 OFFCURVE",
"70 687 OFFCURVE",
"59 602 CURVE",
"175 602 LINE",
"180 621 OFFCURVE",
"194 647 OFFCURVE",
"214 647 CURVE SMOOTH"
);
}
);
width = 627;
},
{
layerId = "9D4C2422-5CE9-4C2E-AAC7-BF869A02F5C8";
paths = (
{
closed = 1;
nodes = (
"290 701 OFFCURVE",
"316 653 OFFCURVE",
"391 653 CURVE SMOOTH",
"446 653 OFFCURVE",
"485 708 OFFCURVE",
"499 750 CURVE SMOOTH",
"439 750 LINE SMOOTH",
"434 729 OFFCURVE",
"415 701 OFFCURVE",
"381 701 CURVE SMOOTH",
"324 701 OFFCURVE",
"303 750 OFFCURVE",
"228 750 CURVE SMOOTH",
"173 750 OFFCURVE",
"136 695 OFFCURVE",
"124 653 CURVE",
"184 653 LINE",
"191 674 OFFCURVE",
"213 701 OFFCURVE",
"245 701 CURVE SMOOTH"
);
}
);
width = 647;
}
);
leftKerningGroup = tilde;
rightKerningGroup = tilde;
unicode = 02DC;
},
{
glyphname = macron;
lastChange = "2019-07-10 14:01:49 +0000";
layers = (
{
layerId = "C45C3DCC-6617-4D42-8E57-0A4EECAD9C2E";
paths = (
{
closed = 1;
nodes = (
"497 620 LINE",
"497 768 LINE",
"62 768 LINE",
"62 620 LINE"
);
}
);
width = 573;
},
{
layerId = "9D4C2422-5CE9-4C2E-AAC7-BF869A02F5C8";
paths = (
{
closed = 1;
nodes = (
"451 674 LINE",
"451 714 LINE",
"118 714 LINE",
"118 674 LINE"
);
}
);
width = 593;
}
);
leftKerningGroup = macron;
rightKerningGroup = macron;
unicode = 00AF;
},
